<svg width="284" height="284" viewBox="0 0 284 284" fill="none" xmlns="http://www.w3.org/2000/svg">
<path d="M94.3959 44.2585C94.3959 44.2585 51.3586 66.1834 29.8939 99.968C8.42914 133.753 10.1275 177.216 36.21 209.478C62.2926 241.741 112.146 237.504 153.888 257.94C195.631 278.377 241.684 274.168 261.422 230.869C281.16 187.571 251.397 171.388 246.285 121.279C241.173 71.1704 196 -2.20385 94.3959 44.2585Z" fill="url(#paint0_linear_78_292)"/>
<path opacity="0.7" d="M94.3959 44.2585C94.3959 44.2585 51.3586 66.1834 29.8939 99.968C8.42914 133.753 10.1275 177.216 36.21 209.478C62.2926 241.741 112.146 237.504 153.888 257.94C195.631 278.377 241.684 274.168 261.422 230.869C281.16 187.571 251.397 171.388 246.285 121.279C241.173 71.1704 196 -2.20385 94.3959 44.2585Z" fill="white"/>
<path d="M209.228 51.5858C204.946 49.2513 202.98 51.1995 201.441 49.2513C199.902 47.3031 205.724 42.2422 194.057 37.1813C194.057 37.1813 193.279 26.2814 177.313 25.8895C161.346 25.4975 165.634 36.7951 161.352 39.5215C157.069 42.2479 155.899 37.9651 151.616 40.6915C147.333 43.4179 149.27 48.848 145.766 49.6432C142.261 50.4384 137.587 46.1387 133.304 48.8651C129.021 51.5915 129.021 53.9259 127.056 53.9259C125.091 53.9259 121.211 52.3696 118.877 53.9259C116.542 55.4823 113.816 57.4305 113.816 57.4305H212.347C212.347 57.4305 213.511 53.9259 209.228 51.5858Z" stroke="#263238" stroke-linecap="round" stroke-linejoin="round"/>
<path d="M150.957 49.984C150.399 50.2989 149.818 50.5723 149.219 50.8019" stroke="#263238" stroke-linecap="round" stroke-linejoin="round"/>
<path d="M172.03 31.808C171.064 32.2391 170.215 32.8951 169.554 33.7211C168.893 34.5472 168.439 35.5193 168.23 36.5565C167.515 40.1235 165.85 42.4977 163.953 42.7363C162.056 42.9749 154.922 42.2592 153.729 44.8777C153.412 45.643 153.189 46.4441 153.065 47.2633" stroke="#263238" stroke-linecap="round" stroke-linejoin="round"/>
<path d="M113.066 79.5768C110.822 78.3556 109.8 79.3723 108.982 78.3556C108.164 77.3388 111.226 74.6806 105.103 72.0224C105.103 72.0224 104.694 66.3083 96.3271 66.1038C87.9605 65.8993 90.1984 71.8179 87.9548 73.272C85.7112 74.726 85.1148 72.454 82.8428 73.8854C80.5708 75.3168 81.6216 78.1738 79.7813 78.5828C77.9409 78.9917 75.4929 76.7424 73.2493 78.1738C71.0057 79.6052 70.9773 80.8264 69.9833 80.8264C68.9893 80.8264 66.9217 80.0084 65.6949 80.8264C64.468 81.6443 63.0423 82.661 63.0423 82.661H114.691C114.691 82.661 115.304 80.8037 113.066 79.5768Z" stroke="#263238" stroke-linecap="round" stroke-linejoin="round"/>
<path d="M82.5134 78.7418C82.2179 78.903 81.9124 79.0453 81.5989 79.1678" stroke="#263238" stroke-linecap="round" stroke-linejoin="round"/>
<path d="M93.5609 69.2052C93.0543 69.4308 92.6089 69.7743 92.2621 70.2071C91.9152 70.6399 91.677 71.1494 91.5673 71.693C91.1924 73.5618 90.3233 74.8114 89.2953 74.9363C88.2672 75.0613 84.5638 74.6864 83.939 76.0723C83.7742 76.474 83.6561 76.8933 83.5869 77.3219" stroke="#263238" stroke-linecap="round" stroke-linejoin="round"/>
<path d="M179.857 122.302C179.857 122.302 206.627 124.954 220.185 141.546C220.185 141.546 234.522 122.324 260.269 122.716C266.558 115.127 270.563 105.908 271.816 96.1309C273.069 86.3543 271.519 76.4229 267.346 67.4929C263.174 58.563 256.551 51.0019 248.248 45.6901C239.945 40.3782 230.304 37.5341 220.448 37.4888C210.591 37.4436 200.925 40.1991 192.574 45.4345C184.222 50.6699 177.53 58.1698 173.276 67.0611C169.022 75.9523 167.381 85.8691 168.544 95.6569C169.707 105.445 173.626 114.701 179.846 122.347L179.857 122.302Z" fill="url(#paint1_linear_78_292)"/>
<path opacity="0.5" d="M179.857 122.302C179.857 122.302 206.627 124.954 220.185 141.546C220.185 141.546 234.522 122.324 260.269 122.716C266.558 115.127 270.563 105.908 271.816 96.1309C273.069 86.3543 271.519 76.4229 267.346 67.4929C263.174 58.563 256.551 51.0019 248.248 45.6901C239.945 40.3782 230.304 37.5341 220.448 37.4888C210.591 37.4436 200.925 40.1991 192.574 45.4345C184.222 50.6699 177.53 58.1698 173.276 67.0611C169.022 75.9523 167.381 85.8691 168.544 95.6569C169.707 105.445 173.626 114.701 179.846 122.347L179.857 122.302Z" fill="white"/>
<path d="M219.311 41.1572L218.402 245.808H222.923L219.311 41.1572Z" fill="#263238"/>
<path d="M220.662 136.49C220.662 136.49 229.699 120.223 245.944 115.253C245.944 115.253 228.773 119.32 220.191 133.327L220.662 136.49Z" fill="#263238"/>
<path d="M220.662 90.4029C220.662 90.4029 229.699 74.141 245.944 69.171C245.944 69.171 228.773 73.2379 220.191 87.2391L220.662 90.4029Z" fill="#263238"/>
<path d="M220.662 113.447C220.662 113.447 229.699 97.1791 245.944 92.2091C245.944 92.2091 228.773 96.276 220.191 110.283L220.662 113.447Z" fill="#263238"/>
<path d="M219.322 102.149C219.322 102.149 210.603 85.8872 194.898 80.9172C194.898 80.9172 211.466 84.9841 219.748 98.991L219.322 102.149Z" fill="#263238"/>
<path d="M219.322 124.738C219.322 124.738 210.603 108.477 194.898 103.507C194.898 103.507 211.466 107.573 219.748 121.58L219.322 124.738Z" fill="#263238"/>
<path d="M96.0829 143.517C96.0829 143.517 118.235 145.715 129.487 159.455C129.487 159.455 141.358 143.551 162.681 143.863C167.892 137.578 171.21 129.941 172.249 121.843C173.288 113.745 172.005 105.518 168.549 98.1207C165.094 90.7234 159.608 84.4599 152.731 80.0595C145.854 75.6591 137.868 73.3029 129.703 73.2653C121.539 73.2278 113.532 75.5103 106.614 79.8471C99.6968 84.184 94.1536 90.3967 90.6302 97.7619C87.1068 105.127 85.7482 113.342 86.7125 121.449C87.6768 129.556 90.9245 137.223 96.0772 143.556L96.0829 143.517Z" fill="url(#paint2_linear_78_292)"/>
<path opacity="0.3" d="M96.0829 143.517C96.0829 143.517 118.235 145.715 129.487 159.455C129.487 159.455 141.358 143.551 162.681 143.863C167.892 137.578 171.21 129.941 172.249 121.843C173.288 113.745 172.005 105.518 168.549 98.1207C165.094 90.7234 159.608 84.4599 152.731 80.0595C145.854 75.6591 137.868 73.3029 129.703 73.2653C121.539 73.2278 113.532 75.5103 106.614 79.8471C99.6968 84.184 94.1536 90.3967 90.6302 97.7619C87.1068 105.127 85.7482 113.342 86.7125 121.449C87.6768 129.556 90.9245 137.223 96.0772 143.556L96.0829 143.517Z" fill="white"/>
<path d="M128.754 76.3108L128.01 245.808H131.748L128.754 76.3108Z" fill="#263238"/>
<path d="M129.879 155.268C129.879 155.268 137.359 141.795 150.832 137.66C150.832 137.66 136.632 141.029 129.504 152.627L129.879 155.268Z" fill="#263238"/>
<path d="M129.879 117.099C129.879 117.099 137.359 103.626 150.832 99.4908C150.832 99.4908 136.632 102.859 129.504 114.463L129.879 117.099Z" fill="#263238"/>
<path d="M129.879 136.184C129.879 136.184 137.359 122.711 150.832 118.576C150.832 118.576 136.632 121.944 129.504 133.548L129.879 136.184Z" fill="#263238"/>
<path d="M128.771 126.829C128.771 126.829 121.546 113.356 108.55 109.221C108.55 109.221 122.268 112.589 129.129 124.193L128.771 126.829Z" fill="#263238"/>
<path d="M128.771 145.539C128.771 145.539 121.546 132.066 108.55 127.931C108.55 127.931 122.268 131.299 129.129 142.903L128.771 145.539Z" fill="#263238"/>
<path d="M148.322 245.615C148.242 243.837 148.475 240.463 150.389 235.391C153.388 227.439 158.642 243.343 158.642 243.343C158.642 243.343 158.642 241.451 164.271 235.391C169.9 229.33 174.774 239.935 174.774 239.935C174.774 239.935 172.149 214.568 178.528 216.459C184.907 218.351 184.151 239.935 184.151 239.935C184.151 239.935 188.656 224.031 194.659 224.031C200.663 224.031 202.163 235.391 202.163 235.391C202.163 235.391 203.662 215.323 209.666 214.943C215.67 214.562 222.417 231.608 222.417 231.608C222.417 231.608 220.543 208.888 226.547 207.752C232.551 206.616 234.8 216.079 234.8 216.079C234.8 216.079 240.048 184.651 250.181 188.44C260.314 192.228 251.681 227.064 251.681 227.064C251.681 227.064 261.808 202.827 270.061 208.507C277.565 213.67 268.016 240.736 266.222 245.615H148.322Z" fill="url(#paint3_linear_78_292)"/>
<path d="M269.419 245.564C269.419 245.564 273.816 231.983 271.561 229.711C269.306 227.439 259.576 237.288 259.576 237.288C259.576 237.288 266.704 213.051 255.447 210.024C244.189 206.996 242.32 233.499 242.32 233.499C242.32 233.499 234.067 221.384 232.187 225.928C231.054 228.697 230.42 231.645 230.313 234.635C230.313 234.635 226.189 201.691 216.806 203.208C207.422 204.724 216.056 237.288 216.056 237.288C216.056 237.288 210.807 225.928 204.804 227.064C198.8 228.2 196.528 235.391 196.528 235.391C196.528 235.391 193.904 228.955 192.024 228.955C190.144 228.955 187.9 240.315 187.9 240.315C187.9 240.315 185.628 222.895 181.521 223.656C177.415 224.417 168.764 239.179 168.764 239.179C168.764 239.179 170.269 230.847 165.765 230.472C161.261 230.097 158.637 243.343 158.637 243.343C158.637 243.343 152.633 230.847 148.884 233.119C145.135 235.391 146.925 245.944 146.925 245.944" stroke="#263238" stroke-linecap="round" stroke-linejoin="round"/>
<path d="M249.165 245.376L252.431 229.336" stroke="#263238" stroke-linecap="round" stroke-linejoin="round"/>
<path d="M225.797 245.615L223.917 235.016" stroke="#263238" stroke-linecap="round" stroke-linejoin="round"/>
<path d="M178.352 245.564L180.777 236.907" stroke="#263238" stroke-linecap="round" stroke-linejoin="round"/>
<path d="M207.411 245.995L203.287 238.424" stroke="#263238" stroke-linecap="round" stroke-linejoin="round"/>
<path d="M249.806 239.179L246.802 233.119" stroke="#263238" stroke-linecap="round" stroke-linejoin="round"/>
<path d="M225.797 242.207L228.421 236.907" stroke="#263238" stroke-linecap="round" stroke-linejoin="round"/>
<path d="M205.536 241.832L207.411 238.424" stroke="#263238" stroke-linecap="round" stroke-linejoin="round"/>
<path d="M179.107 242.349L177.778 237.663" stroke="#263238" stroke-linecap="round" stroke-linejoin="round"/>
<path d="M131.208 245.7C131.27 244.32 131.094 241.724 129.691 237.748C127.493 231.574 123.637 243.922 123.637 243.922C123.637 243.922 123.637 242.451 119.513 237.748C115.389 233.045 111.811 241.275 111.811 241.275C111.811 241.275 113.736 221.583 109.056 223.054C104.376 224.525 104.932 241.275 104.932 241.275C104.932 241.275 101.672 228.949 97.2416 228.949C92.8112 228.949 91.7377 237.765 91.7377 237.765C91.7377 237.765 90.6414 222.185 86.2394 221.895C81.8374 221.605 76.8845 234.823 76.8845 234.823C76.8845 234.823 78.259 217.215 73.857 216.306C69.455 215.397 67.8022 222.775 67.8022 222.775C67.8022 222.775 63.9511 198.38 56.5217 201.316C49.0922 204.253 55.4198 231.301 55.4198 231.301C55.4198 231.301 47.9903 212.489 41.9411 216.896C36.4372 220.907 43.4406 241.889 44.7811 245.7H131.208Z" fill="url(#paint4_linear_78_292)"/>
<path d="M42.4126 245.66C42.4126 245.66 39.192 235.118 40.8392 233.357C42.4864 231.596 49.6432 239.236 49.6432 239.236C49.6432 239.236 44.4176 220.424 52.6706 218.072C60.9237 215.721 62.3266 236.294 62.3266 236.294C62.3266 236.294 68.3815 226.888 69.7561 230.415C70.5884 232.576 71.053 234.86 71.1306 237.174C71.1306 237.174 74.1581 211.614 81.0366 212.779C87.915 213.943 81.6046 239.236 81.6046 239.236C81.6046 239.236 85.4556 230.415 89.8576 231.284C94.2596 232.153 95.9125 237.748 95.9125 237.748C95.9125 237.748 97.838 232.749 99.2126 232.749C100.587 232.749 102.24 241.571 102.24 241.571C102.24 241.571 103.893 228.046 106.92 228.637C109.948 229.228 116.275 240.684 116.275 240.684C116.275 240.684 115.173 234.221 118.473 233.925C121.774 233.63 123.699 243.922 123.699 243.922C123.699 243.922 128.101 234.221 130.856 235.97C133.611 237.719 132.253 245.944 132.253 245.944" stroke="#263238" stroke-linecap="round" stroke-linejoin="round"/>
<path d="M57.2658 245.512L54.8688 233.062" stroke="#263238" stroke-linecap="round" stroke-linejoin="round"/>
<path d="M74.408 245.7L75.7826 237.469" stroke="#263238" stroke-linecap="round" stroke-linejoin="round"/>
<path d="M109.204 245.66L107.42 238.941" stroke="#263238" stroke-linecap="round" stroke-linejoin="round"/>
<path d="M87.8867 245.995L90.9141 240.116" stroke="#263238" stroke-linecap="round" stroke-linejoin="round"/>
<path d="M56.8 240.701L58.9981 235.998" stroke="#263238" stroke-linecap="round" stroke-linejoin="round"/>
<path d="M74.408 243.053L72.4825 238.941" stroke="#263238" stroke-linecap="round" stroke-linejoin="round"/>
<path d="M89.2612 242.763L87.8867 240.116" stroke="#263238" stroke-linecap="round" stroke-linejoin="round"/>
<path d="M108.647 243.161L109.624 239.526" stroke="#263238" stroke-linecap="round" stroke-linejoin="round"/>
<path d="M9.65601 245.808H280.592" stroke="#263238" stroke-linecap="round" stroke-linejoin="round"/>
<path d="M216.567 198.561L213.795 202.725L191.018 212.625C191.018 212.625 187.849 213.221 187.849 214.21C187.849 215.198 187.253 217.976 187.849 218.373C188.445 218.771 192.393 217.379 192.393 217.379C192.393 217.379 191.206 218.765 192.393 219.163C193.58 219.56 194.767 217.777 194.767 217.777C195.93 217.044 197.054 216.252 198.135 215.403C198.693 214.669 199.159 213.87 199.521 213.023L220.537 207.678L224.894 201.14C224.894 201.14 215.976 200.146 216.567 198.561Z" fill="#B5B5B5" stroke="#263238" stroke-linecap="round" stroke-linejoin="round"/>
<path d="M218.152 189.224L215.573 197.687L222.315 201.702L225.036 195.102L218.152 189.224Z" fill="white" stroke="#263238" stroke-linecap="round" stroke-linejoin="round"/>
<path d="M215.84 194.96L224.019 199.839L222.582 202.418L214.84 198.402C214.894 197.192 215.237 196.011 215.84 194.96Z" fill="white" stroke="#263238" stroke-linecap="round" stroke-linejoin="round"/>
<path d="M199.652 239.696C199.652 239.696 193.915 242.564 192.336 243.854C190.757 245.143 190.473 244.99 190.899 246.006H209.263L208.831 239.406L199.652 239.696Z" fill="white" stroke="#263238" stroke-linecap="round" stroke-linejoin="round"/>
<path d="M209.194 245.018H190.899C190.649 245.285 190.678 245.501 190.899 246.024H209.263L209.194 245.018Z" fill="white" stroke="#263238" stroke-linecap="round" stroke-linejoin="round"/>
<path d="M224.32 205.576C224.32 205.576 217.294 202.708 211.557 202.134C205.82 201.561 193.915 201.845 193.342 204.406C192.768 206.968 201.805 235.078 201.805 235.078C201.805 235.078 200.226 236.084 200.101 236.782C199.976 237.481 199.675 239.622 199.675 239.622L208.854 241.054C208.854 241.054 209.138 238.185 209.138 235.464C209.138 232.744 205.985 215.954 205.985 215.954L224.485 221.838L217.601 236.464C217.601 236.464 215.454 240.77 217.89 242.922C220.327 245.075 224.343 244.626 224.343 244.626L257.048 245.058L256.48 239.747C256.48 239.747 251.749 239.031 250.886 239.031C250.022 239.031 233.528 234.874 233.528 234.874C233.528 234.874 246.728 221.1 248.159 218.805C249.011 217.534 249.591 216.102 249.863 214.596C250.134 213.091 250.092 211.546 249.738 210.058C248.875 206.616 248.301 205.894 248.301 205.894C248.301 205.894 238.236 210.728 233.073 209.592C229.911 208.869 226.931 207.502 224.32 205.576Z" fill="#263238" stroke="#263238" stroke-linecap="round" stroke-linejoin="round"/>
<path d="M200.941 161.539C200.941 161.539 201.947 164.839 201.947 165.271C201.947 165.703 201.225 167.85 201.805 168.565C202.384 169.281 204.077 169.429 204.077 169.429C204.077 169.429 206.655 172.439 207.803 173.587C208.95 174.734 210.24 175.166 211.677 174.45C213.114 173.734 214.403 171.865 214.403 171.865L217.129 174.592L223.44 167.276L221.168 164.408C221.168 164.408 221.736 161.108 219.589 156.808C217.442 152.508 209.978 151.355 205.099 152.218C200.22 153.082 199.078 155.944 199.078 156.518C199.078 157.092 200.941 161.539 200.941 161.539Z" fill="white" stroke="#263238" stroke-linecap="round" stroke-linejoin="round"/>
<path d="M203.526 148.487C203.526 148.487 200.51 146.215 198.505 147.197C196.5 148.18 197.369 149.06 197.068 150.781C196.767 152.502 191.762 152.644 191.762 155.513C191.762 158.381 195.347 159.386 196.062 159.528C196.778 159.67 196.21 162.829 198.334 162.829C200.459 162.829 200.919 161.539 200.919 161.539C200.919 161.539 199.34 156.95 201.061 156.234C202.782 155.518 206.655 154.081 206.082 156.802C205.508 159.523 207.519 160.386 208.666 160.102C209.813 159.818 211.245 159.954 211.506 160.528C211.767 161.102 213.21 162.107 213.21 160.676C213.21 159.244 213.926 157.949 215.215 157.949C216.505 157.949 217.487 160.102 217.368 161.823C217.271 162.86 216.877 163.846 216.232 164.663L221.111 164.374C221.111 164.374 222.4 157.921 221.253 153.332C220.106 148.742 214.704 146.192 211.41 145.76C208.115 145.328 203.952 147.197 203.526 148.487Z" fill="#263238" stroke="#263238" stroke-linecap="round" stroke-linejoin="round"/>
<path d="M204.758 164.101C205.116 164.669 205.201 165.237 204.957 165.379C204.713 165.521 204.213 165.237 203.861 164.692C203.509 164.146 203.412 163.556 203.662 163.414C203.912 163.272 204.4 163.584 204.758 164.101Z" fill="#263238"/>
<path d="M206.621 170.542C207.307 170.406 207.928 170.046 208.388 169.521C208.848 168.995 209.122 168.331 209.166 167.634" stroke="#263238" stroke-linecap="round" stroke-linejoin="round"/>
<path d="M202.253 162.902C202.253 162.902 202.492 161.568 204.071 162.175" stroke="#263238" stroke-linecap="round" stroke-linejoin="round"/>
<path d="M217.436 177.029C217.436 177.029 216.3 186.497 217.578 189.366C218.856 192.234 223.463 203.708 223.463 203.708C223.463 203.708 222.457 210.728 225.326 212.602C228.194 214.477 239.094 214.755 243.257 212.171C247.421 209.586 249.136 207.581 249.136 205.718C249.136 203.855 246.41 195.676 242.11 187.502C238.961 181.516 234.615 176.242 229.341 172.007C226.331 169.571 225.184 168.423 224.61 168.423C224.036 168.423 217.152 174.308 217.436 177.029Z" fill="white" stroke="#263238" stroke-linecap="round" stroke-linejoin="round"/>
<path d="M223.463 166.56L215.715 175.308L217.294 180.045L226.041 168.713L223.463 166.56Z" fill="white" stroke="#263238" stroke-linecap="round" stroke-linejoin="round"/>
<path d="M223.605 198.544C223.605 198.544 207.826 207.581 205.82 208.303C203.815 209.024 197.357 209.018 195.489 208.871C195.259 208.83 195.024 208.84 194.799 208.9C194.574 208.961 194.366 209.07 194.188 209.22C194.01 209.37 193.867 209.558 193.77 209.769C193.673 209.981 193.624 210.211 193.626 210.444L193.342 215.897C193.342 215.897 194.915 216.329 195.614 215.897C196.312 215.465 197.045 213.886 197.045 213.886C197.045 213.886 199.629 214.176 200.487 213.602C201.05 213.219 201.578 212.788 202.066 212.313C204.716 212.093 207.351 211.713 209.956 211.177C212.824 210.455 226.019 206.156 228.029 205.724C230.04 205.292 230.756 204.145 230.898 203.452C231.04 202.759 223.605 198.544 223.605 198.544Z" fill="white" stroke="#263238" stroke-linecap="round" stroke-linejoin="round"/>
<path d="M205.616 208.359C203.424 209.013 197.301 209.013 195.489 208.876C195.259 208.835 195.024 208.845 194.799 208.906C194.574 208.966 194.366 209.075 194.188 209.226C194.01 209.376 193.867 209.563 193.77 209.775C193.673 209.986 193.624 210.217 193.626 210.45L193.342 215.902C193.342 215.902 194.915 216.334 195.614 215.902C196.312 215.471 197.045 213.892 197.045 213.892C197.045 213.892 199.629 214.181 200.487 213.608C201.05 213.225 201.578 212.793 202.066 212.318C202.066 212.318 204.474 212.108 206.911 211.75L205.616 208.359Z" fill="url(#paint5_linear_78_292)" stroke="#263238" stroke-linecap="round" stroke-linejoin="round"/>
<path d="M224.752 177.176C224.752 177.176 222.315 179.897 222.599 181.908C222.883 183.918 223.605 198.544 223.605 198.544L231.778 201.845L234.05 190.229C234.05 190.229 235.919 187.213 235.629 184.344" fill="white"/>
<path d="M224.752 177.176C224.752 177.176 222.315 179.897 222.599 181.908C222.883 183.918 223.605 198.544 223.605 198.544L231.778 201.845L234.05 190.229C234.05 190.229 235.919 187.213 235.629 184.344" stroke="#263238" stroke-linecap="round" stroke-linejoin="round"/>
<path d="M222.889 199.266L231.204 204.281C231.204 204.281 232.34 204.281 232.499 202.418C232.658 200.555 233.499 200.265 232.783 199.266C232.068 198.266 224.462 195.102 223.747 195.102C223.031 195.102 222.315 196.823 222.889 199.266Z" fill="white" stroke="#263238" stroke-linecap="round" stroke-linejoin="round"/>
<path d="M256.452 239.855C256.452 239.855 260.752 236.129 261.473 236.271C262.195 236.413 267.926 241.866 267.926 241.866C267.926 241.866 273.231 244.734 273.231 245.166C273.231 245.597 272.373 245.734 272.373 245.734L257.037 245.166L256.452 239.855Z" fill="white" stroke="#263238" stroke-linecap="round" stroke-linejoin="round"/>
<path d="M273.208 245.166C273.208 244.734 267.903 241.866 267.903 241.866C267.903 241.866 262.166 236.413 261.45 236.271C261.195 236.22 260.479 236.663 259.673 237.254L266.614 242.15L271.669 245.711L272.35 245.74C272.35 245.74 273.208 245.592 273.208 245.166Z" fill="white" stroke="#263238" stroke-linecap="round" stroke-linejoin="round"/>
<path d="M224.462 221.929L223.031 215.902" stroke="#999999" stroke-linecap="round" stroke-linejoin="round"/>
<path d="M174.558 198.05C172.854 197.085 170.349 195.778 170.349 195.778C170.349 195.778 166.975 187.258 164.328 183.282C161.681 179.306 160.114 178.823 157.222 178.585C154.331 178.346 145.669 180.63 145.294 181.232C145.294 181.232 137.229 184.964 135.184 187.616C133.139 190.269 133.855 210.847 133.855 210.847C133.855 210.847 125.199 216.709 122.915 223.224C121.461 227.353 123.154 234.175 130.981 236.226C133.592 236.924 136.333 236.985 138.973 236.402C141.006 238.117 143.258 239.555 145.669 240.679C153.735 244.53 159.029 245.251 163.965 245.495C168.9 245.74 173.956 244.172 174.921 243.223C175.887 242.275 177.812 238.526 172.876 233.113C168.622 228.438 155.785 223.235 152.321 221.889C152.665 219.868 152.855 217.822 152.889 215.772C152.889 215.772 160.352 207.252 160.841 205.298C161.329 203.344 162.545 195.426 162.545 195.426C162.545 195.426 166.64 202.895 167.844 203.974C169.048 205.054 176.029 204.219 176.75 204.219C177.472 204.219 177.835 201.089 177.835 201.089C176.92 199.9 175.812 198.873 174.558 198.05Z" fill="white" stroke="#263238" stroke-linecap="round" stroke-linejoin="round"/>
<path d="M172.876 233.085C168.622 228.41 155.785 223.207 152.321 221.861C152.428 221.23 152.519 220.617 152.588 220.038C149.349 220.753 145.986 220.685 142.778 219.839C133.628 217.43 131.702 212.495 131.702 212.495H131.634C128.902 214.71 124.454 218.816 122.915 223.207C121.461 227.336 123.154 234.158 130.981 236.209C133.592 236.907 136.333 236.968 138.973 236.385C141.006 238.1 143.258 239.538 145.669 240.662C153.735 244.513 159.029 245.234 163.965 245.478C168.9 245.723 173.956 244.155 174.921 243.206C175.887 242.258 177.812 238.498 172.876 233.085Z" fill="#696969" stroke="#263238" stroke-linecap="round" stroke-linejoin="round"/>
<path d="M127.726 224.053C127.726 224.053 132.06 218.754 137.723 220.924C157.506 228.506 162.522 236.936 163.851 240.304C165.18 243.672 164.692 245.484 163.612 246.205C162.533 246.927 151.213 244.28 145.794 242.354C140.375 240.429 133.151 241.389 127.01 236.214C120.87 231.04 121.836 225.99 123.761 221.645" fill="#696969"/>
<path d="M127.726 224.053C127.726 224.053 132.06 218.754 137.723 220.924C157.506 228.506 162.522 236.936 163.851 240.304C165.18 243.672 164.692 245.484 163.612 246.205C162.533 246.927 151.213 244.28 145.794 242.354C140.375 240.429 133.151 241.389 127.01 236.214C120.87 231.04 121.836 225.99 123.761 221.645" stroke="#263238" stroke-linecap="round" stroke-linejoin="round"/>
<path d="M177.812 201.072C176.902 199.895 175.802 198.878 174.558 198.062C172.854 197.096 170.349 195.79 170.349 195.79C170.349 195.79 169.378 193.336 168.077 190.445C166.617 191.66 164.226 193.995 163.306 196.829C164.555 199.044 166.952 203.191 167.85 203.974C169.048 205.059 176.035 204.219 176.756 204.219C177.477 204.219 177.812 201.072 177.812 201.072Z" fill="white" stroke="#263238" stroke-linecap="round" stroke-linejoin="round"/>
<path d="M162.522 195.398L162.403 188.9" stroke="#263238" stroke-linecap="round" stroke-linejoin="round"/>
<path d="M181.72 211.745C180.368 212.229 179.069 212.854 177.846 213.608C176.71 214.465 176.557 215.187 176.557 216.476C176.557 217.766 173.973 219.487 175.268 219.487C176.563 219.487 177.54 219.055 178.71 216.908C179.88 214.761 181.289 214.125 181.289 214.125C181.378 215.163 181.568 216.19 181.857 217.192C182.258 218.047 182.311 219.025 182.004 219.918C181.715 221.054 183.14 220.782 183.578 217.646C183.809 215.645 183.513 213.619 182.72 211.767L181.72 211.745Z" fill="white" stroke="#263238" stroke-linecap="round" stroke-linejoin="round"/>
<path d="M181.436 208.291C181.436 208.291 181.862 210.711 181.72 211.262C181.578 211.813 179.568 213.352 178.852 214.67C178.566 215.206 178.393 215.795 178.344 216.401C178.295 217.007 178.371 217.616 178.568 218.191C178.852 219.072 179.704 221.929 180.141 221.162C180.579 220.395 180.709 219.509 180.709 217.862C180.709 216.215 180.425 214.778 181.277 214.119L182.141 213.46C182.557 214.421 182.893 215.414 183.146 216.431C183.714 218.521 182.714 220.282 182.998 220.611C183.282 220.941 184.435 220.719 184.577 219.839C184.719 218.958 185.293 217.97 185.293 216.209C185.284 215.135 184.962 214.087 184.367 213.193C184.099 212.452 183.883 211.692 183.72 210.921C183.464 209.592 182.584 207.081 181.436 208.291Z" fill="white" stroke="#263238" stroke-linecap="round" stroke-linejoin="round"/>
<path d="M185.878 204.429C186.501 205.482 187.07 206.566 187.582 207.678C187.94 208.643 188.184 209.728 187.582 209.95C186.98 210.171 186.497 208.507 186.134 207.786C185.77 207.064 184.555 203.946 185.878 204.429Z" fill="url(#paint6_linear_78_292)" stroke="#263238" stroke-linecap="round" stroke-linejoin="round"/>
<path d="M185.878 204.429C185.157 202.867 181.061 200.453 179.976 199.857C179.221 199.431 176.807 199.368 175.432 199.362C175.103 199.311 174.768 199.311 174.438 199.362C174.438 199.362 172.513 200.805 172.632 202.373C172.677 202.82 172.868 203.239 173.177 203.566C173.485 203.893 173.893 204.108 174.336 204.179H174.904C174.812 204.763 174.914 205.362 175.194 205.883C176.154 207.366 176.739 209.06 176.898 210.819C176.898 212.387 178.704 211.785 178.943 210.58C179.181 209.376 178.585 207.212 178.585 206.729C178.585 206.247 179.545 204.923 179.545 204.923C179.545 204.923 182.197 207.689 182.555 208.291C182.913 208.893 183.038 212.023 184.004 212.267C184.969 212.512 184.964 210.563 184.964 210.563C185.163 210.58 185.364 210.555 185.553 210.49C185.742 210.425 185.916 210.321 186.064 210.186C186.211 210.05 186.329 209.885 186.409 209.702C186.489 209.519 186.531 209.321 186.531 209.121C186.73 207.526 186.505 205.908 185.878 204.429Z" fill="url(#paint7_linear_78_292)" stroke="#263238" stroke-linecap="round" stroke-linejoin="round"/>
<path d="M183.231 204.792C183.231 204.792 185.032 205.872 185.032 206.956C185.032 208.041 184.912 210.569 184.912 210.569" stroke="#263238" stroke-linecap="round" stroke-linejoin="round"/>
<path d="M164.209 243.104C164.209 244.808 165.169 245.029 161.437 247.319C157.705 249.608 152.048 248.04 146.51 246.836C140.972 245.632 134.349 244.666 131.821 244.666C129.294 244.666 123.256 245.603 120.984 245.603C118.712 245.603 114.969 245.365 115.452 244.16C115.934 242.956 122.069 241.025 122.552 240.548C123.034 240.071 122.915 239.1 124.119 237.293C124.392 236.798 124.833 236.417 125.362 236.219C125.891 236.021 126.474 236.019 127.005 236.214C129.131 238.162 131.774 239.458 134.616 239.946C139.16 240.667 147.493 241.025 150.747 241.025C154.002 241.025 158.091 242.473 158.449 242.473" fill="#696969"/>
<path d="M164.209 243.104C164.209 244.808 165.169 245.029 161.437 247.319C157.705 249.608 152.048 248.04 146.51 246.836C140.972 245.632 134.349 244.666 131.821 244.666C129.294 244.666 123.256 245.603 120.984 245.603C118.712 245.603 114.969 245.365 115.452 244.16C115.934 242.956 122.069 241.025 122.552 240.548C123.034 240.071 122.915 239.1 124.119 237.293C124.392 236.798 124.833 236.417 125.362 236.219C125.891 236.021 126.474 236.019 127.005 236.214C129.131 238.162 131.774 239.458 134.616 239.946C139.16 240.667 147.493 241.025 150.747 241.025C154.002 241.025 158.091 242.473 158.449 242.473" stroke="#263238" stroke-linecap="round" stroke-linejoin="round"/>
<path d="M134.616 239.946C131.782 239.454 129.148 238.158 127.028 236.214C126.497 236.019 125.914 236.021 125.385 236.219C124.855 236.417 124.414 236.798 124.142 237.293C122.938 239.1 123.057 240.065 122.574 240.548C122.092 241.031 115.952 242.956 115.474 244.16C114.997 245.365 118.712 245.603 120.984 245.603C123.256 245.603 129.294 244.638 131.821 244.638C133.135 244.674 134.445 244.782 135.746 244.961C135.746 244.853 135.701 244.745 135.672 244.638C135.32 243.138 136.331 241.178 136.894 240.247C136.059 240.156 135.281 240.054 134.616 239.946Z" fill="white" stroke="#263238" stroke-linecap="round" stroke-linejoin="round"/>
<path d="M127.005 236.214C126.474 236.019 125.891 236.021 125.362 236.219C124.833 236.417 124.392 236.798 124.119 237.293C122.915 239.1 123.034 240.065 122.552 240.548C122.069 241.031 115.929 242.956 115.452 244.16C115.276 244.586 115.639 244.887 116.275 245.103C117.69 243.587 122.182 242.326 123.438 241.411C124.693 240.497 123.756 240.184 125.079 238.378C125.409 237.956 125.819 237.604 126.286 237.343C126.754 237.082 127.268 236.916 127.8 236.856C127.277 236.481 127.005 236.214 127.005 236.214Z" stroke="#263238" stroke-linecap="round" stroke-linejoin="round"/>
<path d="M138.081 185.168C138.081 185.168 133.145 187.093 132.185 191.064C131.225 195.034 133.026 219.719 133.026 220.321C133.026 220.924 136.275 221.526 141.335 222.025C146.396 222.525 155.78 222.628 155.78 222.628C155.78 222.628 159.875 224.428 160.716 224.428C161.556 224.428 163.362 223.349 163.362 223.349C163.362 223.349 163.124 224.428 164.084 224.19C165.044 223.951 168.298 221.298 168.298 220.821C168.298 220.344 166.134 218.049 164.811 217.811C163.487 217.572 157.586 219.856 156.984 219.856C156.382 219.856 145.908 217.584 143.982 216.726C142.451 216.105 140.882 215.581 139.285 215.158L140.131 194.335" fill="white"/>
<path d="M138.081 185.168C138.081 185.168 133.145 187.093 132.185 191.064C131.225 195.034 133.026 219.719 133.026 220.321C133.026 220.924 136.275 221.526 141.335 222.025C146.396 222.525 155.78 222.628 155.78 222.628C155.78 222.628 159.875 224.428 160.716 224.428C161.556 224.428 163.362 223.349 163.362 223.349C163.362 223.349 163.124 224.428 164.084 224.19C165.044 223.951 168.298 221.298 168.298 220.821C168.298 220.344 166.134 218.049 164.811 217.811C163.487 217.572 157.586 219.856 156.984 219.856C156.382 219.856 145.908 217.584 143.982 216.726C142.451 216.105 140.882 215.581 139.285 215.158L140.131 194.335" stroke="#263238" stroke-linecap="round" stroke-linejoin="round"/>
<path d="M164.811 217.794C163.482 217.55 157.586 219.839 156.984 219.839C156.382 219.839 145.908 217.567 143.982 216.709C142.451 216.088 140.882 215.564 139.285 215.141L139.745 203.73L132.083 203.435C132.406 211.324 133.026 219.969 133.026 220.321C133.026 220.924 136.275 221.526 141.335 222.025C146.396 222.525 155.78 222.628 155.78 222.628C155.78 222.628 159.875 224.428 160.716 224.428C161.556 224.428 163.362 223.349 163.362 223.349C163.362 223.349 163.124 224.428 164.084 224.19C165.044 223.951 168.298 221.298 168.298 220.821C168.298 220.344 166.134 218.032 164.811 217.794Z" fill="white" stroke="#263238" stroke-linecap="round" stroke-linejoin="round"/>
<path d="M168.298 220.804C168.298 220.322 166.134 218.033 164.811 217.794C163.487 217.555 157.586 219.839 156.984 219.839C156.796 219.839 155.649 219.617 154.098 219.271C153.53 219.839 152.991 220.816 153.173 222.542L155.78 222.594C155.78 222.594 159.875 224.394 160.716 224.394C161.556 224.394 163.363 223.315 163.363 223.315C163.363 223.315 163.124 224.394 164.084 224.156C165.044 223.917 168.298 221.281 168.298 220.804Z" fill="url(#paint8_linear_78_292)" stroke="#263238" stroke-linecap="round" stroke-linejoin="round"/>
<path d="M142.057 161.568C142.057 161.568 137.479 157.961 135.672 159.165C133.866 160.369 126.283 169.997 125.562 172.644C124.841 175.291 128.811 175.898 127.368 178.062C125.926 180.226 123.154 181.073 124.239 183.742C125.324 186.412 129.657 186.633 130.617 187.236C131.577 187.838 133.145 190.127 136.638 189.161C140.131 188.195 139.404 183.742 142.057 183.14C144.709 182.538 144.465 178.931 143.261 176.04C142.057 173.149 141.335 169.179 142.778 167.373C144.221 165.566 142.057 161.568 142.057 161.568Z" fill="#263238" stroke="#263238" stroke-linecap="round" stroke-linejoin="round"/>
<path d="M144.726 159.091C144.726 159.091 141.034 159.301 139.291 163.913C137.547 168.526 139.291 175.398 139.802 176.529C140.313 177.659 142.983 178.801 144.624 177.858C146.266 176.915 148.521 173.348 150.156 172.422C151.792 171.496 155.081 167.605 155.081 167.605L157.438 170.576C157.438 170.576 158.978 170.372 159.591 167.401C160.204 164.43 157.955 161.25 154.263 159.404C150.571 157.558 146.572 157.66 144.726 159.091Z" fill="#263238" stroke="#263238" stroke-linecap="round" stroke-linejoin="round"/>
<path d="M144.221 179.869C144.221 179.869 144.34 183.481 145.186 185.049C146.033 186.616 148.197 193.569 150.963 193.836C153.729 194.103 153.61 184.083 153.61 184.083C153.61 184.083 150.361 184.202 148.435 182.158C146.51 180.113 144.465 178.92 144.221 179.869Z" stroke="#263238" stroke-linecap="round" stroke-linejoin="round"/>
<path d="M155.49 164.629C155.49 164.629 151.185 169.656 147.799 171.809C144.414 173.961 142.88 174.268 142.88 174.268C142.88 174.268 144.21 174.064 143.289 174.989C142.369 175.915 142.153 176.125 141.648 175.296C141.142 174.467 139.086 173.655 138.672 175.705C138.495 176.561 138.627 177.452 139.042 178.221C139.458 178.989 140.131 179.587 140.944 179.908C141.818 180.277 142.79 180.349 143.71 180.113C143.71 180.113 144.016 183.6 148.117 185.651C152.218 187.701 156.018 184.833 157.143 182.68C158.268 180.527 157.864 170.786 157.654 169.145C157.444 167.503 155.49 164.629 155.49 164.629Z" fill="white" stroke="#263238" stroke-linecap="round" stroke-linejoin="round"/>
<path d="M154.456 174.331C154.456 174.331 154.212 176.256 154.576 176.375C154.939 176.495 156.28 176.977 155.78 177.704C155.28 178.432 154.576 178.909 153.735 178.545" stroke="#263238" stroke-linecap="round" stroke-linejoin="round"/>
<path d="M149.038 180.232C149.038 180.232 150.003 181.794 153.735 180.953" stroke="#263238" stroke-linecap="round" stroke-linejoin="round"/>
<path d="M151.207 175.114C151.207 175.682 150.935 176.137 150.605 176.137C150.276 176.137 150.003 175.677 150.003 175.114C150.003 174.552 150.27 174.092 150.605 174.092C150.94 174.092 151.207 174.546 151.207 175.114Z" fill="#263238"/>
<path d="M156.382 174.512C156.382 175.08 156.115 175.535 155.78 175.535C155.445 175.535 155.178 175.075 155.178 174.512C155.178 173.95 155.445 173.49 155.78 173.49C156.115 173.49 156.382 173.944 156.382 174.512Z" fill="#263238"/>
<path d="M148.816 173.24C149.144 172.836 149.572 172.525 150.057 172.336C150.542 172.146 151.067 172.086 151.582 172.161" stroke="#263238" stroke-linecap="round" stroke-linejoin="round"/>
<path d="M154.576 172.041C154.576 172.041 155.297 170.479 156.848 171.564" stroke="#263238" stroke-linecap="round" stroke-linejoin="round"/>
<path d="M194.631 214.323C194.631 214.323 183.01 218.055 179.863 219.202C176.716 220.35 166.379 220.492 165.663 221.639C164.947 222.787 159.801 229.273 158.796 232.999C157.79 236.725 159.125 246.819 160.085 247.449C163.942 249.999 174.086 249.216 178.38 249.051C186.236 248.761 193.841 251.596 198.26 243.598C199.692 241.014 197.624 231.965 197.34 228.955C197.056 225.945 196.045 220.924 195.903 220.202C195.761 219.481 196.784 214.897 194.631 214.323Z" fill="white" stroke="#263238" stroke-linecap="round" stroke-linejoin="round"/>
<path d="M180.096 228.904C186.242 226.734 191.484 220.384 193.114 219.316C194.744 218.248 195.636 215.908 195.636 215.908C193.062 217.643 190.267 219.026 187.326 220.021" stroke="#263238" stroke-linecap="round" stroke-linejoin="round"/>
<path d="M195.466 216.942C194.304 220.53 192.25 223.765 189.496 226.342" stroke="#263238" stroke-linecap="round" stroke-linejoin="round"/>
<path d="M167.98 222.003C167.98 222.003 169.787 222.906 175.932 222.906" stroke="#263238" stroke-linecap="round" stroke-linejoin="round"/>
<path d="M167.253 222.185C167.253 222.185 168.702 228.512 176.841 231.045" stroke="#263238" stroke-linecap="round" stroke-linejoin="round"/>
<path d="M165.811 224.36C167.045 226.537 168.704 228.443 170.69 229.966" stroke="#263238" stroke-linecap="round" stroke-linejoin="round"/>
<path d="M51.6539 194.125C51.6539 194.125 54.8631 203.276 54.8631 206.968C54.8631 210.66 57.4304 230.886 57.7485 233.136C57.9617 234.533 58.397 235.886 59.0379 237.146C61.2304 239.172 63.7207 240.85 66.4219 242.121C71.0738 244.393 70.9148 243.729 70.1139 244.689C69.313 245.649 61.9233 245.825 58.5551 245.495C55.1868 245.166 51.8129 246.296 51.6539 244.853C51.4948 243.411 51.4892 237.628 51.4892 235.061C51.4892 232.494 44.747 219.816 43.9461 215.795C43.1452 211.773 43.4633 205.525 43.4633 205.525L39.4532 195.869L51.6539 194.125Z" fill="white" stroke="#263238" stroke-linecap="round" stroke-linejoin="round"/>
<path d="M57.936 238.753V241.025L51.5289 239.793C51.5289 241.962 51.5857 244.081 51.6766 244.905C51.8357 246.347 55.2039 245.223 58.5778 245.546C61.9517 245.87 69.3301 245.705 70.1366 244.74C70.9432 243.774 71.0965 244.422 66.4446 242.172C63.7447 240.899 61.2548 239.221 59.0606 237.197C59.0606 237.197 57.936 237.305 57.936 238.753Z" fill="#263238" stroke="#263238" stroke-linecap="round" stroke-linejoin="round"/>
<path d="M38.4877 195.091C38.4877 195.091 38.9534 205.15 37.3517 209.217C29.3258 229.762 29.0077 237.469 29.0077 237.469C29.0077 237.469 37.0449 243.564 38.8114 244.24C40.5779 244.916 41.5378 245.2 40.4132 246.001C39.2885 246.802 29.1781 246.643 27.4117 246.643C25.6452 246.643 21.3113 245.359 20.8342 244.558C20.3571 243.757 21.9702 237.333 21.9702 237.333C21.9702 237.333 22.7768 221.281 22.7768 217.589C22.7768 213.897 26.7869 206.678 26.7869 205.389C26.7869 204.099 25.986 194.478 25.986 194.478C25.986 194.478 35.6022 196.857 38.4877 195.091Z" fill="white" stroke="#263238" stroke-linecap="round" stroke-linejoin="round"/>
<path d="M40.4132 245.972C41.5492 245.172 40.5779 244.836 38.8114 244.212C37.0449 243.587 29.0191 237.469 29.0191 237.469C29.0191 237.469 28.2182 237.788 28.2182 239.071C28.2544 239.747 28.0861 240.418 27.7354 240.997C27.7354 240.997 25.1681 240.52 22.1179 239.861C21.8623 239.81 21.6294 239.759 21.4022 239.702C20.9876 241.616 20.5502 244.047 20.8342 244.518C21.3113 245.319 25.6452 246.603 27.4117 246.603C29.1781 246.603 39.2942 246.779 40.4132 245.972Z" fill="#263238" stroke="#263238" stroke-linecap="round" stroke-linejoin="round"/>
<path d="M51.8129 146.771L57.7485 155.439L82.3089 151.912V156.564C82.3089 156.564 57.936 163.306 56.9477 162.505C55.9593 161.704 47.7972 157.847 47.7972 157.847L51.8129 146.771Z" fill="#B5B5B5" stroke="#263238" stroke-linecap="round" stroke-linejoin="round"/>
<path d="M29.82 135.377C29.82 135.377 28.0535 145.652 28.0535 149.821V164.589C28.0535 164.589 22.9415 172.78 22.1179 179.999C21.2943 187.218 21.1523 195.25 21.1523 195.25C21.1523 195.25 28.86 198.624 35.1194 198.141C38.8439 197.857 42.5446 197.318 46.1954 196.528L55.0221 194.443L48.439 164.589C48.439 164.589 51.6539 156.069 52.131 155.604C52.6081 155.138 54.403 149.356 53.7384 145.005C53.0739 140.654 50.6883 131.685 45.7126 129.277C40.7369 126.868 32.0692 129.76 29.82 135.377Z" fill="#5E5E5E" stroke="#263238" stroke-linecap="round" stroke-linejoin="round"/>
<path d="M37.1358 164.72C36.7878 167.338 35.6867 169.799 33.9664 171.803C31.1264 175.08 28.7862 175.711 28.7862 175.711C28.7862 175.711 27.4116 189.053 27.9399 194.256" stroke="#263238" stroke-linecap="round" stroke-linejoin="round"/>
<path d="M38.624 165.163C38.3389 167.624 37.5459 169.999 36.2952 172.138C34.2845 175.415 30.0472 176.58 30.0472 176.58" stroke="#263238" stroke-linecap="round" stroke-linejoin="round"/>
<path d="M48.6038 134.252C47.7631 131.384 45.3264 129.493 44.1336 128.714C40.4245 127.8 35.5397 129.095 32.4044 131.85C32.3476 132.191 32.3078 132.497 32.2283 132.81C32.0693 133.452 29.6609 147.413 29.6609 147.413C29.6609 147.413 30.2289 147.527 31.115 147.686C30.2289 152.201 31.2229 159.733 31.2229 159.733C31.2229 159.733 35.9657 161.261 39.635 161.108C43.3043 160.954 47.587 158.836 47.587 158.836C47.587 157.546 48.6605 151.077 49.1661 148.1H49.4046C49.4046 148.1 49.7227 138.104 48.6038 134.252Z" fill="white" stroke="#263238" stroke-linecap="round" stroke-linejoin="round"/>
<path d="M41.9298 146.584C41.9298 146.584 36.2498 152.264 33.3643 153.156L41.9298 146.584Z" fill="white"/>
<path d="M41.9298 146.584C41.9298 146.584 36.2498 152.264 33.3643 153.156" stroke="#263238" stroke-linecap="round" stroke-linejoin="round"/>
<path d="M41.9297 149.486C41.9297 149.486 38.7148 152.394 36.1191 154.536L41.9297 149.486Z" fill="white"/>
<path d="M41.9297 149.486C41.9297 149.486 38.7148 152.394 36.1191 154.536" stroke="#263238" stroke-linecap="round" stroke-linejoin="round"/>
<path d="M54.3008 191.172C51.4602 192.688 48.2905 193.482 45.0708 193.484C45.0708 193.484 40.2541 195.574 32.7111 195.25C28.6869 195.032 24.7687 193.88 21.2659 191.887C21.1807 193.932 21.1523 195.25 21.1523 195.25C21.1523 195.25 28.86 198.624 35.1194 198.141C38.8439 197.857 42.5446 197.318 46.1954 196.528L55.0221 194.443L54.3008 191.172Z" fill="white" stroke="#263238" stroke-linecap="round" stroke-linejoin="round"/>
<path d="M45.2298 196.857L45.5536 179.357" stroke="#263238" stroke-linecap="round" stroke-linejoin="round"/>
<path d="M61.1225 113.066V117.235C61.1225 117.235 63.207 118.843 61.9234 119.967C61.4074 120.487 60.8109 120.921 60.1569 121.251C60.1569 121.251 59.356 124.943 57.5895 126.709C55.8231 128.476 54.8631 128.152 52.2958 126.386C49.7284 124.619 48.121 123.5 48.121 123.5C48.121 123.5 49.7227 115.633 50.8474 113.066C51.972 110.499 55.505 110.175 57.2715 110.493C59.0379 110.811 61.1225 113.066 61.1225 113.066Z" fill="white" stroke="#263238" stroke-linecap="round" stroke-linejoin="round"/>
<path d="M59.3673 116.923C59.3673 117.406 59.1515 117.797 58.8902 117.797C58.6289 117.797 58.4131 117.406 58.4131 116.923C58.4131 116.44 58.6232 116.042 58.8902 116.042C59.1572 116.042 59.3673 116.44 59.3673 116.923Z" fill="#263238"/>
<path d="M57.8508 114.85C57.8508 114.85 58.7312 113.418 59.924 114.611" stroke="#263238" stroke-linecap="round" stroke-linejoin="round"/>
<path d="M56.658 121.552C57.1856 122.089 57.8994 122.402 58.6516 122.427" stroke="#263238" stroke-linecap="round" stroke-linejoin="round"/>
<path d="M53.96 111.714C53.96 111.714 50.586 119.803 50.7564 123.682C50.9268 127.562 55.3004 138.689 53.4544 142.398C51.6084 146.107 47.712 148.816 44.872 144.42C42.032 140.023 40.9925 138.689 39.1408 141.381C37.2892 144.073 35.0967 148.969 30.8821 148.969C26.6676 148.969 21.584 143.409 24.1116 137.507C26.6392 131.606 32.376 129.078 35.9146 123.347C38.5127 119.274 40.3417 114.76 41.3106 110.027L54.2894 110.533L53.96 111.714Z" fill="#263238" stroke="#263238" stroke-linecap="round" stroke-linejoin="round"/>
<path d="M40.9698 112.555H61.202C61.202 112.555 61.202 103.955 59.498 102.609C57.794 101.263 44.4971 101.598 42.9806 102.609C41.464 103.62 40.328 111.544 40.9698 112.555Z" fill="url(#paint9_linear_78_292)" stroke="#263238" stroke-linecap="round" stroke-linejoin="round"/>
<path d="M54.7382 112.464C54.7382 112.464 59.4582 114.316 63.6728 114.316C67.8874 114.316 70.0798 112.464 70.0798 112.464H54.7382Z" fill="url(#paint10_linear_78_292)" stroke="#263238" stroke-linecap="round" stroke-linejoin="round"/>
<path d="M87.9264 151.088C87.9264 151.088 89.6929 150.77 89.6929 152.054C89.6929 153.337 87.6083 153.19 85.8418 152.536C84.0753 151.883 86.4837 151.429 87.9264 151.088Z" fill="#B5B5B5" stroke="#263238" stroke-linecap="round" stroke-linejoin="round"/>
<path d="M88.2502 152.712C88.2502 152.712 90.0166 152.389 90.0166 153.678C90.0166 154.967 87.9264 154.814 86.1656 154.155C84.4048 153.496 86.8074 153.036 88.2502 152.712Z" fill="#B5B5B5" stroke="#263238" stroke-linecap="round" stroke-linejoin="round"/>
<path d="M88.5739 154.32C88.5739 154.32 90.3347 153.996 90.3347 155.28C90.3347 156.564 88.2501 156.416 86.4836 155.763C84.7172 155.109 87.1255 154.638 88.5739 154.32Z" fill="#B5B5B5" stroke="#263238" stroke-linecap="round" stroke-linejoin="round"/>
<path d="M88.2558 155.961C88.2558 155.961 90.0223 155.638 90.0223 156.921C90.0223 158.205 87.9321 158.057 86.1713 157.404C84.4105 156.751 86.8131 156.28 88.2558 155.961Z" fill="#B5B5B5" stroke="#263238" stroke-linecap="round" stroke-linejoin="round"/>
<path d="M80.5424 152.713C80.5424 152.713 70.591 174.541 70.591 176.001C70.591 177.46 70.591 181.294 71.5566 183.544C72.5222 185.793 78.2988 189.962 80.8661 190.445C83.4335 190.928 94.3504 188.36 95.6341 188.036C96.9178 187.713 100.292 178.727 100.127 176.96C99.9623 175.194 95.7932 168.44 95.1513 167.333C94.5095 166.225 89.2157 158.983 88.5739 157.677C87.932 156.37 86.0008 153.025 86.0008 153.025L80.5424 152.713Z" fill="white" stroke="#263238" stroke-linecap="round" stroke-linejoin="round"/>
<path d="M82.3089 156.563L81.0252 166.038" stroke="#263238" stroke-linecap="round" stroke-linejoin="round"/>
<path d="M84.5581 155.439V167.963" stroke="#263238" stroke-linecap="round" stroke-linejoin="round"/>
<path d="M86.1656 154.155L90.6585 168.281" stroke="#263238" stroke-linecap="round" stroke-linejoin="round"/>
<path d="M54.528 153.996C54.528 153.996 46.6669 134.116 44.5766 133.128C42.4864 132.14 36.2441 132.344 36.8859 139.728C37.5278 147.112 49.8874 162.522 51.4892 162.681C53.091 162.84 78.2988 154.496 78.2988 154.496C78.2988 154.496 86.8188 155.632 87.4493 154.655C88.0798 153.678 88.2501 150.162 88.2501 150.162C88.2501 150.162 89.3861 147.754 88.2501 146.953C87.1141 146.152 82.0022 146.629 81.1899 146.629C80.3777 146.629 76.5323 150.48 76.5323 150.48L54.528 153.996Z" fill="white" stroke="#263238" stroke-linecap="round" stroke-linejoin="round"/>
<path d="M87.472 154.638C88.1138 153.678 88.2729 150.145 88.2729 150.145C88.2729 150.145 89.4089 147.737 88.2729 146.936C87.1369 146.135 82.0249 146.612 81.2126 146.612C80.4004 146.612 76.555 150.463 76.555 150.463L72.3802 151.133L73.0902 156.194C76.1745 155.189 78.3215 154.49 78.3215 154.49C78.3215 154.49 86.8074 155.632 87.472 154.638Z" fill="url(#paint11_linear_78_292)" stroke="#263238" stroke-linecap="round" stroke-linejoin="round"/>
<path d="M90.3347 144.687L99.4852 149.503L97.7187 152.712L90.3347 144.687Z" fill="white" stroke="#263238" stroke-linecap="round" stroke-linejoin="round"/>
<path d="M82.7917 146.294L84.0754 142.92C84.0754 142.92 85.041 142.437 88.5739 143.403C92.1069 144.369 99.0024 154.155 99.0024 154.155C99.0024 154.155 94.0267 157.688 93.2259 157.847C92.425 158.006 89.5339 149.327 89.2158 148.538C88.9612 147.966 88.6369 147.428 88.2502 146.936L82.7917 146.294Z" fill="white" stroke="#263238" stroke-linecap="round" stroke-linejoin="round"/>
<path d="M88.2502 146.936L85.4102 145.09" stroke="#263238" stroke-linecap="round" stroke-linejoin="round"/>
<path d="M107.187 182.396H66.7002V245.842H107.187V182.396Z" fill="url(#paint12_linear_78_292)" stroke="#263238" stroke-linecap="round" stroke-linejoin="round"/>
<path d="M107.091 203.912H66.7968C66.5106 203.912 66.2361 203.798 66.0337 203.596C65.8313 203.394 65.7176 203.119 65.7176 202.833C65.7176 202.547 65.8313 202.272 66.0337 202.07C66.2361 201.867 66.5106 201.754 66.7968 201.754H107.091C107.377 201.754 107.651 201.867 107.854 202.07C108.056 202.272 108.17 202.547 108.17 202.833C108.17 203.119 108.056 203.394 107.854 203.596C107.651 203.798 107.377 203.912 107.091 203.912Z" fill="url(#paint13_linear_78_292)" stroke="#263238" stroke-linecap="round" stroke-linejoin="round"/>
<path d="M107.091 183.35H66.7968C66.5106 183.35 66.2361 183.237 66.0337 183.034C65.8313 182.832 65.7176 182.557 65.7176 182.271C65.7176 181.985 65.8313 181.71 66.0337 181.508C66.2361 181.306 66.5106 181.192 66.7968 181.192H107.091C107.377 181.192 107.651 181.306 107.854 181.508C108.056 181.71 108.17 181.985 108.17 182.271C108.17 182.557 108.056 182.832 107.854 183.034C107.651 183.237 107.377 183.35 107.091 183.35Z" fill="url(#paint14_linear_78_292)" stroke="#263238" stroke-linecap="round" stroke-linejoin="round"/>
<path d="M107.091 225.405H66.7968C66.5106 225.405 66.2361 225.291 66.0337 225.089C65.8313 224.887 65.7176 224.612 65.7176 224.326C65.7176 224.04 65.8313 223.765 66.0337 223.563C66.2361 223.36 66.5106 223.247 66.7968 223.247H107.091C107.377 223.247 107.651 223.36 107.854 223.563C108.056 223.765 108.17 224.04 108.17 224.326C108.17 224.612 108.056 224.887 107.854 225.089C107.651 225.291 107.377 225.405 107.091 225.405Z" fill="url(#paint15_linear_78_292)" stroke="#263238" stroke-linecap="round" stroke-linejoin="round"/>
<defs>
<linearGradient id="paint0_linear_78_292" x1="141.601" y1="29.4662" x2="141.601" y2="269.772" gradientUnits="userSpaceOnUse">
<stop stop-color="#174884"/>
<stop offset="1" stop-color="#141645"/>
</linearGradient>
<linearGradient id="paint1_linear_78_292" x1="220.209" y1="37.4883" x2="220.209" y2="141.546" gradientUnits="userSpaceOnUse">
<stop stop-color="#174884"/>
<stop offset="1" stop-color="#141645"/>
</linearGradient>
<linearGradient id="paint2_linear_78_292" x1="129.505" y1="73.2649" x2="129.505" y2="159.455" gradientUnits="userSpaceOnUse">
<stop stop-color="#174884"/>
<stop offset="1" stop-color="#141645"/>
</linearGradient>
<linearGradient id="paint3_linear_78_292" x1="210.604" y1="188.123" x2="210.604" y2="245.615" gradientUnits="userSpaceOnUse">
<stop stop-color="#174884"/>
<stop offset="1" stop-color="#141645"/>
</linearGradient>
<linearGradient id="paint4_linear_78_292" x1="85.5394" y1="201.071" x2="85.5394" y2="245.7" gradientUnits="userSpaceOnUse">
<stop stop-color="#174884"/>
<stop offset="1" stop-color="#141645"/>
</linearGradient>
<linearGradient id="paint5_linear_78_292" x1="200.126" y1="208.359" x2="200.126" y2="216.094" gradientUnits="userSpaceOnUse">
<stop stop-color="#174884"/>
<stop offset="1" stop-color="#141645"/>
</linearGradient>
<linearGradient id="paint6_linear_78_292" x1="186.611" y1="204.378" x2="186.611" y2="209.97" gradientUnits="userSpaceOnUse">
<stop stop-color="#174884"/>
<stop offset="1" stop-color="#141645"/>
</linearGradient>
<linearGradient id="paint7_linear_78_292" x1="179.614" y1="199.324" x2="179.614" y2="212.288" gradientUnits="userSpaceOnUse">
<stop stop-color="#174884"/>
<stop offset="1" stop-color="#141645"/>
</linearGradient>
<linearGradient id="paint8_linear_78_292" x1="160.718" y1="217.776" x2="160.718" y2="224.394" gradientUnits="userSpaceOnUse">
<stop stop-color="#174884"/>
<stop offset="1" stop-color="#141645"/>
</linearGradient>
<linearGradient id="paint9_linear_78_292" x1="50.9944" y1="101.721" x2="50.9944" y2="112.555" gradientUnits="userSpaceOnUse">
<stop stop-color="#174884"/>
<stop offset="1" stop-color="#141645"/>
</linearGradient>
<linearGradient id="paint10_linear_78_292" x1="62.409" y1="112.464" x2="62.409" y2="114.316" gradientUnits="userSpaceOnUse">
<stop stop-color="#174884"/>
<stop offset="1" stop-color="#141645"/>
</linearGradient>
<linearGradient id="paint11_linear_78_292" x1="80.579" y1="146.471" x2="80.579" y2="156.194" gradientUnits="userSpaceOnUse">
<stop stop-color="#174884"/>
<stop offset="1" stop-color="#141645"/>
</linearGradient>
<linearGradient id="paint12_linear_78_292" x1="86.9437" y1="182.396" x2="86.9437" y2="245.842" gradientUnits="userSpaceOnUse">
<stop stop-color="#174884"/>
<stop offset="1" stop-color="#141645"/>
</linearGradient>
<linearGradient id="paint13_linear_78_292" x1="86.9438" y1="201.754" x2="86.9438" y2="203.912" gradientUnits="userSpaceOnUse">
<stop stop-color="#174884"/>
<stop offset="1" stop-color="#141645"/>
</linearGradient>
<linearGradient id="paint14_linear_78_292" x1="86.9438" y1="181.192" x2="86.9438" y2="183.35" gradientUnits="userSpaceOnUse">
<stop stop-color="#174884"/>
<stop offset="1" stop-color="#141645"/>
</linearGradient>
<linearGradient id="paint15_linear_78_292" x1="86.9438" y1="223.247" x2="86.9438" y2="225.405" gradientUnits="userSpaceOnUse">
<stop stop-color="#174884"/>
<stop offset="1" stop-color="#141645"/>
</linearGradient>
</defs>
</svg>
