<svg width="341" height="341" viewBox="0 0 341 341" fill="none" xmlns="http://www.w3.org/2000/svg">
<path d="M279.027 70.246C262.059 31.5561 221.329 16.9886 189.194 42.966C176.645 53.1005 168.815 69.2298 153.45 75.702C139.033 81.7718 120.769 79.985 105.178 83.2722C71.9783 90.2286 27.28 116.622 30.69 157.29C32.1836 175.104 44.2004 194.888 50.1406 211.556C56.9606 230.734 61.0526 254.727 79.1052 266.191C110.054 285.874 147.387 269.786 175.267 253.915C190.271 245.384 198.53 240.139 214.687 243.065C229.643 245.793 243.113 255.341 257.728 244.013C268.701 235.508 269.608 218.274 278.822 208.153C289.202 196.75 299.725 195.925 305.12 178.786C311.66 157.992 302.024 145 295.511 126.422C288.997 107.845 287.02 88.4486 279.027 70.246Z" fill="url(#paint0_linear_121_1525)"/>
<g opacity="0.7">
<path d="M279.027 70.246C262.059 31.5561 221.329 16.9886 189.194 42.966C176.645 53.1005 168.815 69.2298 153.45 75.702C139.033 81.7718 120.769 79.985 105.178 83.2722C71.9783 90.2286 27.28 116.622 30.69 157.29C32.1836 175.104 44.2004 194.888 50.1406 211.556C56.9606 230.734 61.0526 254.727 79.1052 266.191C110.054 285.874 147.387 269.786 175.267 253.915C190.271 245.384 198.53 240.139 214.687 243.065C229.643 245.793 243.113 255.341 257.728 244.013C268.701 235.508 269.608 218.274 278.822 208.153C289.202 196.75 299.725 195.925 305.12 178.786C311.66 157.992 302.024 145 295.511 126.422C288.997 107.845 287.02 88.4486 279.027 70.246Z" fill="white"/>
</g>
<path d="M149.91 298.498C208.134 298.498 255.334 295.557 255.334 291.93C255.334 288.303 208.134 285.362 149.91 285.362C91.6865 285.362 44.4868 288.303 44.4868 291.93C44.4868 295.557 91.6865 298.498 149.91 298.498Z" fill="url(#paint1_linear_121_1525)"/>
<path opacity="0.8" d="M149.91 298.498C208.134 298.498 255.334 295.557 255.334 291.93C255.334 288.303 208.134 285.362 149.91 285.362C91.6865 285.362 44.4868 288.303 44.4868 291.93C44.4868 295.557 91.6865 298.498 149.91 298.498Z" fill="white"/>
<path d="M229.131 42.1885H123.128C115.81 42.1885 109.877 48.1213 109.877 55.4397V279.231C109.877 286.55 115.81 292.482 123.128 292.482H229.131C236.45 292.482 242.383 286.55 242.383 279.231V55.4397C242.383 48.1213 236.45 42.1885 229.131 42.1885Z" fill="#263238"/>
<path d="M236.49 69.6731H115.763V264.998H236.49V69.6731Z" fill="white" stroke="#263238" stroke-width="1.33739" stroke-miterlimit="10"/>
<path d="M194.634 148.766C204.853 138.546 204.853 121.978 194.634 111.758C184.414 101.539 167.845 101.539 157.626 111.758C147.407 121.978 147.407 138.546 157.626 148.766C167.845 158.985 184.414 158.985 194.634 148.766Z" fill="url(#paint2_linear_121_1525)"/>
<path d="M210.486 252.715H141.781C141.626 252.716 141.473 252.686 141.33 252.628C141.187 252.569 141.057 252.483 140.947 252.374C140.837 252.265 140.75 252.135 140.691 251.993C140.632 251.85 140.601 251.697 140.601 251.542C140.6 251.387 140.63 251.233 140.689 251.089C140.748 250.946 140.835 250.816 140.945 250.706C141.054 250.596 141.185 250.509 141.328 250.45C141.472 250.391 141.626 250.361 141.781 250.362H210.486C210.64 250.362 210.793 250.393 210.936 250.452C211.079 250.512 211.208 250.599 211.318 250.708C211.427 250.818 211.513 250.948 211.571 251.091C211.63 251.234 211.66 251.387 211.659 251.542C211.659 251.853 211.535 252.152 211.315 252.372C211.095 252.592 210.797 252.715 210.486 252.715Z" fill="url(#paint3_linear_121_1525)"/>
<path d="M212.722 171H139.537C138.027 171 136.802 172.224 136.802 173.735V182.362C136.802 183.873 138.027 185.097 139.537 185.097H212.722C214.233 185.097 215.457 183.873 215.457 182.362V173.735C215.457 172.224 214.233 171 212.722 171Z" fill="url(#paint4_linear_121_1525)"/>
<path d="M212.722 197.507H139.537C138.027 197.507 136.802 198.732 136.802 200.242V208.869C136.802 210.38 138.027 211.604 139.537 211.604H212.722C214.233 211.604 215.457 210.38 215.457 208.869V200.242C215.457 198.732 214.233 197.507 212.722 197.507Z" fill="url(#paint5_linear_121_1525)"/>
<path d="M189.159 143.315L181.46 138.882V135.22C182.575 133.871 183.382 132.296 183.826 130.603C184.091 130.697 184.37 130.745 184.651 130.746C185.606 130.746 186.213 127.786 186.316 125.672C187.427 123.319 185.913 121.941 185.913 121.941C185.913 121.941 186.541 121.314 186.957 118.797C187.373 116.281 185.49 117.331 184.024 115.026C182.558 112.721 181.507 110.211 176.693 110.211C175.366 110.167 174.057 110.524 172.935 111.234C171.814 111.945 170.932 112.976 170.404 114.194C169.206 114.198 168.012 114.338 166.844 114.61C165.371 115.026 164.955 119.848 166.21 121.737C166.772 122.769 167.072 123.924 167.083 125.099C166.749 124.69 166.401 124.581 166.21 125.508C165.794 127.602 167.472 130.535 167.472 130.535L168.338 130.289C168.774 132.098 169.616 133.784 170.8 135.22V138.882L163.1 143.315C162.201 143.835 161.454 144.581 160.935 145.48C160.415 146.379 160.141 147.399 160.14 148.437V150.974C164.72 154.512 170.343 156.431 176.13 156.431C181.917 156.431 187.54 154.512 192.119 150.974V148.437C192.12 147.399 191.847 146.378 191.327 145.479C190.807 144.58 190.06 143.833 189.159 143.315Z" fill="white"/>
<path d="M146.766 208.099C146.59 208.096 146.421 208.025 146.296 207.901C146.229 207.841 146.175 207.767 146.139 207.685C146.102 207.603 146.084 207.513 146.084 207.423C146.086 207.3 146.122 207.18 146.187 207.076L147.414 205.111L145.02 205.186C144.93 205.192 144.84 205.179 144.755 205.147C144.671 205.115 144.594 205.066 144.529 205.002C144.418 204.877 144.357 204.716 144.357 204.549C144.357 204.382 144.418 204.22 144.529 204.095C144.592 204.029 144.669 203.978 144.754 203.945C144.838 203.912 144.93 203.898 145.02 203.904L147.38 203.993L146.166 202.036C146.1 201.929 146.065 201.806 146.064 201.681C146.063 201.591 146.082 201.502 146.118 201.42C146.155 201.337 146.208 201.264 146.275 201.204C146.401 201.079 146.569 201.008 146.746 201.006C146.862 201.007 146.976 201.04 147.073 201.103C147.171 201.166 147.249 201.255 147.298 201.36L148.464 203.468L149.617 201.374C149.672 201.262 149.756 201.168 149.861 201.1C149.965 201.033 150.086 200.996 150.21 200.992C150.297 200.993 150.382 201.011 150.46 201.046C150.539 201.082 150.61 201.133 150.667 201.197C150.793 201.327 150.861 201.501 150.858 201.681C150.858 201.798 150.827 201.913 150.77 202.015L149.535 203.993L151.929 203.904C152.02 203.898 152.111 203.912 152.196 203.945C152.281 203.978 152.357 204.029 152.42 204.095C152.536 204.216 152.6 204.378 152.597 204.545C152.597 204.714 152.534 204.877 152.42 205.002C152.356 205.066 152.279 205.115 152.194 205.147C152.11 205.179 152.019 205.192 151.929 205.186L149.522 205.111L150.722 207.055C150.789 207.164 150.825 207.289 150.824 207.417C150.824 207.598 150.752 207.771 150.624 207.899C150.497 208.027 150.323 208.099 150.142 208.099C150.025 208.097 149.911 208.061 149.814 207.996C149.717 207.931 149.642 207.838 149.597 207.73L148.458 205.684L147.326 207.73C147.275 207.837 147.197 207.928 147.098 207.993C146.999 208.058 146.884 208.095 146.766 208.099Z" fill="white"/>
<path d="M157.828 208.099C157.652 208.096 157.483 208.025 157.358 207.901C157.291 207.841 157.237 207.767 157.201 207.685C157.164 207.603 157.146 207.513 157.146 207.423C157.148 207.3 157.184 207.18 157.249 207.076L158.476 205.111L156.089 205.186C155.998 205.191 155.907 205.176 155.822 205.145C155.736 205.113 155.658 205.065 155.591 205.002C155.501 204.909 155.441 204.79 155.418 204.662C155.396 204.534 155.413 204.402 155.467 204.284C155.52 204.165 155.608 204.066 155.719 203.998C155.83 203.93 155.959 203.898 156.089 203.904L158.442 203.993L157.228 202.036C157.162 201.929 157.127 201.806 157.126 201.681C157.125 201.591 157.144 201.502 157.18 201.42C157.217 201.337 157.27 201.264 157.337 201.204C157.463 201.079 157.631 201.008 157.808 201.006C157.924 201.007 158.038 201.04 158.135 201.103C158.233 201.166 158.311 201.255 158.36 201.36L159.527 203.468L160.679 201.374C160.734 201.262 160.818 201.168 160.923 201.1C161.027 201.033 161.148 200.996 161.272 200.992C161.359 200.992 161.444 201.01 161.523 201.045C161.602 201.08 161.672 201.132 161.729 201.197C161.793 201.261 161.843 201.336 161.877 201.419C161.91 201.502 161.928 201.591 161.927 201.681C161.925 201.799 161.892 201.914 161.832 202.015L160.597 203.993L162.998 203.918C163.088 203.912 163.178 203.926 163.262 203.959C163.345 203.992 163.421 204.043 163.482 204.109C163.598 204.23 163.662 204.391 163.659 204.559C163.659 204.728 163.596 204.891 163.482 205.016C163.419 205.079 163.343 205.129 163.26 205.16C163.176 205.192 163.087 205.206 162.998 205.2L160.584 205.125L161.784 207.069C161.851 207.177 161.887 207.303 161.886 207.43C161.886 207.611 161.814 207.785 161.686 207.913C161.559 208.04 161.385 208.112 161.204 208.112C161.087 208.111 160.973 208.075 160.876 208.01C160.78 207.944 160.704 207.852 160.659 207.744L159.52 205.698L158.388 207.744C158.335 207.848 158.256 207.937 158.157 207.999C158.059 208.062 157.945 208.096 157.828 208.099Z" fill="white"/>
<path d="M168.897 208.099C168.718 208.098 168.547 208.027 168.42 207.901C168.353 207.841 168.299 207.767 168.263 207.685C168.226 207.603 168.208 207.513 168.208 207.423C168.21 207.3 168.246 207.18 168.311 207.076L169.538 205.111L167.151 205.186C167.023 205.192 166.896 205.158 166.786 205.091C166.676 205.024 166.589 204.925 166.536 204.808C166.483 204.691 166.465 204.561 166.486 204.434C166.507 204.307 166.565 204.189 166.653 204.095C166.718 204.03 166.796 203.979 166.882 203.946C166.967 203.913 167.059 203.899 167.151 203.904L169.504 203.993L168.29 202.036C168.224 201.929 168.189 201.806 168.188 201.681C168.19 201.591 168.21 201.503 168.246 201.421C168.282 201.339 168.334 201.265 168.399 201.204C168.526 201.078 168.698 201.007 168.877 201.006C168.992 201.008 169.104 201.042 169.2 201.105C169.297 201.168 169.374 201.256 169.422 201.36L170.589 203.468L171.741 201.374C171.796 201.262 171.88 201.168 171.985 201.1C172.089 201.033 172.21 200.996 172.334 200.992C172.421 200.992 172.506 201.01 172.585 201.045C172.664 201.08 172.734 201.132 172.791 201.197C172.855 201.261 172.905 201.336 172.939 201.419C172.973 201.502 172.99 201.591 172.989 201.681C172.987 201.799 172.954 201.914 172.894 202.015L171.659 203.993L174.06 203.904C174.148 203.896 174.237 203.906 174.321 203.934C174.405 203.963 174.482 204.009 174.547 204.07C174.611 204.13 174.662 204.204 174.696 204.286C174.73 204.368 174.745 204.457 174.742 204.545C174.743 204.714 174.683 204.876 174.571 205.002C174.507 205.066 174.43 205.115 174.346 205.147C174.261 205.179 174.171 205.192 174.08 205.186L171.673 205.111L172.866 207.055C172.934 207.164 172.969 207.289 172.969 207.417C172.967 207.506 172.947 207.594 172.911 207.676C172.874 207.758 172.822 207.832 172.757 207.894C172.698 207.958 172.626 208.009 172.547 208.044C172.467 208.079 172.381 208.098 172.294 208.099C172.178 208.097 172.065 208.061 171.969 207.995C171.873 207.93 171.799 207.838 171.755 207.73L170.609 205.684L169.477 207.73C169.426 207.841 169.344 207.934 169.241 208C169.138 208.065 169.019 208.099 168.897 208.099Z" fill="white"/>
<path d="M146.42 182.106C146.241 182.106 146.069 182.035 145.942 181.909C145.875 181.849 145.822 181.775 145.785 181.693C145.749 181.61 145.73 181.521 145.731 181.431C145.733 181.308 145.768 181.188 145.833 181.083L147.061 179.119L144.674 179.194C144.545 179.199 144.418 179.166 144.308 179.099C144.199 179.031 144.112 178.933 144.058 178.816C144.005 178.699 143.988 178.569 144.009 178.442C144.03 178.315 144.088 178.197 144.176 178.103C144.24 178.037 144.318 177.986 144.404 177.953C144.49 177.92 144.582 177.906 144.674 177.912L147.027 178.001L145.813 176.043C145.747 175.937 145.711 175.814 145.71 175.689C145.713 175.599 145.732 175.511 145.769 175.429C145.805 175.347 145.857 175.273 145.922 175.211C146.049 175.085 146.22 175.014 146.399 175.014C146.514 175.016 146.626 175.05 146.723 175.113C146.819 175.175 146.896 175.264 146.945 175.368L148.111 177.476L149.264 175.382C149.318 175.27 149.402 175.176 149.507 175.108C149.612 175.041 149.733 175.004 149.857 175C149.943 175 150.029 175.018 150.107 175.053C150.186 175.088 150.257 175.14 150.314 175.205C150.377 175.268 150.427 175.344 150.461 175.427C150.495 175.51 150.512 175.599 150.512 175.689C150.509 175.807 150.476 175.922 150.416 176.023L149.182 178.001L151.582 177.912C151.671 177.903 151.76 177.914 151.844 177.942C151.928 177.971 152.005 178.017 152.069 178.077C152.134 178.138 152.185 178.212 152.218 178.294C152.252 178.376 152.268 178.465 152.264 178.553C152.266 178.721 152.205 178.884 152.094 179.01C152.03 179.074 151.953 179.123 151.868 179.155C151.783 179.186 151.693 179.2 151.603 179.194L149.195 179.119L150.389 181.063C150.456 181.172 150.492 181.297 150.491 181.424C150.489 181.514 150.469 181.602 150.433 181.684C150.397 181.766 150.345 181.84 150.28 181.902C150.22 181.966 150.149 182.017 150.069 182.052C149.989 182.087 149.903 182.106 149.816 182.106C149.7 182.104 149.587 182.068 149.491 182.003C149.396 181.938 149.321 181.845 149.277 181.738L148.131 179.692L146.999 181.738C146.948 181.849 146.866 181.942 146.764 182.008C146.661 182.073 146.541 182.107 146.42 182.106Z" fill="white"/>
<path d="M157.42 182.106C157.241 182.106 157.069 182.035 156.942 181.909C156.875 181.849 156.822 181.775 156.785 181.693C156.749 181.61 156.73 181.521 156.731 181.431C156.733 181.308 156.768 181.188 156.833 181.083L158.061 179.119L155.674 179.194C155.545 179.199 155.418 179.166 155.308 179.099C155.199 179.031 155.112 178.933 155.058 178.816C155.005 178.699 154.988 178.569 155.009 178.442C155.03 178.315 155.088 178.197 155.176 178.103C155.24 178.037 155.318 177.986 155.404 177.953C155.49 177.92 155.582 177.906 155.674 177.912L158.027 178.001L156.813 176.043C156.747 175.937 156.711 175.814 156.71 175.689C156.713 175.599 156.732 175.511 156.769 175.429C156.805 175.347 156.857 175.273 156.922 175.211C157.049 175.085 157.22 175.014 157.399 175.014C157.514 175.016 157.626 175.05 157.723 175.113C157.819 175.175 157.896 175.264 157.945 175.368L159.111 177.476L160.264 175.382C160.318 175.27 160.402 175.176 160.507 175.108C160.612 175.041 160.733 175.004 160.857 175C160.943 175 161.029 175.018 161.107 175.053C161.186 175.088 161.257 175.14 161.314 175.205C161.377 175.268 161.427 175.344 161.461 175.427C161.495 175.51 161.512 175.599 161.512 175.689C161.509 175.807 161.476 175.922 161.416 176.023L160.182 178.001L162.582 177.912C162.671 177.903 162.76 177.914 162.844 177.942C162.928 177.971 163.005 178.017 163.069 178.077C163.134 178.138 163.185 178.212 163.218 178.294C163.252 178.376 163.268 178.465 163.264 178.553C163.266 178.721 163.205 178.884 163.094 179.01C163.03 179.074 162.953 179.123 162.868 179.155C162.783 179.186 162.693 179.2 162.603 179.194L160.195 179.119L161.389 181.063C161.456 181.172 161.492 181.297 161.491 181.424C161.489 181.514 161.469 181.602 161.433 181.684C161.397 181.766 161.345 181.84 161.28 181.902C161.22 181.966 161.149 182.017 161.069 182.052C160.989 182.087 160.903 182.106 160.816 182.106C160.7 182.104 160.587 182.068 160.491 182.003C160.396 181.938 160.321 181.845 160.277 181.738L159.131 179.692L157.999 181.738C157.948 181.849 157.866 181.942 157.764 182.008C157.661 182.073 157.541 182.107 157.42 182.106Z" fill="white"/>
<path d="M168.42 182.106C168.241 182.106 168.069 182.035 167.942 181.909C167.875 181.849 167.822 181.775 167.785 181.693C167.749 181.61 167.73 181.521 167.731 181.431C167.733 181.308 167.768 181.188 167.833 181.083L169.061 179.119L166.674 179.194C166.545 179.199 166.418 179.166 166.308 179.099C166.199 179.031 166.112 178.933 166.058 178.816C166.005 178.699 165.988 178.569 166.009 178.442C166.03 178.315 166.088 178.197 166.176 178.103C166.24 178.037 166.318 177.986 166.404 177.953C166.49 177.92 166.582 177.906 166.674 177.912L169.027 178.001L167.813 176.043C167.747 175.937 167.711 175.814 167.71 175.689C167.713 175.599 167.732 175.511 167.769 175.429C167.805 175.347 167.857 175.273 167.922 175.211C168.049 175.085 168.22 175.014 168.399 175.014C168.514 175.016 168.626 175.05 168.723 175.113C168.819 175.175 168.896 175.264 168.945 175.368L170.111 177.476L171.264 175.382C171.318 175.27 171.402 175.176 171.507 175.108C171.612 175.041 171.733 175.004 171.857 175C171.943 175 172.029 175.018 172.107 175.053C172.186 175.088 172.257 175.14 172.314 175.205C172.377 175.268 172.427 175.344 172.461 175.427C172.495 175.51 172.512 175.599 172.512 175.689C172.509 175.807 172.476 175.922 172.416 176.023L171.182 178.001L173.582 177.912C173.671 177.903 173.76 177.914 173.844 177.942C173.928 177.971 174.005 178.017 174.069 178.077C174.134 178.138 174.185 178.212 174.218 178.294C174.252 178.376 174.268 178.465 174.264 178.553C174.266 178.721 174.205 178.884 174.094 179.01C174.03 179.074 173.953 179.123 173.868 179.155C173.783 179.186 173.693 179.2 173.603 179.194L171.195 179.119L172.389 181.063C172.456 181.172 172.492 181.297 172.491 181.424C172.489 181.514 172.469 181.602 172.433 181.684C172.397 181.766 172.345 181.84 172.28 181.902C172.22 181.966 172.149 182.017 172.069 182.052C171.989 182.087 171.903 182.106 171.816 182.106C171.7 182.104 171.587 182.068 171.491 182.003C171.396 181.938 171.321 181.845 171.277 181.738L170.131 179.692L168.999 181.738C168.948 181.849 168.866 181.942 168.764 182.008C168.661 182.073 168.541 182.107 168.42 182.106Z" fill="white"/>
<path d="M179.959 208.099C179.78 208.098 179.609 208.027 179.482 207.901C179.353 207.775 179.28 207.603 179.277 207.423C179.275 207.301 179.308 207.18 179.373 207.076L180.6 205.111L178.213 205.186C178.122 205.191 178.031 205.176 177.946 205.145C177.86 205.113 177.782 205.065 177.715 205.002C177.604 204.877 177.543 204.716 177.543 204.549C177.543 204.382 177.604 204.22 177.715 204.095C177.781 204.032 177.859 203.982 177.945 203.949C178.03 203.916 178.122 203.901 178.213 203.904L180.573 203.993L179.366 202.036C179.3 201.929 179.264 201.806 179.264 201.681C179.266 201.591 179.285 201.503 179.322 201.421C179.358 201.339 179.41 201.265 179.475 201.204C179.602 201.078 179.773 201.007 179.952 201.006C180.069 201.007 180.182 201.04 180.28 201.103C180.378 201.166 180.456 201.255 180.505 201.36L181.664 203.468L182.817 201.374C182.871 201.262 182.956 201.168 183.06 201.1C183.165 201.033 183.286 200.996 183.41 200.992C183.496 200.992 183.582 201.01 183.661 201.045C183.739 201.08 183.81 201.132 183.867 201.197C183.93 201.261 183.98 201.336 184.014 201.419C184.048 201.502 184.065 201.591 184.065 201.681C184.062 201.799 184.029 201.914 183.969 202.015L182.735 203.993L185.136 203.904C185.224 203.896 185.313 203.906 185.397 203.934C185.481 203.963 185.558 204.009 185.622 204.07C185.687 204.13 185.738 204.204 185.772 204.286C185.805 204.368 185.821 204.457 185.818 204.545C185.819 204.714 185.758 204.876 185.647 205.002C185.583 205.066 185.506 205.115 185.421 205.147C185.337 205.179 185.246 205.192 185.156 205.186L182.749 205.111L183.942 207.055C184.009 207.164 184.045 207.289 184.044 207.417C184.045 207.507 184.026 207.596 183.99 207.678C183.954 207.76 183.9 207.834 183.833 207.894C183.774 207.958 183.702 208.009 183.622 208.044C183.542 208.079 183.456 208.098 183.369 208.099C183.253 208.097 183.14 208.061 183.045 207.995C182.949 207.93 182.874 207.838 182.83 207.73L181.685 205.684L180.552 207.73C180.5 207.843 180.417 207.938 180.311 208.004C180.206 208.069 180.083 208.102 179.959 208.099Z" fill="white"/>
<path d="M191.021 208.099C190.842 208.098 190.671 208.027 190.544 207.901C190.438 207.794 190.371 207.655 190.353 207.506C190.334 207.356 190.365 207.205 190.442 207.076L191.662 205.111L189.275 205.186C189.184 205.191 189.093 205.176 189.008 205.145C188.922 205.113 188.844 205.065 188.778 205.002C188.666 204.877 188.605 204.716 188.605 204.549C188.605 204.382 188.666 204.22 188.778 204.095C188.844 204.032 188.922 203.982 189.007 203.949C189.093 203.916 189.184 203.901 189.275 203.904L191.635 203.993L190.421 202.036C190.355 201.929 190.32 201.806 190.319 201.681C190.322 201.501 190.395 201.33 190.524 201.204C190.651 201.078 190.822 201.007 191.001 201.006C191.117 201.007 191.231 201.04 191.329 201.103C191.426 201.166 191.504 201.255 191.553 201.36L192.713 203.468L193.865 201.374C193.92 201.262 194.004 201.168 194.109 201.1C194.213 201.033 194.334 200.996 194.459 200.992C194.546 200.992 194.632 201.01 194.712 201.045C194.792 201.08 194.864 201.132 194.922 201.197C195.048 201.327 195.116 201.501 195.113 201.681C195.111 201.799 195.078 201.914 195.018 202.015L193.784 203.993L196.184 203.904C196.272 203.896 196.362 203.906 196.446 203.934C196.53 203.963 196.606 204.009 196.671 204.07C196.736 204.13 196.787 204.204 196.82 204.286C196.854 204.368 196.87 204.457 196.866 204.545C196.868 204.714 196.807 204.876 196.696 205.002C196.631 205.066 196.554 205.115 196.47 205.147C196.385 205.179 196.295 205.192 196.205 205.186L193.797 205.111L194.991 207.055C195.058 207.164 195.093 207.289 195.093 207.417C195.094 207.507 195.075 207.596 195.039 207.678C195.002 207.76 194.949 207.834 194.882 207.894C194.822 207.958 194.75 208.009 194.671 208.044C194.591 208.079 194.505 208.098 194.418 208.099C194.302 208.097 194.189 208.061 194.093 207.995C193.997 207.93 193.923 207.838 193.879 207.73L192.733 205.684L191.601 207.73C191.55 207.841 191.468 207.934 191.365 208C191.263 208.065 191.143 208.099 191.021 208.099Z" fill="white"/>
<path d="M202.083 208.099C201.907 208.096 201.738 208.025 201.613 207.901C201.546 207.841 201.492 207.767 201.456 207.685C201.419 207.603 201.401 207.513 201.401 207.423C201.403 207.3 201.439 207.18 201.504 207.076L202.724 205.111L200.337 205.186C200.25 205.193 200.161 205.181 200.078 205.152C199.995 205.123 199.919 205.076 199.855 205.016C199.791 204.956 199.74 204.883 199.706 204.802C199.671 204.721 199.654 204.633 199.655 204.545C199.655 204.462 199.671 204.379 199.703 204.302C199.734 204.225 199.781 204.155 199.839 204.095C199.902 204.029 199.979 203.978 200.064 203.945C200.149 203.912 200.24 203.898 200.331 203.904L202.69 203.993L201.476 202.036C201.41 201.929 201.375 201.806 201.374 201.681C201.377 201.501 201.45 201.33 201.579 201.204C201.706 201.078 201.877 201.007 202.056 201.006C202.172 201.007 202.286 201.04 202.384 201.103C202.481 201.166 202.559 201.255 202.608 201.36L203.768 203.468L204.927 201.374C204.981 201.263 205.064 201.169 205.168 201.102C205.271 201.035 205.391 200.997 205.514 200.992C205.601 200.992 205.688 201.01 205.767 201.045C205.847 201.08 205.919 201.132 205.977 201.197C206.103 201.327 206.171 201.501 206.168 201.681C206.168 201.798 206.138 201.913 206.08 202.015L204.845 203.993L207.239 203.904C207.33 203.898 207.421 203.912 207.506 203.945C207.591 203.978 207.667 204.029 207.73 204.095C207.846 204.216 207.91 204.378 207.908 204.545C207.907 204.714 207.844 204.877 207.73 205.002C207.666 205.066 207.589 205.115 207.504 205.147C207.42 205.179 207.329 205.192 207.239 205.186L204.832 205.111L206.025 207.055C206.092 207.164 206.128 207.289 206.128 207.417C206.125 207.597 206.051 207.768 205.923 207.894C205.799 208.021 205.63 208.094 205.452 208.099C205.336 208.097 205.224 208.061 205.128 207.995C205.032 207.93 204.958 207.838 204.914 207.73L203.768 205.684L202.636 207.73C202.587 207.837 202.509 207.928 202.411 207.993C202.314 208.058 202.2 208.094 202.083 208.099Z" fill="white"/>
<g style="mix-blend-mode:multiply">
<path d="M236.49 69.9323H115.763V77.4956H236.49V69.9323Z" fill="url(#paint6_linear_121_1525)"/>
</g>
<path d="M189.255 55.999H162.998C162.524 55.999 162.07 55.8107 161.735 55.4756C161.399 55.1405 161.211 54.686 161.211 54.2121C161.211 53.7382 161.399 53.2837 161.735 52.9486C162.07 52.6135 162.524 52.4253 162.998 52.4253H189.255C189.729 52.4253 190.183 52.6135 190.519 52.9486C190.854 53.2837 191.042 53.7382 191.042 54.2121C191.042 54.686 190.854 55.1405 190.519 55.4756C190.183 55.8107 189.729 55.999 189.255 55.999Z" fill="url(#paint7_linear_121_1525)" stroke="#263238" stroke-width="1.33739" stroke-linecap="round" stroke-linejoin="round"/>
<path d="M183.287 276.033C183.289 274.616 182.87 273.23 182.083 272.052C181.297 270.873 180.179 269.954 178.87 269.411C177.561 268.868 176.121 268.726 174.731 269.002C173.341 269.278 172.065 269.96 171.063 270.962C170.061 271.964 169.379 273.241 169.103 274.631C168.827 276.02 168.969 277.461 169.512 278.769C170.055 280.078 170.973 281.197 172.152 281.983C173.331 282.769 174.716 283.188 176.133 283.187C178.03 283.185 179.849 282.431 181.19 281.089C182.531 279.748 183.286 277.93 183.287 276.033Z" fill="url(#paint8_linear_121_1525)"/>
<path d="M179.762 272.404H172.505V279.661H179.762V272.404Z" fill="url(#paint9_linear_121_1525)" stroke="#263238" stroke-width="1.33739" stroke-linecap="round" stroke-linejoin="round"/>
<path d="M262.57 193.688C262.57 193.688 253.063 169.532 261.527 166.66C270.338 163.666 269.949 179.618 269.608 187.393C268.892 204.007 267.058 207.096 265.687 203.038L262.57 193.688ZM259.713 212.532C262.325 215.942 263.061 212.409 258.349 196.457C256.139 188.955 251.338 173.78 243.972 179.475C236.9 184.931 253.731 204.709 253.731 204.709L259.713 212.532ZM254.666 226.376C257.155 228.586 257.203 225.797 251.29 214.278C248.514 208.883 242.642 197.964 237.834 203.366C233.217 208.576 248.951 221.241 248.951 221.241L254.666 226.376ZM249.21 242.84C251.699 245.056 251.747 242.26 245.834 230.748C243.058 225.353 237.186 214.428 232.378 219.836C227.788 225.06 243.474 237.725 243.474 237.725L249.21 242.84ZM264.964 209.326C260.981 210.881 264.146 212.573 280.779 212.525C288.582 212.525 304.513 212.17 301.117 203.502C297.864 195.175 274.171 205.78 274.171 205.78L264.964 209.326ZM260.429 220.402C256.214 221.132 258.983 223.423 275.296 226.683C282.941 228.218 298.621 231.048 297.018 221.909C295.483 213.098 270.154 218.786 270.154 218.786L260.429 220.402ZM255.355 233.926C251.767 234.444 254.059 236.443 267.774 239.58C274.205 241.053 287.402 243.815 286.256 236.02C285.165 228.518 263.614 232.76 263.614 232.76L255.355 233.926ZM251.501 246.454C247.989 247.348 250.478 249.094 264.459 250.758C271.006 251.535 284.421 252.886 282.464 245.254C280.575 237.929 259.597 244.415 259.597 244.415L251.501 246.454ZM272.057 195.734C270.011 200.317 274.26 199.621 288.704 187.018C295.47 181.105 309.042 168.734 298.293 162.575C287.975 156.655 276.878 185.218 276.878 185.218L272.057 195.734ZM252.033 262.775C249.871 264.036 251.992 264.527 261.909 262.55C266.56 261.629 276.019 259.583 272.821 255.545C269.724 251.658 257.039 259.842 257.039 259.842L252.033 262.775Z" fill="url(#paint10_linear_121_1525)"/>
<path opacity="0.3" d="M262.57 193.688C262.57 193.688 253.063 169.532 261.527 166.66C270.338 163.666 269.949 179.618 269.608 187.393C268.892 204.007 267.058 207.096 265.687 203.038L262.57 193.688ZM259.713 212.532C262.325 215.942 263.061 212.409 258.349 196.457C256.139 188.955 251.338 173.78 243.972 179.475C236.9 184.931 253.731 204.709 253.731 204.709L259.713 212.532ZM254.666 226.376C257.155 228.586 257.203 225.797 251.29 214.278C248.514 208.883 242.642 197.964 237.834 203.366C233.217 208.576 248.951 221.241 248.951 221.241L254.666 226.376ZM249.21 242.84C251.699 245.056 251.747 242.26 245.834 230.748C243.058 225.353 237.186 214.428 232.378 219.836C227.788 225.06 243.474 237.725 243.474 237.725L249.21 242.84ZM264.964 209.326C260.981 210.881 264.146 212.573 280.779 212.525C288.582 212.525 304.513 212.17 301.117 203.502C297.864 195.175 274.171 205.78 274.171 205.78L264.964 209.326ZM260.429 220.402C256.214 221.132 258.983 223.423 275.296 226.683C282.941 228.218 298.621 231.048 297.018 221.909C295.483 213.098 270.154 218.786 270.154 218.786L260.429 220.402ZM255.355 233.926C251.767 234.444 254.059 236.443 267.774 239.58C274.205 241.053 287.402 243.815 286.256 236.02C285.165 228.518 263.614 232.76 263.614 232.76L255.355 233.926ZM251.501 246.454C247.989 247.348 250.478 249.094 264.459 250.758C271.006 251.535 284.421 252.886 282.464 245.254C280.575 237.929 259.597 244.415 259.597 244.415L251.501 246.454ZM272.057 195.734C270.011 200.317 274.26 199.621 288.704 187.018C295.47 181.105 309.042 168.734 298.293 162.575C287.975 156.655 276.878 185.218 276.878 185.218L272.057 195.734ZM252.033 262.775C249.871 264.036 251.992 264.527 261.909 262.55C266.56 261.629 276.019 259.583 272.821 255.545C269.724 251.658 257.039 259.842 257.039 259.842L252.033 262.775Z" fill="white"/>
<path d="M266.764 204.934L265.107 177.361L266.764 204.934ZM261.52 214.032L251.044 190.319L261.52 214.032ZM288.554 207.137L263.45 210.738L288.554 207.137ZM256.091 226.813L242.499 209.374L256.091 226.813ZM258.478 221.466L277.206 222.407L258.478 221.466ZM254.045 234.84L268.367 236.258L254.045 234.84ZM250.587 243.338L243.474 232.637L250.587 243.338ZM249.769 247.116L266.608 247.273L249.769 247.116ZM246.359 278.706C246.472 278.697 246.577 278.645 246.651 278.559C246.725 278.473 246.762 278.362 246.755 278.249C245.684 262.168 251.904 235.829 261.881 214.209C268.258 200.392 293.253 173.235 293.519 172.962C293.6 172.881 293.645 172.772 293.645 172.659C293.645 172.545 293.6 172.436 293.519 172.355C293.48 172.315 293.433 172.284 293.382 172.263C293.33 172.241 293.275 172.23 293.219 172.23C293.163 172.23 293.108 172.241 293.057 172.263C293.005 172.284 292.958 172.315 292.919 172.355C292.667 172.628 267.569 199.887 261.138 213.827C250.976 235.972 244.838 261.833 245.929 278.304C245.938 278.412 245.987 278.514 246.066 278.588C246.146 278.663 246.25 278.705 246.359 278.706ZM266.758 205.357C266.87 205.35 266.976 205.299 267.051 205.215C267.127 205.13 267.166 205.02 267.16 204.907L265.53 177.32C265.527 177.264 265.514 177.209 265.49 177.158C265.465 177.107 265.431 177.062 265.389 177.024C265.348 176.987 265.299 176.958 265.245 176.94C265.192 176.921 265.136 176.914 265.08 176.918C264.967 176.925 264.862 176.976 264.786 177.06C264.711 177.144 264.672 177.255 264.678 177.368L266.335 204.941C266.34 205.05 266.387 205.152 266.466 205.227C266.544 205.302 266.649 205.344 266.758 205.343V205.357ZM261.67 214.421C261.772 214.375 261.852 214.29 261.893 214.186C261.934 214.081 261.932 213.965 261.888 213.862L251.406 190.148C251.361 190.045 251.276 189.964 251.171 189.923C251.067 189.883 250.95 189.885 250.847 189.93C250.743 189.975 250.663 190.06 250.622 190.165C250.581 190.269 250.583 190.386 250.628 190.489L261.104 214.203C261.137 214.279 261.191 214.344 261.26 214.39C261.329 214.436 261.41 214.461 261.493 214.462C261.563 214.465 261.634 214.451 261.697 214.421H261.67ZM263.484 211.147L288.575 207.56C288.635 207.559 288.695 207.545 288.75 207.519C288.805 207.493 288.853 207.455 288.893 207.409C288.932 207.363 288.961 207.309 288.978 207.251C288.995 207.193 289 207.132 288.992 207.072C288.983 207.012 288.963 206.954 288.93 206.903C288.898 206.851 288.856 206.807 288.805 206.774C288.755 206.74 288.698 206.717 288.639 206.707C288.579 206.697 288.518 206.699 288.459 206.714L263.368 210.302C263.256 210.309 263.151 210.36 263.077 210.445C263.003 210.529 262.965 210.639 262.973 210.752C262.98 210.864 263.031 210.968 263.116 211.043C263.2 211.117 263.311 211.154 263.423 211.147H263.484ZM256.33 227.154C256.419 227.084 256.477 226.982 256.491 226.869C256.505 226.757 256.474 226.643 256.405 226.554L242.806 209.081C242.736 208.99 242.633 208.931 242.52 208.917C242.407 208.902 242.293 208.933 242.202 209.002C242.112 209.072 242.053 209.175 242.038 209.288C242.023 209.401 242.054 209.515 242.124 209.606L255.75 227.106C255.79 227.157 255.84 227.198 255.898 227.227C255.956 227.255 256.02 227.27 256.084 227.27C256.186 227.265 256.283 227.224 256.357 227.154H256.33ZM277.581 222.427C277.585 222.315 277.544 222.205 277.467 222.122C277.391 222.039 277.285 221.989 277.172 221.984L258.478 221.036C258.373 221.043 258.274 221.089 258.201 221.164C258.127 221.239 258.084 221.339 258.078 221.444C258.073 221.549 258.107 221.653 258.173 221.735C258.239 221.817 258.333 221.871 258.437 221.889L277.165 222.837C277.278 222.84 277.388 222.8 277.471 222.723C277.553 222.646 277.603 222.54 277.608 222.427H277.581ZM268.763 236.299C268.769 236.243 268.765 236.186 268.749 236.132C268.733 236.078 268.707 236.027 268.671 235.983C268.636 235.94 268.591 235.903 268.542 235.877C268.492 235.85 268.437 235.834 268.381 235.829L254.059 234.417C254.003 234.411 253.947 234.417 253.894 234.433C253.84 234.449 253.79 234.476 253.747 234.511C253.704 234.547 253.669 234.591 253.642 234.64C253.616 234.689 253.6 234.743 253.595 234.799C253.585 234.911 253.62 235.022 253.691 235.109C253.763 235.195 253.865 235.251 253.977 235.263L268.299 236.681H268.34C268.45 236.689 268.559 236.653 268.643 236.582C268.727 236.511 268.78 236.409 268.79 236.299H268.763ZM250.792 243.692C250.887 243.63 250.953 243.532 250.976 243.421C250.999 243.31 250.977 243.194 250.915 243.099L243.836 232.398C243.771 232.306 243.673 232.243 243.562 232.221C243.452 232.199 243.337 232.221 243.242 232.282C243.148 232.345 243.082 232.443 243.059 232.554C243.036 232.665 243.057 232.781 243.12 232.876L250.199 243.576C250.239 243.635 250.293 243.683 250.356 243.716C250.419 243.749 250.489 243.767 250.56 243.767C250.653 243.772 250.744 243.746 250.819 243.692H250.792ZM267.037 247.273C267.036 247.16 266.991 247.053 266.912 246.973C266.833 246.893 266.727 246.847 266.614 246.843L249.776 246.686C249.664 246.686 249.556 246.731 249.477 246.81C249.398 246.889 249.353 246.997 249.353 247.109C249.351 247.165 249.361 247.222 249.381 247.274C249.402 247.327 249.433 247.374 249.472 247.415C249.512 247.455 249.559 247.486 249.611 247.508C249.664 247.529 249.719 247.54 249.776 247.539L266.614 247.696C266.672 247.698 266.729 247.689 266.784 247.67C266.838 247.65 266.887 247.619 266.929 247.58C266.971 247.54 267.005 247.493 267.028 247.44C267.051 247.387 267.064 247.33 267.065 247.273H267.037ZM244.443 272.452C244.477 272.377 247.348 264.466 255.982 262.577C256.093 262.552 256.19 262.485 256.252 262.389C256.313 262.293 256.334 262.177 256.309 262.065C256.282 261.956 256.213 261.862 256.118 261.802C256.023 261.743 255.908 261.722 255.798 261.745C246.693 263.736 243.672 272.091 243.638 272.173C243.603 272.28 243.611 272.397 243.66 272.499C243.71 272.601 243.797 272.68 243.904 272.718H244.04C244.131 272.726 244.222 272.704 244.299 272.656C244.377 272.608 244.436 272.537 244.47 272.452H244.443ZM246.359 278.706C246.472 278.697 246.577 278.645 246.651 278.559C246.725 278.473 246.762 278.362 246.755 278.249C245.684 262.168 251.904 235.829 261.881 214.209C268.258 200.392 293.253 173.235 293.519 172.962C293.6 172.881 293.645 172.772 293.645 172.659C293.645 172.545 293.6 172.436 293.519 172.355C293.48 172.315 293.433 172.284 293.382 172.263C293.33 172.241 293.275 172.23 293.219 172.23C293.163 172.23 293.108 172.241 293.057 172.263C293.005 172.284 292.958 172.315 292.919 172.355C292.667 172.628 267.569 199.887 261.138 213.827C250.976 235.972 244.838 261.833 245.929 278.304C245.938 278.412 245.987 278.514 246.066 278.588C246.146 278.663 246.25 278.705 246.359 278.706ZM266.758 205.357C266.87 205.35 266.976 205.299 267.051 205.215C267.127 205.13 267.166 205.02 267.16 204.907L265.53 177.32C265.527 177.264 265.514 177.209 265.49 177.158C265.465 177.107 265.431 177.062 265.389 177.024C265.348 176.987 265.299 176.958 265.245 176.94C265.192 176.921 265.136 176.914 265.08 176.918C264.967 176.925 264.862 176.976 264.786 177.06C264.711 177.144 264.672 177.255 264.678 177.368L266.335 204.941C266.34 205.05 266.387 205.152 266.466 205.227C266.544 205.302 266.649 205.344 266.758 205.343V205.357ZM261.67 214.421C261.772 214.375 261.852 214.29 261.893 214.186C261.934 214.081 261.932 213.965 261.888 213.862L251.406 190.148C251.361 190.045 251.276 189.964 251.171 189.923C251.067 189.883 250.95 189.885 250.847 189.93C250.743 189.975 250.663 190.06 250.622 190.165C250.581 190.269 250.583 190.386 250.628 190.489L261.104 214.203C261.137 214.279 261.191 214.344 261.26 214.39C261.329 214.436 261.41 214.461 261.493 214.462C261.563 214.465 261.634 214.451 261.697 214.421H261.67ZM263.484 211.147L288.575 207.56C288.635 207.559 288.695 207.545 288.75 207.519C288.805 207.493 288.853 207.455 288.893 207.409C288.932 207.363 288.961 207.309 288.978 207.251C288.995 207.193 289 207.132 288.992 207.072C288.983 207.012 288.963 206.954 288.93 206.903C288.898 206.851 288.856 206.807 288.805 206.774C288.755 206.74 288.698 206.717 288.639 206.707C288.579 206.697 288.518 206.699 288.459 206.714L263.368 210.302C263.256 210.309 263.151 210.36 263.077 210.445C263.003 210.529 262.965 210.639 262.973 210.752C262.98 210.864 263.031 210.968 263.116 211.043C263.2 211.117 263.311 211.154 263.423 211.147H263.484ZM256.33 227.154C256.419 227.084 256.477 226.982 256.491 226.869C256.505 226.757 256.474 226.643 256.405 226.554L242.806 209.081C242.771 209.036 242.728 208.998 242.679 208.97C242.63 208.942 242.576 208.924 242.52 208.917C242.464 208.909 242.407 208.913 242.353 208.928C242.298 208.943 242.247 208.968 242.202 209.002C242.157 209.037 242.12 209.08 242.092 209.129C242.064 209.178 242.045 209.232 242.038 209.288C242.031 209.344 242.035 209.401 242.049 209.455C242.064 209.51 242.089 209.561 242.124 209.606L255.75 227.106C255.79 227.157 255.84 227.198 255.898 227.227C255.956 227.255 256.02 227.27 256.084 227.27C256.186 227.265 256.283 227.224 256.357 227.154H256.33ZM277.581 222.427C277.585 222.315 277.544 222.205 277.467 222.122C277.391 222.039 277.285 221.989 277.172 221.984L258.478 221.036C258.373 221.043 258.274 221.089 258.201 221.164C258.127 221.239 258.084 221.339 258.078 221.444C258.073 221.549 258.107 221.653 258.173 221.735C258.239 221.817 258.333 221.871 258.437 221.889L277.165 222.837C277.278 222.84 277.388 222.8 277.471 222.723C277.553 222.646 277.603 222.54 277.608 222.427H277.581ZM268.763 236.299C268.769 236.243 268.765 236.186 268.749 236.132C268.733 236.078 268.707 236.027 268.671 235.983C268.636 235.94 268.591 235.903 268.542 235.877C268.492 235.85 268.437 235.834 268.381 235.829L254.059 234.417C254.003 234.411 253.947 234.417 253.894 234.433C253.84 234.449 253.79 234.476 253.747 234.511C253.704 234.547 253.669 234.591 253.642 234.64C253.616 234.689 253.6 234.743 253.595 234.799C253.585 234.911 253.62 235.022 253.691 235.109C253.763 235.195 253.865 235.251 253.977 235.263L268.299 236.681H268.34C268.45 236.689 268.559 236.653 268.643 236.582C268.727 236.511 268.78 236.409 268.79 236.299H268.763ZM250.792 243.692C250.887 243.63 250.953 243.532 250.976 243.421C250.999 243.31 250.977 243.194 250.915 243.099L243.836 232.398C243.771 232.306 243.673 232.243 243.562 232.221C243.452 232.199 243.337 232.221 243.242 232.282C243.148 232.345 243.082 232.443 243.059 232.554C243.036 232.665 243.057 232.781 243.12 232.876L250.199 243.576C250.239 243.635 250.293 243.683 250.356 243.716C250.419 243.749 250.489 243.767 250.56 243.767C250.653 243.772 250.744 243.746 250.819 243.692H250.792ZM267.037 247.273C267.036 247.16 266.991 247.053 266.912 246.973C266.833 246.893 266.727 246.847 266.614 246.843L249.776 246.686C249.664 246.686 249.556 246.731 249.477 246.81C249.398 246.889 249.353 246.997 249.353 247.109C249.351 247.165 249.361 247.222 249.381 247.274C249.402 247.327 249.433 247.374 249.472 247.415C249.512 247.455 249.559 247.486 249.611 247.508C249.664 247.529 249.719 247.54 249.776 247.539L266.614 247.696C266.672 247.698 266.729 247.689 266.784 247.67C266.838 247.65 266.887 247.619 266.929 247.58C266.971 247.54 267.005 247.493 267.028 247.44C267.051 247.387 267.064 247.33 267.065 247.273H267.037ZM244.443 272.452C244.477 272.377 247.348 264.466 255.982 262.577C256.093 262.552 256.19 262.485 256.252 262.389C256.313 262.293 256.334 262.177 256.309 262.065C256.282 261.956 256.213 261.862 256.118 261.802C256.023 261.743 255.908 261.722 255.798 261.745C246.693 263.736 243.672 272.091 243.638 272.173C243.603 272.28 243.611 272.397 243.66 272.499C243.71 272.601 243.797 272.68 243.904 272.718H244.04C244.131 272.726 244.222 272.704 244.299 272.656C244.377 272.608 244.436 272.537 244.47 272.452H244.443Z" fill="url(#paint11_linear_121_1525)"/>
<path opacity="0.2" d="M266.764 204.934L265.107 177.361L266.764 204.934ZM261.52 214.032L251.044 190.319L261.52 214.032ZM288.554 207.137L263.45 210.738L288.554 207.137ZM256.091 226.813L242.499 209.374L256.091 226.813ZM258.478 221.466L277.206 222.407L258.478 221.466ZM254.045 234.84L268.367 236.258L254.045 234.84ZM250.587 243.338L243.474 232.637L250.587 243.338ZM249.769 247.116L266.608 247.273L249.769 247.116ZM246.359 278.706C246.472 278.697 246.577 278.645 246.651 278.559C246.725 278.473 246.762 278.362 246.755 278.249C245.684 262.168 251.904 235.829 261.881 214.209C268.258 200.392 293.253 173.235 293.519 172.962C293.6 172.881 293.645 172.772 293.645 172.659C293.645 172.545 293.6 172.436 293.519 172.355C293.48 172.315 293.433 172.284 293.382 172.263C293.33 172.241 293.275 172.23 293.219 172.23C293.163 172.23 293.108 172.241 293.057 172.263C293.005 172.284 292.958 172.315 292.919 172.355C292.667 172.628 267.569 199.887 261.138 213.827C250.976 235.972 244.838 261.833 245.929 278.304C245.938 278.412 245.987 278.514 246.066 278.588C246.146 278.663 246.25 278.705 246.359 278.706ZM266.758 205.357C266.87 205.35 266.976 205.299 267.051 205.215C267.127 205.13 267.166 205.02 267.16 204.907L265.53 177.32C265.527 177.264 265.514 177.209 265.49 177.158C265.465 177.107 265.431 177.062 265.389 177.024C265.348 176.987 265.299 176.958 265.245 176.94C265.192 176.921 265.136 176.914 265.08 176.918C264.967 176.925 264.862 176.976 264.786 177.06C264.711 177.144 264.672 177.255 264.678 177.368L266.335 204.941C266.34 205.05 266.387 205.152 266.466 205.227C266.544 205.302 266.649 205.344 266.758 205.343V205.357ZM261.67 214.421C261.772 214.375 261.852 214.29 261.893 214.186C261.934 214.081 261.932 213.965 261.888 213.862L251.406 190.148C251.361 190.045 251.276 189.964 251.171 189.923C251.067 189.883 250.95 189.885 250.847 189.93C250.743 189.975 250.663 190.06 250.622 190.165C250.581 190.269 250.583 190.386 250.628 190.489L261.104 214.203C261.137 214.279 261.191 214.344 261.26 214.39C261.329 214.436 261.41 214.461 261.493 214.462C261.563 214.465 261.634 214.451 261.697 214.421H261.67ZM263.484 211.147L288.575 207.56C288.635 207.559 288.695 207.545 288.75 207.519C288.805 207.493 288.853 207.455 288.893 207.409C288.932 207.363 288.961 207.309 288.978 207.251C288.995 207.193 289 207.132 288.992 207.072C288.983 207.012 288.963 206.954 288.93 206.903C288.898 206.851 288.856 206.807 288.805 206.774C288.755 206.74 288.698 206.717 288.639 206.707C288.579 206.697 288.518 206.699 288.459 206.714L263.368 210.302C263.256 210.309 263.151 210.36 263.077 210.445C263.003 210.529 262.965 210.639 262.973 210.752C262.98 210.864 263.031 210.968 263.116 211.043C263.2 211.117 263.311 211.154 263.423 211.147H263.484ZM256.33 227.154C256.419 227.084 256.477 226.982 256.491 226.869C256.505 226.757 256.474 226.643 256.405 226.554L242.806 209.081C242.736 208.99 242.633 208.931 242.52 208.917C242.407 208.902 242.293 208.933 242.202 209.002C242.112 209.072 242.053 209.175 242.038 209.288C242.023 209.401 242.054 209.515 242.124 209.606L255.75 227.106C255.79 227.157 255.84 227.198 255.898 227.227C255.956 227.255 256.02 227.27 256.084 227.27C256.186 227.265 256.283 227.224 256.357 227.154H256.33ZM277.581 222.427C277.585 222.315 277.544 222.205 277.467 222.122C277.391 222.039 277.285 221.989 277.172 221.984L258.478 221.036C258.373 221.043 258.274 221.089 258.201 221.164C258.127 221.239 258.084 221.339 258.078 221.444C258.073 221.549 258.107 221.653 258.173 221.735C258.239 221.817 258.333 221.871 258.437 221.889L277.165 222.837C277.278 222.84 277.388 222.8 277.471 222.723C277.553 222.646 277.603 222.54 277.608 222.427H277.581ZM268.763 236.299C268.769 236.243 268.765 236.186 268.749 236.132C268.733 236.078 268.707 236.027 268.671 235.983C268.636 235.94 268.591 235.903 268.542 235.877C268.492 235.85 268.437 235.834 268.381 235.829L254.059 234.417C254.003 234.411 253.947 234.417 253.894 234.433C253.84 234.449 253.79 234.476 253.747 234.511C253.704 234.547 253.669 234.591 253.642 234.64C253.616 234.689 253.6 234.743 253.595 234.799C253.585 234.911 253.62 235.022 253.691 235.109C253.763 235.195 253.865 235.251 253.977 235.263L268.299 236.681H268.34C268.45 236.689 268.559 236.653 268.643 236.582C268.727 236.511 268.78 236.409 268.79 236.299H268.763ZM250.792 243.692C250.887 243.63 250.953 243.532 250.976 243.421C250.999 243.31 250.977 243.194 250.915 243.099L243.836 232.398C243.771 232.306 243.673 232.243 243.562 232.221C243.452 232.199 243.337 232.221 243.242 232.282C243.148 232.345 243.082 232.443 243.059 232.554C243.036 232.665 243.057 232.781 243.12 232.876L250.199 243.576C250.239 243.635 250.293 243.683 250.356 243.716C250.419 243.749 250.489 243.767 250.56 243.767C250.653 243.772 250.744 243.746 250.819 243.692H250.792ZM267.037 247.273C267.036 247.16 266.991 247.053 266.912 246.973C266.833 246.893 266.727 246.847 266.614 246.843L249.776 246.686C249.664 246.686 249.556 246.731 249.477 246.81C249.398 246.889 249.353 246.997 249.353 247.109C249.351 247.165 249.361 247.222 249.381 247.274C249.402 247.327 249.433 247.374 249.472 247.415C249.512 247.455 249.559 247.486 249.611 247.508C249.664 247.529 249.719 247.54 249.776 247.539L266.614 247.696C266.672 247.698 266.729 247.689 266.784 247.67C266.838 247.65 266.887 247.619 266.929 247.58C266.971 247.54 267.005 247.493 267.028 247.44C267.051 247.387 267.064 247.33 267.065 247.273H267.037ZM244.443 272.452C244.477 272.377 247.348 264.466 255.982 262.577C256.093 262.552 256.19 262.485 256.252 262.389C256.313 262.293 256.334 262.177 256.309 262.065C256.282 261.956 256.213 261.862 256.118 261.802C256.023 261.743 255.908 261.722 255.798 261.745C246.693 263.736 243.672 272.091 243.638 272.173C243.603 272.28 243.611 272.397 243.66 272.499C243.71 272.601 243.797 272.68 243.904 272.718H244.04C244.131 272.726 244.222 272.704 244.299 272.656C244.377 272.608 244.436 272.537 244.47 272.452H244.443ZM246.359 278.706C246.472 278.697 246.577 278.645 246.651 278.559C246.725 278.473 246.762 278.362 246.755 278.249C245.684 262.168 251.904 235.829 261.881 214.209C268.258 200.392 293.253 173.235 293.519 172.962C293.6 172.881 293.645 172.772 293.645 172.659C293.645 172.545 293.6 172.436 293.519 172.355C293.48 172.315 293.433 172.284 293.382 172.263C293.33 172.241 293.275 172.23 293.219 172.23C293.163 172.23 293.108 172.241 293.057 172.263C293.005 172.284 292.958 172.315 292.919 172.355C292.667 172.628 267.569 199.887 261.138 213.827C250.976 235.972 244.838 261.833 245.929 278.304C245.938 278.412 245.987 278.514 246.066 278.588C246.146 278.663 246.25 278.705 246.359 278.706ZM266.758 205.357C266.87 205.35 266.976 205.299 267.051 205.215C267.127 205.13 267.166 205.02 267.16 204.907L265.53 177.32C265.527 177.264 265.514 177.209 265.49 177.158C265.465 177.107 265.431 177.062 265.389 177.024C265.348 176.987 265.299 176.958 265.245 176.94C265.192 176.921 265.136 176.914 265.08 176.918C264.967 176.925 264.862 176.976 264.786 177.06C264.711 177.144 264.672 177.255 264.678 177.368L266.335 204.941C266.34 205.05 266.387 205.152 266.466 205.227C266.544 205.302 266.649 205.344 266.758 205.343V205.357ZM261.67 214.421C261.772 214.375 261.852 214.29 261.893 214.186C261.934 214.081 261.932 213.965 261.888 213.862L251.406 190.148C251.361 190.045 251.276 189.964 251.171 189.923C251.067 189.883 250.95 189.885 250.847 189.93C250.743 189.975 250.663 190.06 250.622 190.165C250.581 190.269 250.583 190.386 250.628 190.489L261.104 214.203C261.137 214.279 261.191 214.344 261.26 214.39C261.329 214.436 261.41 214.461 261.493 214.462C261.563 214.465 261.634 214.451 261.697 214.421H261.67ZM263.484 211.147L288.575 207.56C288.635 207.559 288.695 207.545 288.75 207.519C288.805 207.493 288.853 207.455 288.893 207.409C288.932 207.363 288.961 207.309 288.978 207.251C288.995 207.193 289 207.132 288.992 207.072C288.983 207.012 288.963 206.954 288.93 206.903C288.898 206.851 288.856 206.807 288.805 206.774C288.755 206.74 288.698 206.717 288.639 206.707C288.579 206.697 288.518 206.699 288.459 206.714L263.368 210.302C263.256 210.309 263.151 210.36 263.077 210.445C263.003 210.529 262.965 210.639 262.973 210.752C262.98 210.864 263.031 210.968 263.116 211.043C263.2 211.117 263.311 211.154 263.423 211.147H263.484ZM256.33 227.154C256.419 227.084 256.477 226.982 256.491 226.869C256.505 226.757 256.474 226.643 256.405 226.554L242.806 209.081C242.771 209.036 242.728 208.998 242.679 208.97C242.63 208.942 242.576 208.924 242.52 208.917C242.464 208.909 242.407 208.913 242.353 208.928C242.298 208.943 242.247 208.968 242.202 209.002C242.157 209.037 242.12 209.08 242.092 209.129C242.064 209.178 242.045 209.232 242.038 209.288C242.031 209.344 242.035 209.401 242.049 209.455C242.064 209.51 242.089 209.561 242.124 209.606L255.75 227.106C255.79 227.157 255.84 227.198 255.898 227.227C255.956 227.255 256.02 227.27 256.084 227.27C256.186 227.265 256.283 227.224 256.357 227.154H256.33ZM277.581 222.427C277.585 222.315 277.544 222.205 277.467 222.122C277.391 222.039 277.285 221.989 277.172 221.984L258.478 221.036C258.373 221.043 258.274 221.089 258.201 221.164C258.127 221.239 258.084 221.339 258.078 221.444C258.073 221.549 258.107 221.653 258.173 221.735C258.239 221.817 258.333 221.871 258.437 221.889L277.165 222.837C277.278 222.84 277.388 222.8 277.471 222.723C277.553 222.646 277.603 222.54 277.608 222.427H277.581ZM268.763 236.299C268.769 236.243 268.765 236.186 268.749 236.132C268.733 236.078 268.707 236.027 268.671 235.983C268.636 235.94 268.591 235.903 268.542 235.877C268.492 235.85 268.437 235.834 268.381 235.829L254.059 234.417C254.003 234.411 253.947 234.417 253.894 234.433C253.84 234.449 253.79 234.476 253.747 234.511C253.704 234.547 253.669 234.591 253.642 234.64C253.616 234.689 253.6 234.743 253.595 234.799C253.585 234.911 253.62 235.022 253.691 235.109C253.763 235.195 253.865 235.251 253.977 235.263L268.299 236.681H268.34C268.45 236.689 268.559 236.653 268.643 236.582C268.727 236.511 268.78 236.409 268.79 236.299H268.763ZM250.792 243.692C250.887 243.63 250.953 243.532 250.976 243.421C250.999 243.31 250.977 243.194 250.915 243.099L243.836 232.398C243.771 232.306 243.673 232.243 243.562 232.221C243.452 232.199 243.337 232.221 243.242 232.282C243.148 232.345 243.082 232.443 243.059 232.554C243.036 232.665 243.057 232.781 243.12 232.876L250.199 243.576C250.239 243.635 250.293 243.683 250.356 243.716C250.419 243.749 250.489 243.767 250.56 243.767C250.653 243.772 250.744 243.746 250.819 243.692H250.792ZM267.037 247.273C267.036 247.16 266.991 247.053 266.912 246.973C266.833 246.893 266.727 246.847 266.614 246.843L249.776 246.686C249.664 246.686 249.556 246.731 249.477 246.81C249.398 246.889 249.353 246.997 249.353 247.109C249.351 247.165 249.361 247.222 249.381 247.274C249.402 247.327 249.433 247.374 249.472 247.415C249.512 247.455 249.559 247.486 249.611 247.508C249.664 247.529 249.719 247.54 249.776 247.539L266.614 247.696C266.672 247.698 266.729 247.689 266.784 247.67C266.838 247.65 266.887 247.619 266.929 247.58C266.971 247.54 267.005 247.493 267.028 247.44C267.051 247.387 267.064 247.33 267.065 247.273H267.037ZM244.443 272.452C244.477 272.377 247.348 264.466 255.982 262.577C256.093 262.552 256.19 262.485 256.252 262.389C256.313 262.293 256.334 262.177 256.309 262.065C256.282 261.956 256.213 261.862 256.118 261.802C256.023 261.743 255.908 261.722 255.798 261.745C246.693 263.736 243.672 272.091 243.638 272.173C243.603 272.28 243.611 272.397 243.66 272.499C243.71 272.601 243.797 272.68 243.904 272.718H244.04C244.131 272.726 244.222 272.704 244.299 272.656C244.377 272.608 244.436 272.537 244.47 272.452H244.443Z" fill="black"/>
<path d="M257.496 266.682H238.188V270.679H239.873L243.358 292.483H252.326L255.811 270.679H257.496V266.682Z" fill="url(#paint12_linear_121_1525)"/>
<path opacity="0.3" d="M257.496 266.682H238.188V270.679H239.873L243.358 292.483H252.326L255.811 270.679H257.496V266.682Z" fill="white"/>
<path d="M83.6678 145.832L61.2096 138.501L59.2113 133.222L54.6487 133.079L46.3693 131.51L47.365 133.222L57.7859 140.785L60.3571 142.067L83.8452 154.337L83.6678 145.832Z" fill="white" stroke="#263238" stroke-width="1.00396" stroke-miterlimit="10"/>
<path d="M59.2113 133.222L57.0698 131.94L52.7937 133.508L53.503 134.361L59.2113 133.222Z" fill="white" stroke="#263238" stroke-width="1.00396" stroke-linejoin="round"/>
<path d="M83.6678 145.832L61.2096 138.501L59.2113 133.222L54.6487 133.079L46.3693 131.51L47.365 133.222L57.7859 140.785L60.3571 142.067L83.8452 154.337L83.6678 145.832Z" fill="white"/>
<mask id="mask0_121_1525" style="mask-type:luminance" maskUnits="userSpaceOnUse" x="46" y="131" width="38" height="24">
<path d="M83.6678 145.832L61.2096 138.501L59.2113 133.222L54.6487 133.079L46.3693 131.51L47.365 133.222L57.7859 140.785L60.3571 142.067L83.8452 154.337L83.6678 145.832Z" fill="white"/>
</mask>
<g mask="url(#mask0_121_1525)">
<path opacity="0.5" d="M83.6678 145.832L61.2096 138.501L59.2113 133.222L54.6487 133.079L46.3693 131.51L47.365 133.222L57.7859 140.785L60.3571 142.067L83.8452 154.337L83.6678 145.832Z" fill="white" stroke="#263238" stroke-width="1.00396" stroke-miterlimit="10"/>
</g>
<path d="M83.6678 145.832L61.2096 138.501L59.2113 133.222L54.6487 133.079L46.3693 131.51L47.365 133.222L57.7859 140.785L60.3571 142.067L83.8452 154.337L83.6678 145.832Z" stroke="#263238" stroke-width="1.00396" stroke-miterlimit="10"/>
<path d="M59.2113 133.222L57.0698 131.94L52.7937 133.508L53.503 134.361L59.2113 133.222Z" fill="white"/>
<mask id="mask1_121_1525" style="mask-type:luminance" maskUnits="userSpaceOnUse" x="52" y="131" width="8" height="4">
<path d="M59.2113 133.222L57.0698 131.94L52.7937 133.508L53.503 134.361L59.2113 133.222Z" fill="white"/>
</mask>
<g mask="url(#mask1_121_1525)">
<path opacity="0.5" d="M59.2113 133.222L57.0698 131.94L52.7937 133.508L53.503 134.361L59.2113 133.222Z" fill="url(#paint13_linear_121_1525)" stroke="#263238" stroke-width="1.00396" stroke-linejoin="round"/>
</g>
<path d="M59.2113 133.222L57.0698 131.94L52.7937 133.508L53.503 134.361L59.2113 133.222Z" stroke="#263238" stroke-width="1.00396" stroke-linejoin="round"/>
<path d="M88.4349 98.249C88.4349 98.249 88.0871 101.318 88.9533 103.289C89.8194 105.26 94.6275 111.937 94.6275 111.937L85.6524 119.132C85.6524 119.132 81.9287 111.63 81.2194 110.416C80.5101 109.202 79.6576 103.978 81.9696 100.234C84.2816 96.4894 87.6097 95.4801 88.4349 98.249Z" fill="white"/>
<mask id="mask2_121_1525" style="mask-type:luminance" maskUnits="userSpaceOnUse" x="80" y="96" width="15" height="24">
<path d="M88.4349 98.249C88.4349 98.249 88.0871 101.318 88.9533 103.289C89.8194 105.26 94.6275 111.937 94.6275 111.937L85.6524 119.132C85.6524 119.132 81.9287 111.63 81.2194 110.416C80.5101 109.202 79.6576 103.978 81.9696 100.234C84.2816 96.4894 87.6097 95.4801 88.4349 98.249Z" fill="white"/>
</mask>
<g mask="url(#mask2_121_1525)">
<g style="mix-blend-mode:multiply" opacity="0.5">
<path d="M83.8247 108.111L87.7189 116.186L85.6456 119.139L81.731 112.148L83.8247 108.111Z" fill="url(#paint14_linear_121_1525)"/>
</g>
</g>
<path d="M88.4349 98.249C88.4349 98.249 88.0871 101.318 88.9533 103.289C89.8194 105.26 94.6275 111.937 94.6275 111.937L85.6524 119.132C85.6524 119.132 81.9287 111.63 81.2194 110.416C80.5101 109.202 79.6576 103.978 81.9696 100.234C84.2816 96.4894 87.6097 95.4801 88.4349 98.249Z" stroke="#263238" stroke-width="1.00396" stroke-miterlimit="10"/>
<path d="M91.2177 92.6293C90.6653 89.2193 86.7574 82.2833 80.558 82.5493C76.5342 82.7266 74.6519 83.5382 72.906 84.5271C71.4828 85.3656 70.1563 86.3582 68.9504 87.487C65.9223 91.122 64.8584 92.1178 65.4449 94.9003C65.3968 96.0102 65.5707 97.1185 65.9564 98.1603C66.8839 100.636 67.5182 102.252 68.3229 103.432C68.0774 104.585 67.4363 107.626 67.4022 108.322C67.3681 109.018 69.4482 108.534 70.4985 108.268C72.449 112.632 76.0227 115.66 77.1344 116.008C79.0713 116.615 82.1334 113.43 83.7566 110.961C85.3798 108.493 84.1522 105.717 84.159 104.612C84.1658 103.507 87.8077 101.079 89.158 100.309C90.5084 99.5379 91.7633 96.0324 91.2177 92.6293Z" fill="white"/>
<mask id="mask3_121_1525" style="mask-type:luminance" maskUnits="userSpaceOnUse" x="65" y="82" width="27" height="35">
<path d="M91.2177 92.6293C90.6653 89.2193 86.7574 82.2833 80.558 82.5493C76.5342 82.7266 74.6519 83.5382 72.906 84.5271C71.4828 85.3656 70.1563 86.3582 68.9504 87.487C65.9223 91.122 64.8584 92.1178 65.4449 94.9003C65.3968 96.0102 65.5707 97.1185 65.9564 98.1603C66.8839 100.636 67.5182 102.252 68.3229 103.432C68.0774 104.585 67.4363 107.626 67.4022 108.322C67.3681 109.018 69.4482 108.534 70.4985 108.268C72.449 112.632 76.0227 115.66 77.1344 116.008C79.0713 116.615 82.1334 113.43 83.7566 110.961C85.3798 108.493 84.1522 105.717 84.159 104.612C84.1658 103.507 87.8077 101.079 89.158 100.309C90.5084 99.5379 91.7633 96.0324 91.2177 92.6293Z" fill="white"/>
</mask>
<g mask="url(#mask3_121_1525)">
<g style="mix-blend-mode:multiply" opacity="0.5">
<path d="M65.4721 94.9004C65.424 96.0102 65.5979 97.1185 65.9836 98.1603C66.9112 100.636 67.5454 102.252 68.3502 103.432C68.1047 104.585 67.4636 107.627 67.4295 108.322C67.3954 109.018 69.4755 108.534 70.5258 108.268C72.4763 112.632 76.05 115.66 77.1616 116.008C79.0985 116.615 82.1607 113.43 83.7838 110.961C84.1894 110.345 84.4526 109.646 84.5545 108.915C84.4658 108.595 84.4045 108.397 84.4045 108.397C84.4045 108.397 83.4906 111.909 81.6765 111.453C79.8623 110.996 77.0866 107.361 75.5385 106.106C73.9903 104.851 74.6246 103.2 74.3177 101.332C74.0108 99.463 69.4277 97.8193 69.1208 96.7486C68.8139 95.6779 69.8847 91.2449 69.8847 91.2449C69.8847 91.2449 71.6238 88.9261 71.2487 89.8809C70.9836 90.7087 70.8874 91.5814 70.9659 92.4472C71.0444 93.313 71.2959 94.1541 71.7056 94.9208C71.9931 95.5258 72.4492 96.0349 73.019 96.387C73.5888 96.739 74.2482 96.9191 74.9178 96.9055L76.5819 88.6601L73.0696 85.7548L68.9776 87.4598C65.9223 91.1221 64.8788 92.1178 65.4721 94.9004Z" fill="white"/>
</g>
</g>
<path d="M91.2177 92.6293C90.6653 89.2193 86.7574 82.2833 80.558 82.5493C76.5342 82.7266 74.6519 83.5382 72.906 84.5271C71.4828 85.3656 70.1563 86.3582 68.9504 87.487C65.9223 91.122 64.8584 92.1178 65.4449 94.9003C65.3968 96.0102 65.5707 97.1185 65.9564 98.1603C66.8839 100.636 67.5182 102.252 68.3229 103.432C68.0774 104.585 67.4363 107.626 67.4022 108.322C67.3681 109.018 69.4482 108.534 70.4985 108.268C72.449 112.632 76.0227 115.66 77.1344 116.008C79.0713 116.615 82.1334 113.43 83.7566 110.961C85.3798 108.493 84.1522 105.717 84.159 104.612C84.1658 103.507 87.8077 101.079 89.158 100.309C90.5084 99.5379 91.7633 96.0325 91.2177 92.6293Z" stroke="#263238" stroke-miterlimit="10"/>
<path d="M69.1685 101.373L69.8505 103.323C69.8505 103.323 71.3168 103.807 73.1036 101.857" stroke="#263238" stroke-miterlimit="10" stroke-linecap="round"/>
<path d="M74.2085 110.484C74.2085 110.484 75.8317 110.32 76.4864 108.042" stroke="#263238" stroke-miterlimit="10" stroke-linecap="round"/>
<path d="M68.0295 99.7425C68.0295 99.7425 68.5138 98.2762 71.4395 98.2762" stroke="#263238" stroke-miterlimit="10" stroke-linecap="round"/>
<path d="M83.0267 79.835C80.9008 79.5293 78.7569 79.3652 76.6091 79.3439C76.6091 79.3439 70.1847 75.6407 64.0126 79.5894C57.8405 83.5382 60.8072 90.4537 60.8072 92.1792C60.8072 93.9046 58.8294 93.9114 60.0638 96.1348C61.2982 98.3581 65.4721 97.1305 65.4721 97.1305C65.5162 96.2919 65.7378 95.4723 66.1222 94.7257C66.5067 93.9792 67.0452 93.3227 67.7022 92.7998C69.9255 91.0743 71.6987 90.6992 72.4353 91.1971C72.4353 91.1971 71.9443 94.9003 72.6808 96.3803C72.6808 96.3803 75.1496 97.6147 75.893 97.6147C76.6364 97.6147 75.4088 98.6582 77.8708 99.5857C78.3194 99.7468 78.7992 99.8017 79.2725 99.746C79.7458 99.6904 80.1998 99.5258 80.5988 99.2651C80.9603 97.7647 81.7514 95.5073 83.2245 96.0325C85.3865 96.8031 87.3575 102.123 84.4317 103.937C87.9508 104.578 92.2133 98.3513 92.4656 92.677C92.718 87.0028 86.6823 80.476 83.0267 79.835Z" fill="#263238"/>
<path d="M72.5444 88.7623C72.5444 88.7623 74.3586 87.787 76.5819 89.8739C78.8052 91.9609 83.1291 94.7502 88.8579 93.2157" stroke="white" stroke-width="0.5" stroke-linecap="round" stroke-linejoin="round"/>
<path d="M72.292 87.0914C72.292 87.0914 73.5401 85.1409 75.627 85.1409C77.7139 85.1409 82.5902 88.0667 86.4844 88.0667" stroke="white" stroke-width="0.5" stroke-linecap="round" stroke-linejoin="round"/>
<path d="M70.8736 90.8492C70.8736 90.8492 68.507 87.9303 66.2837 90.2968C64.0604 92.6634 65.4721 94.9003 65.4721 94.9003" stroke="white" stroke-width="0.5" stroke-linecap="round" stroke-linejoin="round"/>
<path d="M61.4142 92.7998C62.7703 91.5768 63.6134 89.8858 63.7739 88.0667C64.0535 85.0045 68.2342 82.3584 70.8735 84.8681" stroke="white" stroke-width="0.5" stroke-linecap="round" stroke-linejoin="round"/>
<path d="M65.7244 81.6628C65.7244 81.6628 69.905 77.6253 73.3832 82.7744" stroke="white" stroke-width="0.5" stroke-linecap="round" stroke-linejoin="round"/>
<path d="M99.7493 280.172C99.7493 280.172 102.32 284.169 102.034 286.74L101.754 289.311C101.754 289.311 92.3223 291.896 90.3241 291.896C88.3258 291.896 77.748 290.894 77.748 290.894L77.2911 289.079C77.2591 288.945 77.2742 288.805 77.3338 288.68C77.3934 288.556 77.4939 288.456 77.6184 288.397L87.0505 283.999L90.024 280.745L99.7493 280.172Z" fill="white" stroke="#263238" stroke-width="1.00396" stroke-miterlimit="10"/>
<path d="M91.7563 289.884C94.3138 290.082 99.1696 288.52 101.986 287.524L101.789 289.311C101.789 289.311 92.3224 291.896 90.3241 291.896C88.3258 291.896 77.748 290.893 77.748 290.893L77.4207 289.598C79.112 289.605 88.3736 289.625 91.7563 289.884Z" fill="url(#paint15_linear_121_1525)" stroke="#263238" stroke-width="1.00396" stroke-miterlimit="10"/>
<path d="M87.0642 283.999L73.3356 289.973C73.3356 289.973 72.1625 292.912 73.3356 293.499C74.5086 294.085 100.084 293.499 100.084 293.499C100.084 293.499 101.85 288.854 99.0606 285.738C96.2712 282.621 87.0642 283.999 87.0642 283.999Z" fill="white" stroke="#263238" stroke-width="1.00396" stroke-miterlimit="10"/>
<path d="M100.083 293.499C100.083 293.499 74.5084 294.085 73.3354 293.499C72.7693 293.212 72.7489 292.387 72.8785 291.603H100.534C100.443 292.247 100.292 292.882 100.083 293.499Z" fill="url(#paint16_linear_121_1525)" stroke="#263238" stroke-width="1.00396" stroke-miterlimit="10"/>
<path d="M80.5716 180.191C80.5716 180.191 76.9843 196.089 75.6271 206.032C74.27 215.976 73.472 235.897 73.7585 238.182C74.0449 240.466 88.326 278.747 88.326 278.747L89.7514 282.157L99.7495 280.159C99.7495 280.159 95.1801 265.591 93.4683 257.591C91.7564 249.592 88.0123 236.449 88.0123 234.165C88.0123 231.88 96.8783 188.246 97.5125 185.381C98.1468 182.517 101.025 178.118 101.025 178.118L81.8811 177.729L80.5716 180.191Z" fill="url(#paint17_linear_121_1525)" stroke="#263238" stroke-width="1.00396" stroke-miterlimit="10"/>
<path d="M80.5715 180.191C80.5715 180.191 78.471 194.711 79.3371 204.805C80.2032 214.898 82.0651 236.388 82.0651 239.587C82.0651 242.785 87.2278 261.888 87.5211 267.89C87.978 276.558 87.337 280.848 87.337 280.848L87.0301 283.992C87.0301 283.992 93.0521 284.851 94.3684 285.226C95.8887 285.618 97.4576 285.788 99.0264 285.731C99.0264 285.731 101.216 276.094 101.216 267.883C101.216 259.672 99.3947 242.772 98.4877 235.924C97.5806 229.077 100.438 202.663 102.061 197.732C103.684 192.801 107.231 182.36 104.844 177.027C102.457 171.694 80.5715 180.191 80.5715 180.191Z" fill="url(#paint18_linear_121_1525)" stroke="#263238" stroke-width="1.00396" stroke-miterlimit="10"/>
<path d="M107.497 174.353L107.279 180.846C107.279 180.846 103.391 181.617 98.1536 182.524C93.8297 183.274 82.9722 182.326 79.3167 181.971C78.9836 181.942 78.6756 181.782 78.4598 181.527C78.2439 181.271 78.1377 180.941 78.1641 180.607L78.5188 174.742L107.497 174.353Z" fill="#263238"/>
<path d="M92.3019 109.632C92.3019 109.632 86.1639 116.267 83.8519 120.394C81.5399 124.52 80.626 130.842 79.7599 135.82C78.8938 140.799 81.2399 152.488 80.5783 157.856L78.4846 174.763C78.4846 174.763 78.0344 175.908 79.5417 177.163C81.0489 178.418 88.4077 178.875 95.0572 179.209C97.4851 179.332 104.735 177.77 105.921 177.695C107.354 177.607 107.401 175.786 107.463 174.353C107.749 167.622 108.963 149.679 109.761 141.863C111.405 125.925 102.409 110.539 92.3019 109.632Z" fill="white" stroke="#263238" stroke-width="1.00396" stroke-miterlimit="10"/>
<g style="mix-blend-mode:multiply">
<path d="M109.011 150.927C109.284 147.387 109.557 144.175 109.795 141.863C109.863 141.181 109.904 140.499 109.938 139.817L93.6318 142.545L79.6235 137.771C79.6251 140.669 79.789 143.566 80.1146 146.446L93.8569 150.292L109.011 150.927Z" fill="url(#paint19_linear_121_1525)"/>
</g>
<g style="mix-blend-mode:multiply">
<path d="M91.695 110.3C90.7675 111.33 88.9261 113.423 87.1733 115.647L97.5261 126.17L100.936 124.806L91.695 110.3Z" fill="url(#paint20_linear_121_1525)"/>
</g>
<path d="M92.3018 109.632C92.3018 109.632 86.1638 116.267 83.8518 120.394C83.1663 121.648 82.611 122.968 82.1946 124.336L94.5388 110.075C93.8095 109.854 93.0602 109.705 92.3018 109.632Z" fill="#263238"/>
<g style="mix-blend-mode:multiply">
<path d="M80.2373 133.133L93.6318 137.539L109.897 135.67C109.643 131.618 108.742 127.633 107.231 123.865L94.116 129.123L82.3924 123.81C81.4338 126.857 80.7133 129.975 80.2373 133.133Z" fill="url(#paint21_linear_121_1525)"/>
</g>
<g style="mix-blend-mode:multiply">
<path d="M103.296 167.622C96.5023 168.763 89.5315 168.193 83.0132 165.965L79.7464 164.846L78.7302 173.03L82.4539 174.074C89.5329 176.053 96.9316 176.623 104.23 175.751L107.238 175.39C107.394 175.059 107.482 174.699 107.497 174.333C107.579 172.512 107.722 169.866 107.906 166.831L103.296 167.622Z" fill="url(#paint22_linear_121_1525)"/>
</g>
<g style="mix-blend-mode:multiply">
<path d="M105.117 156.478C98.3228 157.623 91.3504 157.051 84.834 154.814L80.6738 153.389C80.777 154.875 80.7564 156.366 80.6124 157.849L80.1282 161.784L84.2747 162.943C91.351 164.925 98.7474 165.497 106.044 164.628L108.09 164.383C108.261 161.655 108.458 158.749 108.67 155.878L105.117 156.478Z" fill="url(#paint23_linear_121_1525)"/>
</g>
<path d="M41.1324 127.638L54.3191 138.24L54.8875 137.533L41.7007 126.931L41.1324 127.638Z" fill="#263238"/>
<path d="M98.6513 116.99C98.6513 116.99 103.487 120.284 103.596 128.066C103.644 131.476 103.289 134.661 102.505 140.247C101.72 145.832 96.8508 164.021 93.0589 166.231C89.267 168.44 83.3814 164.267 83.3814 164.267L54.9147 145.368L48.0333 139.81L44.6233 133.372L45.694 131.326L54.0894 137.764L49.5678 133.583L50.4544 132.458L52.0912 133.597L56.8652 135.384L57.9087 142.204L59.3818 143.213L86.614 153.164C86.614 153.164 86.273 138.507 86.5254 135.704C86.7777 132.901 87.1255 125.856 90.1263 120.748" fill="white"/>
<mask id="mask4_121_1525" style="mask-type:luminance" maskUnits="userSpaceOnUse" x="44" y="116" width="60" height="51">
<path d="M98.6513 116.99C98.6513 116.99 103.487 120.284 103.596 128.066C103.644 131.476 103.289 134.661 102.505 140.247C101.72 145.832 96.8508 164.021 93.0589 166.231C89.267 168.44 83.3814 164.267 83.3814 164.267L54.9147 145.368L48.0333 139.81L44.6233 133.372L45.694 131.326L54.0894 137.764L49.5678 133.583L50.4544 132.458L52.0912 133.597L56.8652 135.384L57.9087 142.204L59.3818 143.213L86.614 153.164C86.614 153.164 86.273 138.507 86.5254 135.704C86.7777 132.901 87.1255 125.856 90.1263 120.748" fill="white"/>
</mask>
<g mask="url(#mask4_121_1525)">
<g style="mix-blend-mode:multiply" opacity="0.5">
<path d="M86.4231 142.088C86.4231 147.148 86.5936 153.164 86.5936 153.164L59.3886 143.254L57.9155 142.245L56.872 135.425L52.098 133.638L50.468 132.479L49.5814 133.604L54.0895 137.764L45.694 131.326L44.6779 133.338L48.0879 139.776L54.9692 145.368L56.7015 146.521L94.3138 158.64L86.4231 142.088Z" fill="white"/>
</g>
</g>
<path d="M98.6513 116.99C98.6513 116.99 103.487 120.284 103.596 128.066C103.644 131.476 103.289 134.661 102.505 140.247C101.72 145.832 96.8508 164.021 93.0589 166.231C89.267 168.44 83.3814 164.267 83.3814 164.267L54.9147 145.368L48.0333 139.81L44.6233 133.372L45.694 131.326L54.0894 137.764L49.5678 133.583L50.4544 132.458L52.0912 133.597L56.8652 135.384L57.9087 142.204L59.3818 143.213L86.614 153.164C86.614 153.164 86.273 138.507 86.5254 135.704C86.7777 132.901 87.1255 125.856 90.1263 120.748" stroke="#263238" stroke-width="1.00396" stroke-miterlimit="10"/>
<path d="M86.614 153.164L97.0077 160.666L99.7015 155.892C99.7015 155.892 101.563 154.425 101.836 153.32C102.109 152.216 101.761 150.422 102.041 149.317C102.32 148.212 103.712 147.176 103.841 144.502C103.971 141.829 103.841 139.599 103.841 139.599C103.841 139.599 106.092 130.344 105.846 126.32C105.601 122.296 101.72 115.183 98.6103 115.026C95.5004 114.869 91.4562 115.34 88.319 120.087C85.1818 124.833 85.8228 138.692 85.3318 139.558C84.8408 140.424 85.5228 144.7 85.5228 144.7C85.2502 144.903 85.0241 145.162 84.8594 145.46C84.6948 145.757 84.5954 146.087 84.568 146.425C84.5134 147.537 85.7137 150.272 85.7137 150.272L86.614 153.164Z" fill="white" stroke="#263238" stroke-width="1.00396" stroke-miterlimit="10"/>
<g style="mix-blend-mode:multiply">
<path d="M85.6047 135.998C85.6261 137.188 85.537 138.377 85.3387 139.551C84.9022 140.328 85.4001 143.841 85.5092 144.557C91.3551 146.373 97.5368 146.839 103.589 145.921C103.719 145.446 103.797 144.959 103.821 144.468C103.957 141.801 103.821 139.565 103.821 139.565C103.821 139.565 104.019 138.739 104.291 137.484C98.0235 137.883 91.7308 137.382 85.6047 135.998Z" fill="url(#paint24_linear_121_1525)"/>
</g>
<g style="mix-blend-mode:multiply">
<path d="M87.8961 120.844C86.9208 122.801 86.3752 125.74 86.0615 128.721C92.2528 131.084 98.9281 131.896 105.505 131.087C105.768 129.51 105.884 127.912 105.853 126.313C105.735 125.05 105.436 123.809 104.967 122.63C99.2235 122.765 93.4869 122.164 87.8961 120.844Z" fill="url(#paint25_linear_121_1525)"/>
</g>
<path d="M85.7139 150.347L86.5936 153.164L96.9873 160.666L99.6812 155.892C99.6812 155.892 101.543 154.425 101.816 153.32C101.865 153.128 101.894 152.932 101.905 152.734C96.4273 152.639 90.9853 151.837 85.7139 150.347Z" fill="#263238"/>
<path d="M93.2362 285.137C93.2362 285.137 93.4681 279.231 94.6002 270.597C95.7323 261.963 93.0112 249.701 92.5542 247.655C92.0973 245.609 92.7861 241.067 92.3292 239.471C91.8722 237.875 89.6625 231.068 90.9652 223.171C92.2678 215.273 93.3249 194.397 93.3249 194.397C93.3249 194.397 90.0445 191.731 89.0828 188.259C88.1212 184.788 88.8578 183.697 88.8578 183.697" stroke="#263238" stroke-width="1.00396" stroke-miterlimit="10"/>
<path d="M94.7571 184.017L93.4954 191.001" stroke="#263238" stroke-width="1.00396" stroke-miterlimit="10"/>
<defs>
<linearGradient id="paint0_linear_121_1525" x1="168.904" y1="29.8826" x2="168.904" y2="275.284" gradientUnits="userSpaceOnUse">
<stop stop-color="#174884"/>
<stop offset="1" stop-color="#141645"/>
</linearGradient>
<linearGradient id="paint1_linear_121_1525" x1="149.91" y1="285.362" x2="149.91" y2="298.498" gradientUnits="userSpaceOnUse">
<stop stop-color="#174884"/>
<stop offset="1" stop-color="#141645"/>
</linearGradient>
<linearGradient id="paint2_linear_121_1525" x1="157.626" y1="111.758" x2="194.633" y2="148.766" gradientUnits="userSpaceOnUse">
<stop stop-color="#174884"/>
<stop offset="1" stop-color="#141645"/>
</linearGradient>
<linearGradient id="paint3_linear_121_1525" x1="176.13" y1="250.362" x2="176.13" y2="252.715" gradientUnits="userSpaceOnUse">
<stop stop-color="#174884"/>
<stop offset="1" stop-color="#141645"/>
</linearGradient>
<linearGradient id="paint4_linear_121_1525" x1="176.13" y1="171" x2="176.13" y2="185.097" gradientUnits="userSpaceOnUse">
<stop stop-color="#174884"/>
<stop offset="1" stop-color="#141645"/>
</linearGradient>
<linearGradient id="paint5_linear_121_1525" x1="176.13" y1="197.507" x2="176.13" y2="211.604" gradientUnits="userSpaceOnUse">
<stop stop-color="#174884"/>
<stop offset="1" stop-color="#141645"/>
</linearGradient>
<linearGradient id="paint6_linear_121_1525" x1="176.127" y1="69.9323" x2="176.127" y2="77.4956" gradientUnits="userSpaceOnUse">
<stop stop-color="#174884"/>
<stop offset="1" stop-color="#141645"/>
</linearGradient>
<linearGradient id="paint7_linear_121_1525" x1="176.127" y1="52.4253" x2="176.127" y2="55.999" gradientUnits="userSpaceOnUse">
<stop stop-color="#174884"/>
<stop offset="1" stop-color="#141645"/>
</linearGradient>
<linearGradient id="paint8_linear_121_1525" x1="176.126" y1="268.865" x2="176.126" y2="283.187" gradientUnits="userSpaceOnUse">
<stop stop-color="#174884"/>
<stop offset="1" stop-color="#141645"/>
</linearGradient>
<linearGradient id="paint9_linear_121_1525" x1="176.133" y1="272.404" x2="176.133" y2="279.661" gradientUnits="userSpaceOnUse">
<stop stop-color="#174884"/>
<stop offset="1" stop-color="#141645"/>
</linearGradient>
<linearGradient id="paint10_linear_121_1525" x1="266.915" y1="161.767" x2="266.915" y2="263.879" gradientUnits="userSpaceOnUse">
<stop stop-color="#174884"/>
<stop offset="1" stop-color="#141645"/>
</linearGradient>
<linearGradient id="paint11_linear_121_1525" x1="267.84" y1="172.23" x2="267.84" y2="278.706" gradientUnits="userSpaceOnUse">
<stop stop-color="#174884"/>
<stop offset="1" stop-color="#141645"/>
</linearGradient>
<linearGradient id="paint12_linear_121_1525" x1="247.842" y1="266.682" x2="247.842" y2="292.483" gradientUnits="userSpaceOnUse">
<stop stop-color="#174884"/>
<stop offset="1" stop-color="#141645"/>
</linearGradient>
<linearGradient id="paint13_linear_121_1525" x1="56.0025" y1="131.94" x2="56.0025" y2="134.361" gradientUnits="userSpaceOnUse">
<stop stop-color="#174884"/>
<stop offset="1" stop-color="#141645"/>
</linearGradient>
<linearGradient id="paint14_linear_121_1525" x1="84.7249" y1="108.111" x2="84.7249" y2="119.139" gradientUnits="userSpaceOnUse">
<stop stop-color="#174884"/>
<stop offset="1" stop-color="#141645"/>
</linearGradient>
<linearGradient id="paint15_linear_121_1525" x1="89.7035" y1="287.524" x2="89.7035" y2="291.896" gradientUnits="userSpaceOnUse">
<stop stop-color="#174884"/>
<stop offset="1" stop-color="#141645"/>
</linearGradient>
<linearGradient id="paint16_linear_121_1525" x1="86.6733" y1="291.603" x2="86.6733" y2="293.759" gradientUnits="userSpaceOnUse">
<stop stop-color="#174884"/>
<stop offset="1" stop-color="#141645"/>
</linearGradient>
<linearGradient id="paint17_linear_121_1525" x1="87.3626" y1="177.729" x2="87.3626" y2="282.157" gradientUnits="userSpaceOnUse">
<stop stop-color="#174884"/>
<stop offset="1" stop-color="#141645"/>
</linearGradient>
<linearGradient id="paint18_linear_121_1525" x1="92.3868" y1="175.268" x2="92.3868" y2="285.742" gradientUnits="userSpaceOnUse">
<stop stop-color="#174884"/>
<stop offset="1" stop-color="#141645"/>
</linearGradient>
<linearGradient id="paint19_linear_121_1525" x1="94.781" y1="137.771" x2="94.781" y2="150.927" gradientUnits="userSpaceOnUse">
<stop stop-color="#174884"/>
<stop offset="1" stop-color="#141645"/>
</linearGradient>
<linearGradient id="paint20_linear_121_1525" x1="94.0547" y1="110.3" x2="94.0547" y2="126.17" gradientUnits="userSpaceOnUse">
<stop stop-color="#174884"/>
<stop offset="1" stop-color="#141645"/>
</linearGradient>
<linearGradient id="paint21_linear_121_1525" x1="95.0674" y1="123.81" x2="95.0674" y2="137.539" gradientUnits="userSpaceOnUse">
<stop stop-color="#174884"/>
<stop offset="1" stop-color="#141645"/>
</linearGradient>
<linearGradient id="paint22_linear_121_1525" x1="93.3182" y1="164.846" x2="93.3182" y2="176.148" gradientUnits="userSpaceOnUse">
<stop stop-color="#174884"/>
<stop offset="1" stop-color="#141645"/>
</linearGradient>
<linearGradient id="paint23_linear_121_1525" x1="94.399" y1="153.389" x2="94.399" y2="165.022" gradientUnits="userSpaceOnUse">
<stop stop-color="#174884"/>
<stop offset="1" stop-color="#141645"/>
</linearGradient>
<linearGradient id="paint24_linear_121_1525" x1="94.7269" y1="135.998" x2="94.7269" y2="146.379" gradientUnits="userSpaceOnUse">
<stop stop-color="#174884"/>
<stop offset="1" stop-color="#141645"/>
</linearGradient>
<linearGradient id="paint25_linear_121_1525" x1="95.9598" y1="120.844" x2="95.9598" y2="131.391" gradientUnits="userSpaceOnUse">
<stop stop-color="#174884"/>
<stop offset="1" stop-color="#141645"/>
</linearGradient>
</defs>
</svg>
