<svg width="330" height="330" viewBox="0 0 330 330" fill="none" xmlns="http://www.w3.org/2000/svg">
<path d="M286.935 263.003H48.8862C48.8862 263.003 39.4218 266.092 34.2012 241.514C28.9806 216.935 55.8492 210.349 62.238 189.123C68.6268 167.897 40.755 172.366 43.098 143.319C45.441 114.272 83.7408 113.711 102.32 117.625C120.899 121.539 118.576 108.128 140.059 85.7802C161.542 63.4326 194.04 65.6766 210.289 82.9884C226.538 100.3 221.324 118.18 241.646 118.18C261.967 118.18 280.546 122.093 292.736 159.515C304.927 196.937 282.645 214.045 283.048 230.914C283.388 241.705 284.689 252.444 286.935 263.003Z" fill="url(#paint0_linear_78_477)"/>
<path opacity="0.6" d="M286.935 263.003H48.8862C48.8862 263.003 39.4218 266.092 34.2012 241.514C28.9806 216.935 55.8492 210.349 62.238 189.123C68.6268 167.897 40.755 172.366 43.098 143.319C45.441 114.272 83.7408 113.711 102.32 117.625C120.899 121.539 118.576 108.128 140.059 85.7802C161.542 63.4326 194.04 65.6766 210.289 82.9884C226.538 100.3 221.324 118.18 241.646 118.18C261.967 118.18 280.546 122.093 292.736 159.515C304.927 196.937 282.645 214.045 283.048 230.914C283.388 241.705 284.689 252.444 286.935 263.003Z" fill="white"/>
<path d="M183.038 82.302H138.158V146.982H183.038V82.302Z" fill="url(#paint1_linear_78_477)"/>
<path opacity="0.4" d="M183.038 82.302H138.158V146.982H183.038V82.302Z" fill="white"/>
<path d="M176.629 91.542H144.573V137.742H176.629V91.542Z" fill="white"/>
<path d="M102.419 121.024H71.28V165.904H102.419V121.024Z" fill="url(#paint2_linear_78_477)"/>
<path opacity="0.4" d="M102.419 121.024H71.28V165.904H102.419V121.024Z" fill="white"/>
<path d="M97.9704 127.433H75.7284V159.489H97.9704V127.433Z" fill="white"/>
<path d="M253.559 121.024H222.42V165.904H253.559V121.024Z" fill="url(#paint3_linear_78_477)"/>
<path opacity="0.4" d="M253.559 121.024H222.42V165.904H253.559V121.024Z" fill="white"/>
<path d="M249.11 127.433H226.868V159.489H249.11V127.433Z" fill="white"/>
<path d="M218.876 210.811C217.556 214.111 216.157 211.471 216.374 197.571C216.48 191.063 216.935 177.771 224.136 180.695C231.046 183.506 221.938 203.168 221.938 203.168L218.876 210.811ZM228.776 212.791C228.776 212.791 243.778 197.155 238.148 192.251C232.294 187.143 227.542 199.571 225.331 205.696C220.618 218.757 221.054 221.72 223.397 219.021L228.776 212.791ZM231.937 226.822C231.937 226.822 245.672 217.041 242.081 212.474C238.346 207.722 232.914 216.539 230.333 220.895C224.836 230.201 224.743 232.531 226.921 230.795L231.937 226.822ZM235.653 240.814C235.653 240.814 249.394 231.033 245.804 226.466C242.062 221.714 236.63 230.525 234.056 234.887C228.558 244.187 228.459 246.523 230.644 244.787L235.653 240.814ZM211.669 212.685C211.669 212.685 192.443 202.679 189.321 209.458C186.067 216.513 199.327 217.582 205.821 217.978C219.681 218.836 222.407 217.582 219.16 216.091L211.669 212.685ZM214.375 223.694C214.375 223.694 193.545 217.714 191.829 224.981C190.047 232.538 203.254 230.921 209.702 230.05C223.456 228.136 225.872 226.367 222.394 225.548L214.375 223.694ZM219.14 235.706C219.14 235.706 201.392 231.125 200.105 237.31C198.785 243.745 209.906 242.095 215.338 241.184C226.921 239.243 228.928 237.692 225.971 237.085L219.14 235.706ZM221.918 245.606C221.918 245.606 204.758 239.164 202.825 245.177C200.812 251.44 212.065 250.978 217.556 250.648C229.284 249.949 231.416 248.622 228.558 247.698L221.918 245.606ZM210.415 195.36C210.415 195.36 202.58 171.006 193.684 175.435C184.444 180.055 195.122 191.017 200.475 196.277C211.886 207.497 215.417 208.276 213.919 204.362L210.415 195.36Z" fill="white"/>
<path d="M197.406 184.14C197.406 184.14 217.087 208.151 221.793 220.169C227.205 233.983 230.888 249.539 231.62 262.409" stroke="#CCCCCC" stroke-width="1.25197" stroke-linecap="round" stroke-linejoin="round"/>
<path d="M217.873 212.322L220.612 189.427" stroke="#CCCCCC" stroke-width="1.25197" stroke-linecap="round" stroke-linejoin="round"/>
<path d="M221.793 220.163L231.693 200.917" stroke="#CCCCCC" stroke-width="1.25197" stroke-linecap="round" stroke-linejoin="round"/>
<path d="M220.348 217.312L199.61 213.088" stroke="#CCCCCC" stroke-width="1.25197" stroke-linecap="round" stroke-linejoin="round"/>
<path d="M225.687 231.086L237.877 217.199" stroke="#CCCCCC" stroke-width="1.25197" stroke-linecap="round" stroke-linejoin="round"/>
<path d="M223.984 226.512L208.336 226.373" stroke="#CCCCCC" stroke-width="1.25197" stroke-linecap="round" stroke-linejoin="round"/>
<path d="M227 237.877L214.995 238.346" stroke="#CCCCCC" stroke-width="1.25197" stroke-linecap="round" stroke-linejoin="round"/>
<path d="M229.462 245.124L235.891 236.557" stroke="#CCCCCC" stroke-width="1.25197" stroke-linecap="round" stroke-linejoin="round"/>
<path d="M229.937 248.312L215.893 247.612" stroke="#CCCCCC" stroke-width="1.25197" stroke-linecap="round" stroke-linejoin="round"/>
<path d="M269.049 229.772C266.627 230.683 267.366 228.644 274.857 221.938C278.368 218.79 285.668 212.5 287.648 217.767C289.555 222.829 274.619 227.667 274.619 227.667L269.049 229.772ZM272.857 235.996C272.857 235.996 288.552 236.293 288.394 230.888C288.229 225.265 279.286 228.842 274.943 230.677C265.703 234.59 264.31 236.28 266.897 236.201L272.857 235.996ZM266.95 244.576C266.95 244.576 278.903 247.078 279.569 242.92C280.229 238.597 272.897 240.042 269.313 240.814C261.664 242.458 260.377 243.553 262.363 243.87L266.95 244.576ZM261.36 253.44C261.36 253.44 273.319 255.941 273.979 251.783C274.672 247.46 267.313 248.899 263.723 249.671C256.08 251.315 254.76 252.41 256.74 252.727L261.36 253.44ZM264.535 226.855C264.535 226.855 260.403 211.708 255.295 213.378C249.942 215.114 255.895 222.697 258.878 226.347C265.234 234.142 267.241 234.973 266.435 232.511L264.535 226.855ZM260.007 233.706C260.007 233.706 252.952 219.688 248.246 222.341C243.342 225.113 250.681 231.356 254.324 234.34C262.106 240.715 264.224 241.131 262.964 238.88L260.007 233.706ZM255.961 242.141C255.961 242.141 249.671 230.452 245.751 232.808C241.672 235.264 248.021 240.372 251.176 242.814C257.902 248.021 259.71 248.325 258.581 246.451L255.961 242.141ZM252.054 248.497C252.054 248.497 247.038 236.201 242.893 238.128C238.577 240.108 244.345 245.89 247.223 248.655C253.361 254.549 255.143 255.044 254.206 253.057L252.054 248.497ZM273.115 217.694C273.115 217.694 282.216 201.557 275.491 199.003C268.495 196.363 267.907 207.431 267.742 212.863C267.386 224.453 268.706 226.723 270.052 223.991L273.115 217.694Z" fill="white"/>
<path d="M272.679 205.26C272.679 205.26 269.584 227.528 265.505 235.943C260.819 245.606 253.744 255.895 247.249 262.614" stroke="#CCCCCC" stroke-width="1.25197" stroke-linecap="round" stroke-linejoin="round"/>
<path d="M267.749 229.984L281.272 220.189" stroke="#CCCCCC" stroke-width="1.25197" stroke-linecap="round" stroke-linejoin="round"/>
<path d="M265.505 235.924L280.606 231.726" stroke="#CCCCCC" stroke-width="1.25197" stroke-linecap="round" stroke-linejoin="round"/>
<path d="M266.31 233.752L258.364 220.645" stroke="#CCCCCC" stroke-width="1.25197" stroke-linecap="round" stroke-linejoin="round"/>
<path d="M261.611 243.362L274.989 243.019" stroke="#CCCCCC" stroke-width="1.25197" stroke-linecap="round" stroke-linejoin="round"/>
<path d="M263.208 240.207L255.585 231.812" stroke="#CCCCCC" stroke-width="1.25197" stroke-linecap="round" stroke-linejoin="round"/>
<path d="M258.641 247.394L252.49 241.243" stroke="#CCCCCC" stroke-width="1.25197" stroke-linecap="round" stroke-linejoin="round"/>
<path d="M255.994 252.272L263.716 251.48" stroke="#CCCCCC" stroke-width="1.25197" stroke-linecap="round" stroke-linejoin="round"/>
<path d="M254.529 254.087L248.002 246.279" stroke="#CCCCCC" stroke-width="1.25197" stroke-linecap="round" stroke-linejoin="round"/>
<path d="M66.7986 210.811C65.4785 214.111 64.0793 211.471 64.2971 197.571C64.4028 191.064 64.8582 177.771 72.0588 180.695C78.9756 183.507 69.861 203.168 69.861 203.168L66.7986 210.811ZM76.6986 212.791C76.6986 212.791 91.7004 197.155 86.0772 192.252C80.2164 187.143 75.4644 199.571 73.2533 205.696C68.541 218.757 68.9766 221.721 71.3195 219.021L76.6986 212.791ZM79.86 226.809C79.86 226.809 93.6012 217.028 90.0042 212.461C86.2685 207.709 80.8368 216.526 78.2562 220.882C72.7584 230.188 72.666 232.518 74.8506 230.782L79.86 226.809ZM83.5824 240.801C83.5824 240.801 97.3038 231 93.72 226.453C89.9778 221.701 84.546 230.512 81.972 234.874C76.4742 244.174 76.3752 246.51 78.5597 244.774L83.5824 240.801ZM59.5781 212.672C59.5781 212.672 40.3589 202.666 37.2305 209.445C33.9767 216.5 47.2362 217.569 53.7306 217.965C67.5906 218.823 70.3098 217.569 67.0626 216.078L59.5781 212.672ZM62.2842 223.681C62.2842 223.681 41.4611 217.701 39.7385 224.968C37.9565 232.525 51.1631 230.908 57.6114 230.037C71.3657 228.123 73.788 226.354 70.3097 225.535L62.2842 223.681ZM67.0493 235.693C67.0493 235.693 49.3019 231.112 48.0149 237.297C46.6949 243.732 57.816 242.082 63.2478 241.171C74.8308 239.23 76.8372 237.679 73.8804 237.072L67.0493 235.693ZM69.828 245.593C69.828 245.593 52.668 239.151 50.7342 245.164C48.7212 251.427 59.9742 250.965 65.4654 250.635C77.1936 249.936 79.3254 248.609 76.4742 247.685L69.828 245.593ZM58.3374 195.36C58.3374 195.36 50.5031 171.033 41.5799 175.461C32.3399 180.081 43.0187 191.044 48.3714 196.304C59.7894 207.524 63.3204 208.303 61.8156 204.389L58.3374 195.36Z" fill="white"/>
<path d="M45.3287 184.14C45.3287 184.14 65.0099 208.151 69.7157 220.169C75.1277 233.983 78.8105 249.539 79.5431 262.409" stroke="#CCCCCC" stroke-width="1.25197" stroke-linecap="round" stroke-linejoin="round"/>
<path d="M65.802 212.322L68.5344 189.427" stroke="#CCCCCC" stroke-width="1.25197" stroke-linecap="round" stroke-linejoin="round"/>
<path d="M69.7157 220.163L79.6157 200.917" stroke="#CCCCCC" stroke-width="1.25197" stroke-linecap="round" stroke-linejoin="round"/>
<path d="M68.2704 217.312L47.5398 213.088" stroke="#CCCCCC" stroke-width="1.25197" stroke-linecap="round" stroke-linejoin="round"/>
<path d="M73.6097 231.086L85.7999 217.199" stroke="#CCCCCC" stroke-width="1.25197" stroke-linecap="round" stroke-linejoin="round"/>
<path d="M71.9069 226.512L56.2583 226.373" stroke="#CCCCCC" stroke-width="1.25197" stroke-linecap="round" stroke-linejoin="round"/>
<path d="M74.9231 237.877L62.9177 238.346" stroke="#CCCCCC" stroke-width="1.25197" stroke-linecap="round" stroke-linejoin="round"/>
<path d="M77.3916 245.124L83.82 236.557" stroke="#CCCCCC" stroke-width="1.25197" stroke-linecap="round" stroke-linejoin="round"/>
<path d="M77.8601 248.312L63.8153 247.612" stroke="#CCCCCC" stroke-width="1.25197" stroke-linecap="round" stroke-linejoin="round"/>
<path d="M116.972 229.772C114.55 230.683 115.289 228.644 122.78 221.938C126.298 218.79 133.591 212.5 135.571 217.767C137.478 222.829 122.542 227.667 122.542 227.667L116.972 229.772ZM120.78 235.996C120.78 235.996 136.475 236.293 136.316 230.888C136.151 225.265 127.208 228.842 122.866 230.677C113.626 234.59 112.233 236.28 114.82 236.201L120.78 235.996ZM114.873 244.576C114.873 244.576 126.826 247.078 127.492 242.92C128.152 238.597 120.82 240.042 117.236 240.814C109.56 242.458 108.299 243.54 110.286 243.87L114.873 244.576ZM109.256 253.44C109.256 253.44 121.216 255.941 121.876 251.783C122.569 247.46 115.21 248.899 111.626 249.671C103.97 251.321 102.683 252.417 104.676 252.734L109.256 253.44ZM112.431 226.855C112.431 226.855 108.306 211.708 103.191 213.378C97.8384 215.114 103.785 222.697 106.768 226.347C113.124 234.142 115.13 234.973 114.325 232.511L112.431 226.855ZM107.903 233.706C107.903 233.706 100.848 219.688 96.1422 222.341C91.2384 225.113 98.5776 231.356 102.227 234.34C110.009 240.715 112.127 241.131 110.86 238.88L107.903 233.706ZM103.858 242.141C103.858 242.141 97.5678 230.452 93.6474 232.808C89.5686 235.264 95.9178 240.372 99.0726 242.814C105.798 248.021 107.613 248.325 106.478 246.451L103.858 242.141ZM99.9504 248.497C99.9504 248.497 94.941 236.201 90.7896 238.128C86.4732 240.108 92.2482 245.89 95.1192 248.655C101.257 254.549 103.039 255.044 102.102 253.057L99.9504 248.497ZM121.011 217.694C121.011 217.694 130.119 201.557 123.394 199.003C116.391 196.363 115.81 207.431 115.639 212.863C115.289 224.453 116.602 226.723 117.949 223.991L121.011 217.694Z" fill="white"/>
<path d="M120.602 205.26C120.602 205.26 117.506 227.528 113.428 235.943C108.742 245.606 101.666 255.895 95.172 262.614" stroke="#CCCCCC" stroke-width="1.25197" stroke-linecap="round" stroke-linejoin="round"/>
<path d="M115.672 229.984L129.195 220.189" stroke="#CCCCCC" stroke-width="1.25197" stroke-linecap="round" stroke-linejoin="round"/>
<path d="M113.428 235.924L128.528 231.726" stroke="#CCCCCC" stroke-width="1.25197" stroke-linecap="round" stroke-linejoin="round"/>
<path d="M114.233 233.752L106.286 220.645" stroke="#CCCCCC" stroke-width="1.25197" stroke-linecap="round" stroke-linejoin="round"/>
<path d="M109.534 243.362L122.912 243.019" stroke="#CCCCCC" stroke-width="1.25197" stroke-linecap="round" stroke-linejoin="round"/>
<path d="M111.131 240.207L103.508 231.812" stroke="#CCCCCC" stroke-width="1.25197" stroke-linecap="round" stroke-linejoin="round"/>
<path d="M106.564 247.394L100.412 241.243" stroke="#CCCCCC" stroke-width="1.25197" stroke-linecap="round" stroke-linejoin="round"/>
<path d="M103.917 252.272L111.639 251.48" stroke="#CCCCCC" stroke-width="1.25197" stroke-linecap="round" stroke-linejoin="round"/>
<path d="M102.458 254.087L95.9243 246.279" stroke="#CCCCCC" stroke-width="1.25197" stroke-linecap="round" stroke-linejoin="round"/>
<path d="M154.75 126.522C154.75 126.522 146.302 123.829 139.841 130.482C133.379 137.135 136.785 150.421 136.785 155.087C136.785 159.753 130.845 189.407 130.845 189.407C130.845 189.407 127.967 200.185 135.874 207.016C143.781 213.847 158.393 213.253 164.63 200.105C170.867 186.958 164.254 168.214 164.254 158.525C164.254 148.837 165.693 142.362 163.535 135.359C162.88 133.294 161.741 131.414 160.213 129.877C158.685 128.34 156.812 127.19 154.75 126.522Z" fill="#263238" stroke="#263238" stroke-linecap="round" stroke-linejoin="round"/>
<path d="M152.242 131.558C152.242 131.558 144.098 141.682 138.6 144.54" stroke="white" stroke-linecap="round" stroke-linejoin="round"/>
<path d="M145.2 130.68C145.2 130.68 141.022 140.798 137.28 143.662" stroke="white" stroke-linecap="round" stroke-linejoin="round"/>
<path d="M168.637 165.482C169.417 166.029 170.072 166.735 170.559 167.554C171.046 168.374 171.354 169.287 171.462 170.234C171.943 173.6 168.353 181.381 167.634 185.229C166.954 189.9 166.515 194.604 166.32 199.32C166.32 200.521 170.412 218.315 171.132 222.644C171.851 226.974 170.768 237.164 170.168 237.91C169.567 238.656 167.884 235.145 167.766 232.861C167.647 230.578 163.198 213.022 161.515 207.735C159.832 202.448 160.308 195.472 160.308 195.472C160.308 195.472 162.598 179.48 162.598 173.349C162.598 167.218 162.783 162.631 162.783 162.631L168.637 165.482Z" fill="url(#paint4_linear_78_477)" stroke="#263238" stroke-linecap="round" stroke-linejoin="round"/>
<path d="M170.155 237.884C170.755 237.164 171.838 226.941 171.118 222.618C170.399 218.295 166.32 200.495 166.32 199.32C166.518 194.612 166.959 189.918 167.64 185.255C167.904 184.021 168.244 182.805 168.657 181.612C167.242 182.293 165.692 182.645 164.122 182.642C163.284 182.642 162.466 183.414 161.68 184.727C161.02 190.311 160.301 195.472 160.301 195.472C160.301 195.472 159.826 202.442 161.509 207.735C163.192 213.028 167.64 230.578 167.759 232.861C167.878 235.145 169.554 238.603 170.155 237.884Z" fill="white" stroke="#263238" stroke-linecap="round" stroke-linejoin="round"/>
<path d="M146.018 263.129C146.282 260.172 146.837 254.153 147.193 251.83C147.675 248.708 148.632 242.332 148.632 242.332L151.067 263.129H167.752C168.353 258.595 169.864 246.437 170.155 237.884C170.518 227.185 162.459 205.062 162.235 203.379C162.01 201.696 162.472 196.779 162.472 195.327C162.472 193.875 166.67 184.661 167.026 179.969C167.383 175.276 168.472 173.837 168.472 173.837L169.072 165.917C168.709 165.799 163.317 161.555 157.905 159.977C154.614 159.043 151.139 158.962 147.807 159.74C147.807 159.74 139.993 163.225 136.026 164.908C132.059 166.591 128.799 169.838 128.7 174.042C128.601 178.246 136.389 196.165 137.115 197.492C137.841 198.818 135.551 203.498 134.587 205.907C133.624 208.316 129.657 216.968 127.017 226.585C124.753 234.795 126.265 256.859 126.76 263.129H146.018Z" fill="url(#paint5_linear_78_477)" stroke="#263238" stroke-linecap="round" stroke-linejoin="round"/>
<path d="M149.767 194.172C149.767 194.172 155.932 194.911 162.103 188.991" stroke="#263238" stroke-linecap="round" stroke-linejoin="round"/>
<path d="M154.044 176.933C155.846 176.451 158.136 169.013 158.374 165.152C158.506 162.994 158.638 161.383 158.578 160.195C158.354 160.123 158.123 160.043 157.918 159.977C154.627 159.043 151.152 158.962 147.82 159.74L144.639 161.152C144.373 162.862 144.558 164.611 145.174 166.228C146.474 169.838 152.242 177.415 154.044 176.933Z" fill="white" stroke="#263238" stroke-linecap="round" stroke-linejoin="round"/>
<path d="M145.992 156.05C145.992 156.05 146.599 163.132 146.962 164.868C147.325 166.604 150.975 173.448 153.041 173.072C155.107 172.696 156.42 163.753 156.42 162.881C156.42 162.01 156.664 154.961 156.664 154.961C156.664 154.961 152.315 158.532 145.992 156.05Z" fill="white" stroke="#263238" stroke-linecap="round" stroke-linejoin="round"/>
<path d="M134.086 166.109C134.086 166.109 129.162 166.353 126.397 171.884C123.631 177.415 126.872 181.124 127.954 183.302C129.037 185.48 132.046 194.363 133.003 197.01C133.96 199.657 135.894 202.778 139.26 207.108C142.626 211.438 149.714 220.691 149.714 220.691L151.642 224.057C151.642 224.057 154.889 227.786 155.245 227.905C155.602 228.023 157.773 230.789 158.611 229.106C159.449 227.423 158.611 221.417 158.611 221.417C158.611 221.417 159.931 224.057 160.42 223.456C160.908 222.856 160.294 221.536 159.819 220.09C159.344 218.645 154.895 215.886 153.925 215.761C152.955 215.635 151.76 214.441 150.322 211.556C148.883 208.672 147.794 203.636 145.51 200.614C143.227 197.591 140.23 193.162 140.23 193.162C140.23 193.162 136.864 181.137 136.864 180.655C137.11 178.41 136.781 176.139 135.907 174.055" fill="url(#paint6_linear_78_477)"/>
<path d="M134.086 166.109C134.086 166.109 129.162 166.353 126.397 171.884C123.631 177.415 126.872 181.124 127.954 183.302C129.037 185.48 132.046 194.363 133.003 197.01C133.96 199.657 135.894 202.778 139.26 207.108C142.626 211.438 149.714 220.691 149.714 220.691L151.642 224.057C151.642 224.057 154.889 227.786 155.245 227.905C155.602 228.023 157.773 230.789 158.611 229.106C159.449 227.423 158.611 221.417 158.611 221.417C158.611 221.417 159.931 224.057 160.42 223.456C160.908 222.856 160.294 221.536 159.819 220.09C159.344 218.645 154.895 215.886 153.925 215.761C152.955 215.635 151.76 214.441 150.322 211.556C148.883 208.672 147.794 203.636 145.51 200.614C143.227 197.591 140.23 193.162 140.23 193.162C140.23 193.162 136.864 181.137 136.864 180.655C137.11 178.41 136.781 176.139 135.907 174.055" stroke="#263238" stroke-linecap="round" stroke-linejoin="round"/>
<path d="M153.925 215.761C152.962 215.642 151.76 214.441 150.322 211.556C148.883 208.672 147.794 203.636 145.51 200.614C143.227 197.591 140.23 193.162 140.23 193.162C140.23 193.162 137.953 185.018 137.148 181.87C132.726 181.249 129.809 182.14 127.954 183.275C129.037 185.44 132.046 194.337 133.003 196.984C133.96 199.63 135.894 202.752 139.26 207.082C142.626 211.411 149.714 220.664 149.714 220.664L151.642 224.03C151.642 224.03 154.889 227.759 155.245 227.878C155.602 227.997 157.773 230.762 158.611 229.079C159.449 227.396 158.611 221.39 158.611 221.39C158.611 221.39 159.931 224.03 160.42 223.43C160.908 222.829 160.294 221.509 159.819 220.064C159.344 218.618 154.895 215.886 153.925 215.761Z" fill="white" stroke="#263238" stroke-linecap="round" stroke-linejoin="round"/>
<path d="M146.018 263.129C146.282 260.172 146.837 254.153 147.193 251.83C147.675 248.708 148.632 242.332 148.632 242.332L151.067 263.129H167.752C168.353 258.595 169.864 246.437 170.155 237.884C170.306 233.429 168.993 226.987 167.396 220.869C153.292 223.958 137.3 221.72 128.997 220.11C128.297 222.176 127.611 224.347 127.017 226.585C124.753 234.795 126.265 256.859 126.76 263.129H146.018Z" fill="#263238" stroke="#263238" stroke-linecap="round" stroke-linejoin="round"/>
<path d="M141.814 145.504C141.814 145.504 140.738 145.022 140.738 147.18C140.738 149.338 143.134 150.77 143.134 150.77L141.814 145.504Z" fill="white" stroke="#263238" stroke-linecap="round" stroke-linejoin="round"/>
<path d="M154.163 133.65C154.163 133.65 150.322 139.062 146.949 141.227C145.209 142.371 143.404 143.413 141.544 144.349C141.544 144.349 143.227 151.325 143.946 153.589C144.666 155.852 146.824 159.852 151.153 160.09C155.483 160.327 157.41 155.753 158.255 153.589C158.736 152.47 158.994 151.268 159.014 150.051C159.621 149.667 160.14 149.157 160.534 148.556C160.927 147.955 161.188 147.277 161.297 146.566C161.535 144.283 160.934 144.401 160.934 144.401C160.934 144.401 160.274 145.147 158.842 144.025C157.681 143.161 153.78 136.897 154.163 133.65Z" fill="white" stroke="#263238" stroke-linecap="round" stroke-linejoin="round"/>
<path d="M144.995 147.319C144.995 147.319 146.692 146.078 149.173 147.319" stroke="#263238" stroke-linecap="round" stroke-linejoin="round"/>
<path d="M152.671 147.543C152.671 147.543 154.704 145.735 156.849 147.206" stroke="#263238" stroke-linecap="round" stroke-linejoin="round"/>
<path d="M144.659 144.606C144.659 144.606 145.563 142.916 148.619 143.708" stroke="#263238" stroke-linecap="round" stroke-linejoin="round"/>
<path d="M152.671 143.821C153.363 143.316 154.215 143.083 155.067 143.166C155.918 143.249 156.71 143.642 157.291 144.269" stroke="#263238" stroke-linecap="round" stroke-linejoin="round"/>
<path d="M152.335 151.265C152.335 151.265 150.526 152.506 149.741 151.265" stroke="#263238" stroke-linecap="round" stroke-linejoin="round"/>
<path d="M149.061 153.866C149.061 153.866 151.318 154.763 152.447 153.754" stroke="#263238" stroke-linecap="round" stroke-linejoin="round"/>
<path d="M110.913 218.744C110.913 218.744 116.193 230.465 117.454 232.828C118.714 235.191 120.179 241.916 120.358 245.909C120.536 249.902 120.358 250.727 119.453 250.635C118.549 250.543 118.18 245.546 118.18 244.728V243.461C118.18 243.461 117.724 248.18 116.998 249.091C116.272 250.001 115.269 250.998 115.183 250.457C115.097 249.916 115.361 248.998 115.724 247.639C115.944 246.593 116.006 245.521 115.909 244.457C115.909 244.457 115.361 246.998 114.094 247.909C112.827 248.82 111.454 249.183 111.91 248.457C112.365 247.731 113.546 246.913 113.817 246.002C114.004 245.168 114.097 244.316 114.094 243.461C114.094 243.461 112.365 246.272 111.639 246.728C110.913 247.183 110.913 246.187 111.368 245.731C111.824 245.276 112.82 242.187 112.82 242.187C112.82 242.187 112.543 242.002 111.276 239.191C110.009 236.379 109.296 231.462 108.913 229.555C108.53 227.647 107.824 225.106 107.824 225.106L100.828 213.385C100.828 213.385 100.28 210.566 102.914 210.085C105.547 209.603 110.913 218.744 110.913 218.744Z" fill="white"/>
<mask id="mask0_78_477" style="mask-type:luminance" maskUnits="userSpaceOnUse" x="100" y="210" width="21" height="41">
<path d="M110.913 218.744C110.913 218.744 116.193 230.465 117.454 232.828C118.714 235.191 120.179 241.916 120.358 245.909C120.536 249.902 120.358 250.727 119.453 250.635C118.549 250.543 118.18 245.546 118.18 244.728V243.461C118.18 243.461 117.724 248.18 116.998 249.091C116.272 250.001 115.269 250.998 115.183 250.457C115.097 249.916 115.361 248.998 115.724 247.639C115.944 246.593 116.006 245.521 115.909 244.457C115.909 244.457 115.361 246.998 114.094 247.909C112.827 248.82 111.454 249.183 111.91 248.457C112.365 247.731 113.546 246.913 113.817 246.002C114.004 245.168 114.097 244.316 114.094 243.461C114.094 243.461 112.365 246.272 111.639 246.728C110.913 247.183 110.913 246.187 111.368 245.731C111.824 245.276 112.82 242.187 112.82 242.187C112.82 242.187 112.543 242.002 111.276 239.191C110.009 236.379 109.296 231.462 108.913 229.555C108.53 227.647 107.824 225.106 107.824 225.106L100.828 213.385C100.828 213.385 100.28 210.566 102.914 210.085C105.547 209.603 110.913 218.744 110.913 218.744Z" fill="white"/>
</mask>
<g mask="url(#mask0_78_477)">
<path opacity="0.15" d="M110.913 218.744C110.913 218.744 116.193 230.465 117.454 232.828C118.714 235.191 120.179 241.916 120.358 245.909C120.536 249.902 120.358 250.727 119.453 250.635C118.549 250.543 118.18 245.546 118.18 244.728V243.461C118.18 243.461 117.724 248.18 116.998 249.091C116.272 250.001 115.269 250.998 115.183 250.457C115.097 249.916 115.361 248.998 115.724 247.639C115.944 246.593 116.006 245.521 115.909 244.457C115.909 244.457 115.361 246.998 114.094 247.909C112.827 248.82 111.454 249.183 111.91 248.457C112.365 247.731 113.546 246.913 113.817 246.002C114.004 245.168 114.097 244.316 114.094 243.461C114.094 243.461 112.365 246.272 111.639 246.728C110.913 247.183 110.913 246.187 111.368 245.731C111.824 245.276 112.82 242.187 112.82 242.187C112.82 242.187 112.543 242.002 111.276 239.191C110.009 236.379 109.296 231.462 108.913 229.555C108.53 227.647 107.824 225.106 107.824 225.106L100.828 213.385C100.828 213.385 100.28 210.566 102.914 210.085C105.547 209.603 110.913 218.744 110.913 218.744Z" fill="black"/>
</g>
<path d="M110.913 218.744C110.913 218.744 116.193 230.465 117.454 232.828C118.714 235.191 120.179 241.916 120.358 245.909C120.536 249.902 120.358 250.727 119.453 250.635C118.549 250.543 118.18 245.546 118.18 244.728V243.461C118.18 243.461 117.724 248.18 116.998 249.091C116.272 250.001 115.269 250.998 115.183 250.457C115.097 249.916 115.361 248.998 115.724 247.639C115.944 246.593 116.006 245.521 115.909 244.457C115.909 244.457 115.361 246.998 114.094 247.909C112.827 248.82 111.454 249.183 111.91 248.457C112.365 247.731 113.546 246.913 113.817 246.002C114.004 245.168 114.097 244.316 114.094 243.461C114.094 243.461 112.365 246.272 111.639 246.728C110.913 247.183 110.913 246.187 111.368 245.731C111.824 245.276 112.82 242.187 112.82 242.187C112.82 242.187 112.543 242.002 111.276 239.191C110.009 236.379 109.296 231.462 108.913 229.555C108.53 227.647 107.824 225.106 107.824 225.106L100.828 213.385C100.828 213.385 100.28 210.566 102.914 210.085C105.547 209.603 110.913 218.744 110.913 218.744Z" stroke="#263238" stroke-linecap="round" stroke-linejoin="round"/>
<path d="M117.48 236.28C117.48 236.28 118.391 240.735 118.298 242.728C118.206 244.721 118.661 245.731 118.021 245.731C117.381 245.731 117.209 245.276 116.569 243.276C116.148 241.793 115.874 240.272 115.751 238.735C115.751 238.735 113.48 238.735 112.662 235.369" fill="white"/>
<mask id="mask1_78_477" style="mask-type:luminance" maskUnits="userSpaceOnUse" x="112" y="235" width="7" height="11">
<path d="M117.48 236.28C117.48 236.28 118.391 240.735 118.298 242.728C118.206 244.721 118.661 245.731 118.021 245.731C117.381 245.731 117.209 245.276 116.569 243.276C116.148 241.793 115.874 240.272 115.751 238.735C115.751 238.735 113.48 238.735 112.662 235.369" fill="white"/>
</mask>
<g mask="url(#mask1_78_477)">
<path opacity="0.15" d="M117.48 236.28C117.48 236.28 118.391 240.735 118.298 242.728C118.206 244.721 118.661 245.731 118.021 245.731C117.381 245.731 117.209 245.276 116.569 243.276C116.148 241.793 115.874 240.272 115.751 238.735C115.751 238.735 113.48 238.735 112.662 235.369" fill="black"/>
</g>
<path d="M117.48 236.28C117.48 236.28 118.391 240.735 118.298 242.728C118.206 244.721 118.661 245.731 118.021 245.731C117.381 245.731 117.209 245.276 116.569 243.276C116.148 241.793 115.874 240.272 115.751 238.735C115.751 238.735 113.48 238.735 112.662 235.369" stroke="#263238" stroke-linecap="round" stroke-linejoin="round"/>
<path d="M76.923 263.129H110.372C110.537 256.872 111.632 216.005 111.962 214.177C112.325 212.197 114.121 193.519 114.299 186.16C114.477 178.801 111.243 168.194 111.243 167.475C111.243 166.756 110.708 162.268 105.679 158.492C100.65 154.717 96.6966 154.724 95.6208 155.258C95.6208 155.258 91.6608 157.958 85.3776 164.604C79.0944 171.25 76.9362 176.636 76.9362 186.872C76.941 193.068 77.482 199.251 78.5532 205.352C78.5532 205.352 76.5732 237.323 76.5732 238.042C76.5732 238.762 76.8636 258.859 76.923 263.129Z" fill="white" stroke="#263238" stroke-linecap="round" stroke-linejoin="round"/>
<path d="M92.103 190.859C92.813 190.857 93.5224 190.818 94.2282 190.74C101.924 189.902 108.616 182.035 113.032 175.237C112.827 174.253 112.622 173.309 112.418 172.445C108.253 179.236 101.521 187.955 94.017 188.773C83.5692 189.908 78.837 181.678 77.517 179.018C77.3322 180.035 77.1936 181.104 77.1012 182.233C79.4376 185.77 84.1566 190.859 92.103 190.859Z" fill="#263238"/>
<path d="M89.5951 174.979L91.5091 175.487C93.482 168.304 97.3585 161.787 102.729 156.625C102.09 156.288 101.428 155.994 100.749 155.747C95.4056 161.066 91.5584 167.7 89.5951 174.979Z" fill="#263238"/>
<path d="M91.4761 184.45C91.9249 184.219 101.277 179.348 111.151 166.63C110.997 165.833 110.754 165.056 110.425 164.314C100.485 177.514 90.6841 182.622 90.5785 182.675L91.4761 184.45Z" fill="#263238"/>
<path d="M81.7146 177.289L83.6946 176.992C83.6946 176.939 83.1204 172.26 87.7272 162.215C86.988 162.947 86.2158 163.739 85.3974 164.604C84.8694 165.158 84.381 165.706 83.9124 166.254C81.213 173.58 81.6882 177.091 81.7146 177.289Z" fill="#263238"/>
<path d="M98.0431 206.626C86.6647 208.105 80.8831 205.715 78.2959 203.881C78.4477 204.844 78.5533 205.379 78.5533 205.379C78.5533 205.379 78.5533 205.729 78.4939 206.362C81.0283 207.755 85.0939 209.075 91.3177 209.075C93.6532 209.065 95.9857 208.904 98.3005 208.593C103.545 207.919 108.587 206.137 113.091 203.366C113.17 202.534 113.243 201.683 113.316 200.818C108.75 203.924 103.519 205.913 98.0431 206.626Z" fill="#263238"/>
<path d="M97.4557 218.81C102.686 217.48 107.666 215.309 112.2 212.381C112.279 211.669 112.372 210.797 112.477 209.801C107.767 213.052 102.522 215.449 96.9805 216.883C89.3179 218.764 81.8797 216.665 77.9527 215.153C77.9131 215.813 77.8669 216.526 77.8273 217.239C81.8975 218.769 86.204 219.575 90.5521 219.622C92.8774 219.626 95.1949 219.354 97.4557 218.81Z" fill="#263238"/>
<path d="M76.9429 231.746C76.8967 232.459 76.8571 233.132 76.8241 233.726C81.9266 234.95 87.1528 235.586 92.4001 235.62C98.8522 235.69 105.258 234.53 111.276 232.201C111.276 231.475 111.322 230.749 111.342 230.043C98.0893 235.62 83.9125 233.442 76.9429 231.746Z" fill="#263238"/>
<path d="M98.9011 225.212C91.7983 226.933 84.3624 226.705 77.3784 224.552C77.3388 225.245 77.2927 225.931 77.2531 226.611C81.1023 227.788 85.108 228.373 89.1331 228.347C92.5787 228.343 96.0127 227.949 99.3696 227.172C103.623 226.186 107.731 224.656 111.593 222.618C111.593 221.8 111.652 221.021 111.679 220.295C107.672 222.527 103.37 224.182 98.9011 225.212Z" fill="#263238"/>
<path d="M93.357 197.34C85.239 197.749 79.992 194.753 77.0814 192.284C77.1276 193.195 77.187 194.08 77.253 194.924C81.5273 197.916 86.6428 199.469 91.8588 199.36C92.3802 199.36 92.9148 199.36 93.456 199.32C101.422 198.917 108.471 195.433 114.167 189.255C114.233 188.1 114.279 187.044 114.299 186.166V186.034C109.646 191.809 102.894 196.852 93.357 197.34Z" fill="#263238"/>
<path d="M106.841 159.456C106.478 159.133 106.102 158.796 105.679 158.492C100.65 154.724 96.6967 154.724 95.6209 155.258C93.5247 156.793 91.5397 158.473 89.6809 160.288C89.4921 161.097 89.4915 161.94 89.6791 162.75C89.8667 163.56 90.2376 164.316 90.7633 164.96C94.1755 169.27 105.283 185.797 108.187 182.206C111.091 178.616 110.339 168.736 107.105 160.109C107.026 159.885 106.92 159.667 106.841 159.456Z" fill="url(#paint7_linear_78_477)" stroke="#263238" stroke-linecap="round" stroke-linejoin="round"/>
<path d="M96.3601 178.431C96.3601 178.431 106.062 199.089 108.035 202.323C108.905 203.86 109.929 205.304 111.091 206.633C111.091 206.633 119.671 209.517 127.03 212.216C134.389 214.916 147.18 218.46 149.866 219.206C152.552 219.952 157.047 219.925 157.786 219.925C158.525 219.925 167.125 221.905 167.686 222.262C168.247 222.618 167.508 223.337 166.247 223.7C164.987 224.063 160.862 224.413 158.882 225.133C156.902 225.852 155.291 225.674 152.42 224.954C150.158 224.259 147.986 223.295 145.952 222.083C145.952 222.083 122.384 220.44 116.82 219.78C111.256 219.12 104.94 218.341 102.452 215.47C97.4584 209.833 92.85 203.867 88.6579 197.611C85.2787 192.502 79.0945 185.328 81.4375 178.827" fill="white"/>
<path d="M96.3601 178.431C96.3601 178.431 106.062 199.089 108.035 202.323C108.905 203.86 109.929 205.304 111.091 206.633C111.091 206.633 119.671 209.517 127.03 212.216C134.389 214.916 147.18 218.46 149.866 219.206C152.552 219.952 157.047 219.925 157.786 219.925C158.525 219.925 167.125 221.905 167.686 222.262C168.247 222.618 167.508 223.337 166.247 223.7C164.987 224.063 160.862 224.413 158.882 225.133C156.902 225.852 155.291 225.674 152.42 224.954C150.158 224.259 147.986 223.295 145.952 222.083C145.952 222.083 122.384 220.44 116.82 219.78C111.256 219.12 104.94 218.341 102.452 215.47C97.4584 209.833 92.85 203.867 88.6579 197.611C85.2787 192.502 79.0945 185.328 81.4375 178.827" stroke="#263238" stroke-linecap="round" stroke-linejoin="round"/>
<path d="M157.74 219.925C157.021 219.925 152.533 219.925 149.82 219.206C147.107 218.486 134.317 214.909 126.958 212.216C119.599 209.524 111.019 206.633 111.019 206.633C109.856 205.304 108.832 203.86 107.963 202.323C107.151 201.003 105.026 196.693 102.802 192.106C95.6406 193.981 92.037 197.386 90.2616 200.026C94.0121 205.391 98.0645 210.539 102.399 215.444C104.914 218.315 111.197 219.034 116.767 219.754C122.338 220.473 145.867 222.09 145.867 222.09C147.9 223.301 150.072 224.265 152.335 224.961C155.206 225.68 156.823 225.859 158.796 225.139C160.769 224.42 164.908 224.063 166.162 223.707C167.416 223.351 168.142 222.625 167.6 222.268C167.059 221.912 158.486 219.925 157.74 219.925Z" fill="white"/>
<mask id="mask2_78_477" style="mask-type:luminance" maskUnits="userSpaceOnUse" x="90" y="192" width="78" height="34">
<path d="M157.74 219.925C157.021 219.925 152.533 219.925 149.82 219.206C147.107 218.486 134.317 214.909 126.958 212.216C119.599 209.524 111.019 206.633 111.019 206.633C109.856 205.304 108.832 203.86 107.963 202.323C107.151 201.003 105.026 196.693 102.802 192.106C95.6406 193.981 92.037 197.386 90.2616 200.026C94.0121 205.391 98.0645 210.539 102.399 215.444C104.914 218.315 111.197 219.034 116.767 219.754C122.338 220.473 145.867 222.09 145.867 222.09C147.9 223.301 150.072 224.265 152.335 224.961C155.206 225.68 156.823 225.859 158.796 225.139C160.769 224.42 164.908 224.063 166.162 223.707C167.416 223.351 168.142 222.625 167.6 222.268C167.059 221.912 158.486 219.925 157.74 219.925Z" fill="white"/>
</mask>
<g mask="url(#mask2_78_477)">
<path opacity="0.15" d="M157.74 219.925C157.021 219.925 152.533 219.925 149.82 219.206C147.107 218.486 134.317 214.909 126.958 212.216C119.599 209.524 111.019 206.633 111.019 206.633C109.856 205.304 108.832 203.86 107.963 202.323C107.151 201.003 105.026 196.693 102.802 192.106C95.6406 193.981 92.037 197.386 90.2616 200.026C94.0121 205.391 98.0645 210.539 102.399 215.444C104.914 218.315 111.197 219.034 116.767 219.754C122.338 220.473 145.867 222.09 145.867 222.09C147.9 223.301 150.072 224.265 152.335 224.961C155.206 225.68 156.823 225.859 158.796 225.139C160.769 224.42 164.908 224.063 166.162 223.707C167.416 223.351 168.142 222.625 167.6 222.268C167.059 221.912 158.486 219.925 157.74 219.925Z" fill="black"/>
</g>
<path d="M157.74 219.925C157.021 219.925 152.533 219.925 149.82 219.206C147.107 218.486 134.317 214.909 126.958 212.216C119.599 209.524 111.019 206.633 111.019 206.633C109.856 205.304 108.832 203.86 107.963 202.323C107.151 201.003 105.026 196.693 102.802 192.106C95.6406 193.981 92.037 197.386 90.2616 200.026C94.0121 205.391 98.0645 210.539 102.399 215.444C104.914 218.315 111.197 219.034 116.767 219.754C122.338 220.473 145.867 222.09 145.867 222.09C147.9 223.301 150.072 224.265 152.335 224.961C155.206 225.68 156.823 225.859 158.796 225.139C160.769 224.42 164.908 224.063 166.162 223.707C167.416 223.351 168.142 222.625 167.6 222.268C167.059 221.912 158.486 219.925 157.74 219.925Z" stroke="#263238" stroke-linecap="round" stroke-linejoin="round"/>
<path d="M110.372 263.129C110.451 260.014 110.768 248.246 111.104 237.019C106.346 238.877 101.357 240.076 96.2742 240.583C85.7142 241.817 79.629 239.263 76.6194 237.283C76.6194 237.725 76.5798 238.003 76.5798 238.062C76.5798 238.722 76.8636 258.852 76.923 263.142L110.372 263.129Z" fill="url(#paint8_linear_78_477)" stroke="#263238" stroke-linecap="round" stroke-linejoin="round"/>
<path d="M101.957 261.631C100.32 255.42 104.28 247.5 98.5645 243.388" stroke="#263238" stroke-linecap="round" stroke-linejoin="round"/>
<path d="M101.957 247.342L109.309 240.28" stroke="#263238" stroke-linecap="round" stroke-linejoin="round"/>
<path d="M83.5231 247.388L83.3317 261.631" stroke="#263238" stroke-linecap="round" stroke-linejoin="round"/>
<path d="M83.589 242.26L83.556 244.86" stroke="#263238" stroke-linecap="round" stroke-linejoin="round"/>
<path d="M113.058 126.298C115.979 127.072 118.561 128.795 120.397 131.195C121.643 132.789 122.487 134.658 122.859 136.646C123.737 141.992 120.727 143.642 121.697 146.071C122.668 148.5 123.638 149.761 122.859 150.929C122.08 152.097 119.658 152.288 119.269 152.387C118.879 152.486 118.1 156.948 116.549 158.895C114.998 160.842 109.553 158.605 109.553 158.605C109.553 158.605 107.323 162.393 106.643 163.654C105.963 164.914 107.303 172.491 106.346 175.89C105.389 179.289 103.145 175.6 98.868 170.26C94.5912 164.921 92.6508 160.545 92.8488 159.086C93.0468 157.628 96.4392 154.229 97.0266 152.968C97.614 151.708 97.8978 151.12 97.6074 149.959C97.317 148.797 93.918 144.019 93.918 137.914C93.918 131.809 98.769 125.968 105.184 125.479C107.836 125.305 110.499 125.582 113.058 126.298Z" fill="white"/>
<mask id="mask3_78_477" style="mask-type:luminance" maskUnits="userSpaceOnUse" x="92" y="125" width="32" height="53">
<path d="M113.058 126.298C115.979 127.072 118.561 128.795 120.397 131.195C121.643 132.789 122.487 134.658 122.859 136.646C123.737 141.992 120.727 143.642 121.697 146.071C122.668 148.5 123.638 149.761 122.859 150.929C122.08 152.097 119.658 152.288 119.269 152.387C118.879 152.486 118.1 156.948 116.549 158.895C114.998 160.842 109.553 158.605 109.553 158.605C109.553 158.605 107.323 162.393 106.643 163.654C105.963 164.914 107.303 172.491 106.346 175.89C105.389 179.289 103.145 175.6 98.868 170.26C94.5912 164.921 92.6508 160.545 92.8488 159.086C93.0468 157.628 96.4392 154.229 97.0266 152.968C97.614 151.708 97.8978 151.12 97.6074 149.959C97.317 148.797 93.918 144.019 93.918 137.914C93.918 131.809 98.769 125.968 105.184 125.479C107.836 125.305 110.499 125.582 113.058 126.298Z" fill="white"/>
</mask>
<g mask="url(#mask3_78_477)">
<path opacity="0.15" d="M113.058 126.298C115.979 127.072 118.561 128.795 120.397 131.195C121.643 132.789 122.487 134.658 122.859 136.646C123.737 141.992 120.727 143.642 121.697 146.071C122.668 148.5 123.638 149.761 122.859 150.929C122.08 152.097 119.658 152.288 119.269 152.387C118.879 152.486 118.1 156.948 116.549 158.895C114.998 160.842 109.553 158.605 109.553 158.605C109.553 158.605 107.323 162.393 106.643 163.654C105.963 164.914 107.303 172.491 106.346 175.89C105.389 179.289 103.145 175.6 98.868 170.26C94.5912 164.921 92.6508 160.545 92.8488 159.086C93.0468 157.628 96.4392 154.229 97.0266 152.968C97.614 151.708 97.8978 151.12 97.6074 149.959C97.317 148.797 93.918 144.019 93.918 137.914C93.918 131.809 98.769 125.968 105.184 125.479C107.836 125.305 110.499 125.582 113.058 126.298Z" fill="black"/>
</g>
<path d="M113.058 126.298C115.979 127.072 118.561 128.795 120.397 131.195C121.643 132.789 122.487 134.658 122.859 136.646C123.737 141.992 120.727 143.642 121.697 146.071C122.668 148.5 123.638 149.761 122.859 150.929C122.08 152.097 119.658 152.288 119.269 152.387C118.879 152.486 118.1 156.948 116.549 158.895C114.998 160.842 109.553 158.605 109.553 158.605C109.553 158.605 107.323 162.393 106.643 163.654C105.963 164.914 107.303 172.491 106.346 175.89C105.389 179.289 103.145 175.6 98.868 170.26C94.5912 164.921 92.6508 160.545 92.8488 159.086C93.0468 157.628 96.4392 154.229 97.0266 152.968C97.614 151.708 97.8978 151.12 97.6074 149.959C97.317 148.797 93.918 144.019 93.918 137.914C93.918 131.809 98.769 125.968 105.184 125.479C107.836 125.305 110.499 125.582 113.058 126.298Z" stroke="#263238" stroke-linecap="round" stroke-linejoin="round"/>
<path d="M114.22 130.726C116.556 129.578 118.213 129.611 119.295 129.934C117.576 128.19 115.423 126.935 113.058 126.298C110.499 125.582 107.836 125.305 105.184 125.479C98.7691 125.968 93.9181 131.795 93.9181 137.914C93.9181 144.032 97.3171 148.79 97.6075 149.959C97.7116 150.343 97.7363 150.745 97.6801 151.14C102.3 152.057 103.811 149.747 103.811 149.747C103.277 149.815 102.734 149.772 102.217 149.622C101.699 149.472 101.218 149.219 100.802 148.876C99.4357 147.708 99.4357 143.24 101.092 141.2C102.749 139.161 104.392 141.979 104.392 143.629C104.392 145.279 105.171 146.639 105.95 146.447C106.729 146.256 106.531 144.408 106.821 143.24C107.111 142.072 110.51 140.329 111.289 139.359C112.068 138.389 110.9 137.511 109.639 136.059C108.379 134.607 109.454 133.056 114.22 130.726Z" fill="#263238" stroke="#263238" stroke-linecap="round" stroke-linejoin="round"/>
<path d="M103.62 150.051C103.62 150.051 103.62 152.777 105.277 154.519" stroke="#263238" stroke-linecap="round" stroke-linejoin="round"/>
<path d="M118.747 145.134C117.925 144.786 117.028 144.652 116.14 144.745" stroke="#263238" stroke-linecap="round" stroke-linejoin="round"/>
<path d="M120.179 142.791C120.179 142.791 118.747 140.316 116.008 142.27" stroke="#263238" stroke-linecap="round" stroke-linejoin="round"/>
<path d="M116.82 153.734C116.225 153.785 115.63 153.633 115.132 153.302C114.635 152.971 114.264 152.481 114.081 151.912" stroke="#263238" stroke-linecap="round" stroke-linejoin="round"/>
<path d="M97.9771 181.916L96.7363 179.276C88.7569 179.414 84.0841 182.391 81.4441 185.216C81.729 186.155 82.0865 187.071 82.5133 187.955C84.5923 185.255 89.0473 181.724 97.9771 181.916Z" fill="#263238"/>
<path d="M100.742 187.717L99.5016 185.117C92.0898 185.513 87.1068 188.245 84.051 190.753C84.513 191.519 85.008 192.271 85.503 193.004C88.3212 190.628 93.225 187.856 100.742 187.717Z" fill="#263238"/>
<path d="M186.655 205.352C187.486 207.841 188.041 216.691 188.041 221.397C188.041 225.317 185.533 253.829 184.701 263.129H222.202C222.651 254.054 223.991 226.783 223.991 223.331C223.991 219.179 222.605 202.171 224.407 196.225C226.208 190.278 228.274 174.656 225.067 169.825C221.859 164.993 209.887 162.221 206.263 160.974C202.64 159.727 197.274 159.04 194.647 160.314C194.647 160.314 187.46 164.327 183.031 168.472C178.603 172.616 176.675 178.985 177.5 184.1C178.325 189.215 185.823 202.864 186.655 205.352Z" fill="white" stroke="#263238" stroke-linecap="round" stroke-linejoin="round"/>
<path d="M219.239 165.469C217.622 164.722 215.968 164.061 214.282 163.489C208.177 179.061 198.573 193.021 186.212 204.29C186.417 204.745 186.569 205.115 186.655 205.366C187.07 206.984 187.34 208.636 187.46 210.302C201.581 198.201 212.497 182.801 219.239 165.469Z" fill="#263238"/>
<path d="M226.552 183.48C226.876 180.184 226.814 176.862 226.367 173.58C218.665 186.589 205.346 206.428 188.027 221.958C187.981 223.324 187.81 225.991 187.552 229.37C204.409 215.417 217.741 197.38 226.552 183.48Z" fill="#263238"/>
<path d="M222.202 263.129C222.519 256.667 223.291 240.992 223.707 231.244C205.458 234.736 192.628 231.416 187.532 229.627C186.754 239.903 185.295 256.456 184.701 263.129H222.202Z" fill="#263238" stroke="#263238" stroke-linecap="round" stroke-linejoin="round"/>
<path d="M199.373 176.774C204.381 176.774 208.441 172.847 208.441 168.003C208.441 163.159 204.381 159.232 199.373 159.232C194.364 159.232 190.304 163.159 190.304 168.003C190.304 172.847 194.364 176.774 199.373 176.774Z" fill="url(#paint9_linear_78_477)" stroke="#263238" stroke-linecap="round" stroke-linejoin="round"/>
<path d="M191.083 156.955C191.083 156.955 192.601 162.347 192.601 165.535C192.601 168.722 196.06 176.048 201.729 172.729C207.398 169.409 204.494 161.806 203.524 159.449C202.836 157.649 202.282 155.801 201.868 153.919C201.868 153.919 200.066 157.219 196.588 157.377C194.742 157.487 192.89 157.345 191.083 156.955Z" fill="white" stroke="#263238" stroke-linecap="round" stroke-linejoin="round"/>
<path d="M181.731 137.379C181.731 137.379 180.774 139.762 181.969 141.669C183.163 143.576 184.8 146.19 184.8 146.19L184.562 135.716C184.562 135.716 182.206 133.808 181.731 137.379Z" fill="#263238" stroke="#263238" stroke-linecap="round" stroke-linejoin="round"/>
<path d="M184.8 143.807C184.8 143.807 182.893 144.527 183.843 147.616C184.793 150.704 186.226 149.761 186.226 149.761L184.8 143.807Z" fill="white" stroke="#263238" stroke-linecap="round" stroke-linejoin="round"/>
<path d="M183.058 138.428C183.058 138.428 184.721 147.008 185.698 151.285C186.674 155.562 191.922 159.443 194.687 160.274C197.452 161.106 201.049 158.063 201.881 156.268C202.713 154.473 203.122 150.46 203.122 150.46C203.122 150.46 206.164 149.213 206.422 146.032C206.679 142.85 205.867 141.887 204.211 141.471L202.963 140.917C202.963 140.917 203.656 135.802 201.861 132.62C200.066 129.439 193.703 133.591 190.384 134.554C187.064 135.518 182.642 135.247 183.058 138.428Z" fill="white" stroke="#263238" stroke-linecap="round" stroke-linejoin="round"/>
<path d="M191.083 144.652C191.083 144.652 190.423 149.629 191.354 150.044C192.284 150.46 194.119 149.49 194.535 149.351" stroke="#263238" stroke-linecap="round" stroke-linejoin="round"/>
<path d="M193.71 153.12C193.71 153.12 197.578 153.674 199.102 149.246" stroke="#263238" stroke-linecap="round" stroke-linejoin="round"/>
<path d="M186.377 143.543C186.686 143.066 187.12 142.685 187.633 142.441C188.146 142.197 188.717 142.101 189.281 142.164" stroke="#263238" stroke-linecap="round" stroke-linejoin="round"/>
<path d="M193.017 141.471C193.017 141.471 195.782 140.085 197.439 141.61" stroke="#263238" stroke-linecap="round" stroke-linejoin="round"/>
<path d="M188.953 147.134C189.33 147.069 189.53 146.404 189.399 145.65C189.268 144.896 188.856 144.338 188.479 144.403C188.102 144.469 187.902 145.133 188.033 145.887C188.164 146.642 188.576 147.2 188.953 147.134Z" fill="#263238"/>
<path d="M195.04 145.893C195.417 145.827 195.616 145.163 195.485 144.408C195.354 143.654 194.942 143.096 194.565 143.162C194.188 143.227 193.989 143.892 194.12 144.646C194.251 145.4 194.663 145.958 195.04 145.893Z" fill="#263238"/>
<path d="M198.825 134.693C195.155 136.415 191.306 137.726 187.348 138.6C181.262 139.841 178.497 138.461 178.768 135.419C179.038 132.376 186.925 125.737 194.113 125.737C201.3 125.737 203.795 129.037 204.211 132.515C204.437 135.507 204.437 138.512 204.211 141.504L202.963 143.299C202.963 143.299 203.28 141.9 201.3 140.778C199.32 139.656 197.855 137.597 198.825 134.693Z" fill="#263238" stroke="#263238" stroke-linecap="round" stroke-linejoin="round"/>
<path d="M237.31 144.58C238.663 145.616 237.072 149.945 241.534 153.417C251.803 161.403 257.743 166.808 258.839 178.675C260.04 191.611 253.09 196.64 255.248 200.95C257.407 205.26 260.278 210.289 255.724 214.15C251.17 218.011 243.751 221.338 237.527 212.236C231.304 203.135 227.944 183.018 225.311 171.976C222.677 160.934 218.368 155.694 219.08 150.902C219.78 146.282 223.549 142.982 228.056 142.184C229.68 141.9 231.346 141.967 232.942 142.38C234.538 142.793 236.027 143.543 237.31 144.58Z" fill="#263238" stroke="#263238" stroke-linecap="round" stroke-linejoin="round"/>
<path d="M224.941 190.562L205.748 204.6C205.748 204.6 175.012 215.582 173.204 216.143C171.395 216.704 162.776 218.229 160.967 219.199C159.159 220.169 155.687 226.571 155.126 228.103C155.01 228.317 154.965 228.563 155 228.804C155.035 229.045 155.147 229.269 155.319 229.441C155.492 229.613 155.715 229.725 155.956 229.76C156.198 229.795 156.444 229.751 156.658 229.634C157.073 229.211 161.106 225.317 162.36 225.179C163.614 225.04 164.723 224.902 164.723 224.902C164.723 224.902 161.522 227.687 161.383 228.518C161.245 229.35 161.944 229.073 162.776 228.657C163.607 228.241 166.808 227.126 168.056 224.902C169.303 222.677 170.419 221.423 172.504 220.592C174.59 219.76 201.808 213.86 206.679 213.028C211.55 212.197 229.073 201.67 229.911 201.531C230.749 201.392 227.588 190.562 224.941 190.562Z" fill="white" stroke="#263238" stroke-linecap="round" stroke-linejoin="round"/>
<path d="M221.192 208.514C221.364 209.029 220.849 216.269 220.499 228.855C220.235 238.511 217.945 255.671 216.889 263.129H253.579C253.843 255.565 254.173 238.267 252.047 231.092C249.289 221.786 246.187 219.872 245.157 215.754C244.127 211.636 242.57 188.859 239.983 180.239C237.395 171.62 229.64 166.445 228.433 164.551C227.225 162.657 223.43 151.622 223.43 151.622L216.883 157.139C216.883 157.139 221.707 164.894 222.4 167.31C223.093 169.726 217.741 175.408 214.988 181.276C212.236 187.143 211.688 191.789 214.124 195.406C216.559 199.023 221.021 207.992 221.192 208.514Z" fill="url(#paint10_linear_78_477)"/>
<mask id="mask4_78_477" style="mask-type:luminance" maskUnits="userSpaceOnUse" x="212" y="151" width="42" height="113">
<path d="M221.192 208.514C221.364 209.029 220.849 216.269 220.499 228.855C220.235 238.511 217.945 255.671 216.889 263.129H253.579C253.843 255.565 254.173 238.267 252.047 231.092C249.289 221.786 246.187 219.872 245.157 215.754C244.127 211.636 242.57 188.859 239.983 180.239C237.395 171.62 229.64 166.445 228.433 164.551C227.225 162.657 223.43 151.622 223.43 151.622L216.883 157.139C216.883 157.139 221.707 164.894 222.4 167.31C223.093 169.726 217.741 175.408 214.988 181.276C212.236 187.143 211.688 191.789 214.124 195.406C216.559 199.023 221.021 207.992 221.192 208.514Z" fill="white"/>
</mask>
<g mask="url(#mask4_78_477)">
<path d="M226.802 243.936L232.815 245.256L238.828 243.936L244.84 245.256L250.853 243.936L253.638 244.543L253.579 243.184L250.853 242.583L244.84 243.903L238.828 242.583L232.815 243.903L226.802 242.583L220.796 243.903L219.351 243.586C219.305 244.028 219.259 244.464 219.206 244.906L220.796 245.256L226.802 243.936Z" fill="white"/>
<path d="M233.442 198.766L227.429 200.086L221.417 198.766L216.718 199.795L217.378 201.003L221.423 200.119L227.436 201.439L233.449 200.119L239.461 201.439L243.263 200.6C243.21 200.165 243.164 199.723 243.111 199.28L239.461 200.086L233.442 198.766Z" fill="white"/>
<path d="M226.802 253.988L232.815 255.308L238.828 253.988L244.84 255.308L250.853 253.988L253.763 254.648C253.763 254.206 253.763 253.757 253.763 253.328L250.846 252.668L244.834 253.988L238.821 252.668L232.808 253.988L226.796 252.668L220.79 253.988L218.189 253.414C218.137 253.862 218.077 254.298 218.024 254.734L220.79 255.341L226.802 253.988Z" fill="white"/>
<path d="M253.711 258.298L250.853 257.671L244.84 258.991L238.828 257.671L232.815 258.991L226.802 257.671L220.796 258.991L217.556 258.278C217.496 258.727 217.437 259.169 217.384 259.598L220.796 260.344L226.802 259.024L232.815 260.344L238.828 259.024L244.84 260.344L250.853 259.024L253.684 259.651C253.691 259.208 253.704 258.76 253.711 258.298Z" fill="white"/>
<path d="M213.226 185.876L215.404 186.351L221.417 185.031L227.43 186.351L233.442 185.031L239.455 186.351L241.257 185.955C241.177 185.513 241.098 185.077 241.019 184.635L239.455 184.978L233.442 183.658L227.43 184.978L221.417 183.658L215.404 184.978L213.622 184.589C213.477 185.033 213.345 185.462 213.226 185.876Z" fill="white"/>
<path d="M233.442 188.707L227.429 190.027L221.417 188.707L215.404 190.027L212.606 189.413C212.579 189.864 212.579 190.316 212.606 190.766L215.404 191.38L221.417 190.06L227.429 191.38L233.442 190.06L239.455 191.38L242.029 190.813C241.963 190.37 241.903 189.935 241.837 189.493L239.455 190.014L233.442 188.707Z" fill="white"/>
<path d="M233.442 193.736L227.429 195.056L221.417 193.736L215.404 195.056L213.688 194.68C213.82 194.924 213.965 195.169 214.124 195.406C214.282 195.644 214.474 195.941 214.658 196.244L215.404 196.409L221.417 195.089L227.429 196.409L233.442 195.089L239.455 196.409L242.675 195.703C242.623 195.261 242.563 194.825 242.51 194.383L239.455 195.043L233.442 193.736Z" fill="white"/>
<path d="M226.802 248.965L232.815 250.285L238.828 248.965L244.84 250.285L250.853 248.965L253.757 249.625V248.272L250.873 247.612L244.86 248.932L238.847 247.612L232.835 248.932L226.822 247.612L220.816 248.932L218.836 248.49L218.678 249.81L220.836 250.285L226.802 248.965Z" fill="white"/>
</g>
<path d="M221.192 208.514C221.364 209.029 220.849 216.269 220.499 228.855C220.235 238.511 217.945 255.671 216.889 263.129H253.579C253.843 255.565 254.173 238.267 252.047 231.092C249.289 221.786 246.187 219.872 245.157 215.754C244.127 211.636 242.57 188.859 239.983 180.239C237.395 171.62 229.64 166.445 228.433 164.551C227.225 162.657 223.43 151.622 223.43 151.622L216.883 157.139C216.883 157.139 221.707 164.894 222.4 167.31C223.093 169.726 217.741 175.408 214.988 181.276C212.236 187.143 211.688 191.789 214.124 195.406C216.559 199.023 221.021 207.992 221.192 208.514Z" stroke="#263238" stroke-linecap="round" stroke-linejoin="round"/>
<path d="M216.876 197.38C216.876 197.38 219.094 201.821 226.499 200.092" stroke="#263238" stroke-linecap="round" stroke-linejoin="round"/>
<path d="M237.105 225.997C237.105 225.997 226.004 239.567 221.067 250.417" stroke="#263238" stroke-linecap="round" stroke-linejoin="round"/>
<path d="M225.265 237.105C225.265 237.105 220.572 245.738 219.325 251.163" stroke="#263238" stroke-linecap="round" stroke-linejoin="round"/>
<path d="M218.995 179.936C222.578 177.956 227.152 169.376 229.145 167.792L230.505 166.703C229.746 166.055 229.051 165.334 228.433 164.551C227.225 162.657 223.43 151.622 223.43 151.622L216.883 157.139C216.883 157.139 221.707 164.894 222.4 167.31C223.007 169.442 218.909 174.134 216.044 179.236C216.381 180.18 217.173 180.946 218.995 179.936Z" fill="white" stroke="#263238" stroke-linecap="round" stroke-linejoin="round"/>
<path d="M211.101 138.349C210.337 140.161 209.955 142.112 209.979 144.078C210.098 145.82 210.474 147.2 209.774 148.922C209.365 149.912 207.979 151.173 208.171 152.315C208.342 153.344 210.929 153.694 210.929 153.694C210.929 153.694 213.517 161.792 214.889 161.964C216.262 162.136 219.371 161.304 223.331 158.004C227.291 154.704 222.473 142.824 219.021 139.729C215.569 136.633 212.824 136.277 211.101 138.349Z" fill="white" stroke="#263238" stroke-linecap="round" stroke-linejoin="round"/>
<path d="M212.276 149.153C212.524 149.153 212.725 148.586 212.725 147.886C212.725 147.186 212.524 146.619 212.276 146.619C212.028 146.619 211.827 147.186 211.827 147.886C211.827 148.586 212.028 149.153 212.276 149.153Z" fill="#263238"/>
<path d="M211.081 144.976C211.081 144.976 211.53 143.18 213.325 144.527" stroke="#263238" stroke-linecap="round" stroke-linejoin="round"/>
<path d="M211.979 155.43C211.979 155.43 213.173 155.734 214.52 154.11" stroke="#263238" stroke-linecap="round" stroke-linejoin="round"/>
<path d="M214.896 129.208C214.896 129.208 208.514 129.386 207.478 133.518C206.441 137.65 211.101 141.28 214.375 143.002C217.648 144.725 220.579 147.484 220.579 150.414C220.579 153.344 220.757 156.796 223.166 159.898C225.575 163 231.086 165.587 235.409 165.416C239.732 165.244 235.066 155.1 237.475 147.84C239.884 140.58 236.815 133.36 231.957 130.258C227.099 127.156 214.896 129.208 214.896 129.208Z" fill="#263238" stroke="#263238" stroke-linecap="round" stroke-linejoin="round"/>
<path d="M253.862 191.803C253.805 192.707 253.663 193.604 253.44 194.482" stroke="white" stroke-linecap="round" stroke-linejoin="round"/>
<path d="M213.431 139.92C214.619 141.9 216.87 144.012 221.1 145.2C230.34 147.84 233.858 154.222 233.858 159.72C233.858 165.218 234.3 169.178 243.098 173.58C245.692 174.877 247.965 176.734 249.753 179.017C251.542 181.3 252.801 183.951 253.44 186.78" stroke="white" stroke-linecap="round" stroke-linejoin="round"/>
<path d="M212.078 135.518C212.08 135.901 212.117 136.283 212.19 136.66" stroke="white" stroke-linecap="round" stroke-linejoin="round"/>
<path d="M224.4 135.518C224.4 135.518 235.402 141.022 235.178 148.5C234.953 155.978 235.62 163.02 242.438 167.198C249.256 171.376 256.298 174.022 258.72 182.378" stroke="white" stroke-linecap="round" stroke-linejoin="round"/>
<path d="M230.538 175.56C230.538 175.56 227.614 176.669 226.09 182.371C224.565 188.074 230.815 198.086 231.792 202.541C232.769 206.996 233.739 213.8 233.739 213.8C233.739 213.8 211.9 231.62 208.705 234.386C205.511 237.151 203.834 238.973 203.834 238.973C203.834 238.973 195.914 245.929 195.215 247.322C194.515 248.714 192.575 255.941 193.268 256.219C193.961 256.496 195.215 253.44 195.215 252.886C195.215 252.331 196.601 249.269 196.601 249.269C196.601 249.269 195.492 256.344 195.492 256.74C195.492 257.136 196.601 256.74 196.739 256.179C196.878 255.618 198.409 249.784 198.409 249.784C198.409 249.784 197.578 256.318 198.132 257.044C198.686 257.77 199.663 252.872 199.663 252.872L200.772 248.978C200.772 248.978 200.495 255.79 201.056 256.067C201.617 256.344 202.864 249.394 202.864 249.394C202.864 249.394 205.366 244.385 206.336 242.715C206.889 241.807 207.311 240.824 207.59 239.798C207.59 239.798 220.526 232.703 228.591 228.809C236.656 224.915 243.474 217.681 244.306 216.434C245.137 215.186 243.329 197.657 241.943 190.146C240.557 182.635 237.633 173.58 230.538 175.56Z" fill="white" stroke="#263238" stroke-linecap="round" stroke-linejoin="round"/>
<path d="M185.354 166.597C185.354 166.597 180.378 169.983 176.398 173.197C172.418 176.411 173.012 182.754 173.012 184.147C173.012 185.539 172.814 191.908 172.814 191.908L169.825 198.277C169.825 198.277 165.251 202.462 164.254 203.458C163.258 204.455 157.489 215.794 157.489 215.794L156.097 217.774L163.68 218.75C166.511 215.593 169.644 212.72 173.032 210.17C177.989 206.58 182.16 196.68 182.365 195.459C183.206 192.124 183.799 188.731 184.14 185.308" fill="white"/>
<path d="M185.354 166.597C185.354 166.597 180.378 169.983 176.398 173.197C172.418 176.411 173.012 182.754 173.012 184.147C173.012 185.539 172.814 191.908 172.814 191.908L169.825 198.277C169.825 198.277 165.251 202.462 164.254 203.458C163.258 204.455 157.489 215.794 157.489 215.794L156.097 217.774L163.68 218.75C166.511 215.593 169.644 212.72 173.032 210.17C177.989 206.58 182.16 196.68 182.365 195.459C183.206 192.124 183.799 188.731 184.14 185.308" stroke="#263238" stroke-linecap="round" stroke-linejoin="round"/>
<path d="M182.82 193.334C179.474 187.843 174.9 188.555 172.867 189.242C172.821 190.694 172.788 191.882 172.788 191.882L169.798 198.251C169.798 198.251 165.225 202.435 164.228 203.432C163.231 204.428 157.463 215.767 157.463 215.767L156.07 217.747L163.68 218.75C166.511 215.593 169.644 212.72 173.032 210.17C177.989 206.58 182.16 196.68 182.365 195.459C182.437 195.056 182.622 194.317 182.82 193.334Z" fill="white" stroke="#263238" stroke-linecap="round" stroke-linejoin="round"/>
<path d="M160.327 213.18C160.327 213.18 155.384 217.219 154.387 218.5C153.391 219.78 152.612 227.311 153.008 227.858C153.404 228.406 156.169 229.878 157.357 228.591C158.545 227.304 162.895 221.1 162.895 221.1C162.895 221.1 159.595 225.562 161.951 225.311C164.307 225.06 165.66 221.43 167.046 219.78C168.432 218.13 168.234 217.945 167.046 215.563L165.865 213.18" fill="white"/>
<path d="M160.327 213.18C160.327 213.18 155.384 217.219 154.387 218.5C153.391 219.78 152.612 227.311 153.008 227.858C153.404 228.406 156.169 229.878 157.357 228.591C158.545 227.304 162.895 221.1 162.895 221.1C162.895 221.1 159.595 225.562 161.951 225.311C164.307 225.06 165.66 221.43 167.046 219.78C168.432 218.13 168.234 217.945 167.046 215.563L165.865 213.18" stroke="#263238" stroke-linecap="round" stroke-linejoin="round"/>
<path d="M153.014 227.852C153.014 227.852 155.529 219.272 156.532 218.612" stroke="#263238" stroke-linecap="round" stroke-linejoin="round"/>
<path d="M154.196 228.479C154.196 228.479 157.113 220.414 158.618 218.744" stroke="#263238" stroke-linecap="round" stroke-linejoin="round"/>
<path d="M155.76 229.053C155.76 229.053 158.921 221.133 160.994 219.212" stroke="#263238" stroke-linecap="round" stroke-linejoin="round"/>
<path d="M162.895 221.1C162.895 221.1 164.578 219.608 164.835 218.711L162.895 221.1Z" fill="white"/>
<path d="M162.895 221.1C162.895 221.1 164.578 219.608 164.835 218.711" stroke="#263238" stroke-linecap="round" stroke-linejoin="round"/>
<path d="M41.0916 263.129H288.09" stroke="#263238" stroke-linecap="round" stroke-linejoin="round"/>
<defs>
<linearGradient id="paint0_linear_78_477" x1="164.96" y1="69.5114" x2="164.96" y2="263.128" gradientUnits="userSpaceOnUse">
<stop stop-color="#174884"/>
<stop offset="1" stop-color="#141645"/>
</linearGradient>
<linearGradient id="paint1_linear_78_477" x1="160.598" y1="82.302" x2="160.598" y2="146.982" gradientUnits="userSpaceOnUse">
<stop stop-color="#174884"/>
<stop offset="1" stop-color="#141645"/>
</linearGradient>
<linearGradient id="paint2_linear_78_477" x1="86.8494" y1="121.024" x2="86.8494" y2="165.904" gradientUnits="userSpaceOnUse">
<stop stop-color="#174884"/>
<stop offset="1" stop-color="#141645"/>
</linearGradient>
<linearGradient id="paint3_linear_78_477" x1="237.989" y1="121.024" x2="237.989" y2="165.904" gradientUnits="userSpaceOnUse">
<stop stop-color="#174884"/>
<stop offset="1" stop-color="#141645"/>
</linearGradient>
<linearGradient id="paint4_linear_78_477" x1="165.876" y1="162.631" x2="165.876" y2="238.012" gradientUnits="userSpaceOnUse">
<stop stop-color="#174884"/>
<stop offset="1" stop-color="#141645"/>
</linearGradient>
<linearGradient id="paint5_linear_78_477" x1="147.986" y1="159.211" x2="147.986" y2="263.129" gradientUnits="userSpaceOnUse">
<stop stop-color="#174884"/>
<stop offset="1" stop-color="#141645"/>
</linearGradient>
<linearGradient id="paint6_linear_78_477" x1="142.953" y1="166.109" x2="142.953" y2="229.648" gradientUnits="userSpaceOnUse">
<stop stop-color="#174884"/>
<stop offset="1" stop-color="#141645"/>
</linearGradient>
<linearGradient id="paint7_linear_78_477" x1="99.7688" y1="155.006" x2="99.7688" y2="182.713" gradientUnits="userSpaceOnUse">
<stop stop-color="#174884"/>
<stop offset="1" stop-color="#141645"/>
</linearGradient>
<linearGradient id="paint8_linear_78_477" x1="93.8421" y1="237.019" x2="93.8421" y2="263.142" gradientUnits="userSpaceOnUse">
<stop stop-color="#174884"/>
<stop offset="1" stop-color="#141645"/>
</linearGradient>
<linearGradient id="paint9_linear_78_477" x1="199.373" y1="159.232" x2="199.373" y2="176.774" gradientUnits="userSpaceOnUse">
<stop stop-color="#174884"/>
<stop offset="1" stop-color="#141645"/>
</linearGradient>
<linearGradient id="paint10_linear_78_477" x1="233.173" y1="151.622" x2="233.173" y2="263.129" gradientUnits="userSpaceOnUse">
<stop stop-color="#174884"/>
<stop offset="1" stop-color="#141645"/>
</linearGradient>
</defs>
</svg>
