<svg width="156" height="162" viewBox="0 0 156 162" fill="none" xmlns="http://www.w3.org/2000/svg">
<path fill-rule="evenodd" clip-rule="evenodd" d="M98.7009 160.175C86.9917 162.688 74.8689 162.605 63.1957 159.931C51.5224 157.258 40.5857 152.059 31.1642 144.706C21.7426 137.353 14.068 128.025 8.68649 117.388C3.305 106.751 0.349054 95.0655 0.0290801 83.1636C-0.290893 71.2616 2.03302 59.4359 6.8353 48.5283C11.6376 37.6207 18.8002 27.8994 27.8132 20.0566C36.8262 12.2137 47.4679 6.44215 58.9808 3.15272C70.4937 -0.136709 82.5947 -0.86309 94.4223 1.02528C-7.13486 -2.77233 -7.53151 135.91 75.2025 140.337C89.547 128.402 107.146 125.848 113.578 119.071C120.019 113.68 128.075 117.676 126.939 120.871C124.111 124.823 121.633 127.59 117.27 130.623C110.021 135.702 105.953 139.812 105.065 142.952C106.536 140.475 113.201 137.561 120.263 133.214C128.926 128.564 140.605 117.376 144.931 109.936C148.206 104.289 156.252 105.219 155.994 109.296C152.651 118.421 141.134 130.774 130.75 143.138C123.41 151.895 111.798 157.624 98.7009 160.175Z" fill="url(#paint0_linear_78_1434)"/>
<path fill-rule="evenodd" clip-rule="evenodd" d="M67.7642 60.1056C68.6778 59.972 69.6108 60.1107 70.4451 60.5041C71.2794 60.8976 71.9775 61.5281 72.4512 62.316C72.9249 63.1038 73.1528 64.0136 73.1062 64.9303C73.0597 65.8469 72.7406 66.7293 72.1895 67.4657C71.6383 68.2021 70.8797 68.7595 70.0098 69.0674C69.1398 69.3752 68.1976 69.4198 67.3021 69.1953C66.4067 68.9709 65.5984 68.4876 64.9794 67.8065C64.3604 67.1254 63.9585 66.2771 63.8246 65.369C63.7343 64.7661 63.7647 64.1515 63.914 63.5604C64.0634 62.9692 64.3286 62.4132 64.6947 61.9242C65.0607 61.4352 65.5202 61.0228 66.047 60.7107C66.5737 60.3986 67.1573 60.193 67.7642 60.1056ZM57.7119 70.2752L62.3396 70.2382C64.106 70.2382 66.7945 70.7032 69.5881 70.3898C71.0871 70.2535 72.5433 69.8192 73.8701 69.1127C75.7755 68.0782 78.9319 64.102 80.2304 61.1535C81.0712 59.7113 84.4175 59.6305 82.4646 65.3454C81.7866 67.2863 79.1184 72.0847 76.9452 75.5049C73.3548 81.1626 78.2301 88.3097 77.1181 94.3414C77.013 94.9681 76.8841 95.5848 76.7451 96.2014C76.2477 98.3811 75.5345 100.506 74.616 102.546C74.3731 102.81 74.0521 102.991 73.6993 103.061C73.3465 103.132 72.9803 103.089 72.6537 102.939C72.3271 102.788 72.0571 102.539 71.8826 102.226C71.7082 101.913 71.6384 101.553 71.6834 101.199C72.9898 96.9688 73.0181 92.4509 71.7648 88.2052C71.6615 88.0154 71.5049 87.8595 71.3141 87.7566C71.1232 87.6537 70.9064 87.6082 70.69 87.6256C70.4718 87.6423 70.263 87.721 70.0886 87.8525C69.9143 87.984 69.7817 88.1626 69.7068 88.367C68.3507 91.3997 63.7093 95.9554 60.4818 96.8383C60.122 96.9255 59.7427 96.8809 59.4133 96.7126C59.084 96.5444 58.8268 96.2637 58.6888 95.9222C58.5507 95.5807 58.5412 95.2012 58.6619 94.8533C58.7827 94.5054 59.0255 94.2123 59.346 94.028C67.5302 87.356 70.7239 74.6322 57.3118 73.2136C56.9663 73.1132 56.6683 72.8934 56.4716 72.5938C56.2748 72.2942 56.1924 71.9346 56.2391 71.5799C56.2857 71.2252 56.4584 70.8987 56.726 70.6595C56.9936 70.4202 57.3385 70.2839 57.6983 70.2752H57.7119Z" fill="url(#paint1_linear_78_1434)"/>
<path fill-rule="evenodd" clip-rule="evenodd" d="M99.3009 60.0955C98.3889 59.9608 97.4572 60.0979 96.6236 60.4895C95.79 60.8812 95.092 61.5097 94.6178 62.2956C94.1436 63.0815 93.9146 63.9896 93.9597 64.9049C94.0047 65.8202 94.3218 66.7016 94.8709 67.4378C95.42 68.174 96.1764 68.7317 97.0445 69.0406C97.9125 69.3495 98.8533 69.3956 99.7477 69.1731C100.642 68.9506 101.45 68.4694 102.069 67.7905C102.689 67.1116 103.092 66.2654 103.227 65.3589C103.406 64.1439 103.093 62.908 102.357 61.9216C101.621 60.9352 100.523 60.2786 99.3009 60.0955ZM89.2317 74.056C90.3301 77.7054 89.9097 84.9198 88.1094 91.8478C88.6543 92.042 89.2087 92.2085 89.7707 92.3465C89.767 93.0082 89.8215 93.6689 89.9334 94.3212C90.0385 94.9378 90.1674 95.5545 90.3098 96.1711C90.8122 98.3489 91.5241 100.474 92.4355 102.516C92.677 102.786 92.9993 102.972 93.355 103.046C93.7107 103.12 94.0808 103.078 94.4109 102.927C94.741 102.776 95.0135 102.524 95.1883 102.207C95.3631 101.89 95.4309 101.526 95.3817 101.168C94.5456 98.4818 94.2247 95.663 94.4358 92.8587C96.3184 92.8411 98.1917 92.5921 100.013 92.1174C101.989 94.2673 104.563 96.252 106.583 96.7979C106.943 96.8851 107.322 96.8405 107.652 96.6722C107.981 96.5039 108.238 96.2233 108.376 95.8818C108.514 95.5403 108.524 95.1608 108.403 94.8129C108.282 94.4649 108.04 94.1719 107.719 93.9876C106.462 92.9625 105.325 91.8006 104.329 90.5236C104.844 90.2809 105.346 90.0114 105.871 89.7216C103.498 85.5971 102.013 80.856 101.254 76.836C100.647 73.6146 107.614 73.4057 109.73 73.1732C110.075 73.0728 110.373 72.853 110.57 72.5534C110.766 72.2538 110.849 71.8942 110.802 71.5395C110.756 71.1848 110.583 70.8583 110.315 70.619C110.048 70.3798 109.703 70.2435 109.343 70.2348L104.712 70.1977C102.949 70.1977 100.257 70.6628 97.4634 70.3629C95.9711 70.2122 94.5219 69.7775 93.1949 69.0824C91.2896 68.0479 88.1094 64.0751 86.8245 61.1097C85.9837 59.681 82.6374 59.6001 84.5902 65.3185C85.1768 67.0033 87.2687 70.8279 89.2317 74.0459V74.056Z" fill="url(#paint2_linear_78_1434)"/>
<path fill-rule="evenodd" clip-rule="evenodd" d="M83.1054 123.823C77.4673 100.444 48.1342 103.52 45.9475 75.4578C44.3337 54.7714 66.9675 45.7205 83.536 58.1983C76.0536 37.3064 39.8788 36.154 30.9114 61.7095C25.2394 77.8839 33.7999 95.6656 48.4258 103.766C59.1121 109.694 72.4395 112.423 83.1054 123.823Z" fill="url(#paint3_linear_78_1434)"/>
<path fill-rule="evenodd" clip-rule="evenodd" d="M83.9699 123.823C89.5945 100.444 118.931 103.52 121.118 75.4578C122.731 54.7714 100.098 45.7205 83.5258 58.1983C91.0082 37.3064 127.197 36.154 136.154 61.7095C141.826 77.8839 133.279 95.6656 118.639 103.766C107.953 109.694 94.6223 112.423 83.9699 123.823Z" fill="url(#paint4_linear_78_1434)"/>
<defs>
<linearGradient id="paint0_linear_78_1434" x1="49.5514" y1="-33.9181" x2="83.6366" y2="127.557" gradientUnits="userSpaceOnUse">
<stop stop-color="#1B75BC"/>
<stop offset="1" stop-color="#141645"/>
</linearGradient>
<linearGradient id="paint1_linear_78_1434" x1="69.6526" y1="48.6285" x2="69.6526" y2="91.6861" gradientUnits="userSpaceOnUse">
<stop stop-color="#27AAE1"/>
<stop offset="1" stop-color="#141645"/>
</linearGradient>
<linearGradient id="paint2_linear_78_1434" x1="98.5" y1="47.5" x2="97" y2="103" gradientUnits="userSpaceOnUse">
<stop offset="0.145" stop-color="#227FB4"/>
<stop offset="1" stop-color="#141645"/>
</linearGradient>
<linearGradient id="paint3_linear_78_1434" x1="91.8417" y1="122.335" x2="73.5" y2="37" gradientUnits="userSpaceOnUse">
<stop stop-color="#141645"/>
<stop offset="1" stop-color="#1D5C8F"/>
</linearGradient>
<linearGradient id="paint4_linear_78_1434" x1="110.723" y1="-3.1565" x2="110.723" y2="105.39" gradientUnits="userSpaceOnUse">
<stop stop-color="#27AAE1"/>
<stop offset="1" stop-color="#141645"/>
</linearGradient>
</defs>
</svg>
